<?xml version="1.0" encoding="utf-8"?>
<!-- Generator: Adobe Illustrator 28.1.0, SVG Export Plug-In . SVG Version: 6.00 Build 0)  -->
<svg version="1.1" id="Ebene_1" xmlns="http://www.w3.org/2000/svg" xmlns:xlink="http://www.w3.org/1999/xlink" x="0px" y="0px"
	 viewBox="0 0 289 160" style="background-color:009fe3" xml:space="preserve">
<style type="text/css">
	.st0{fill:#004B6A;}
</style>
	<g>
	<path class="st0" d="M175.5,63.1h17.2c3.4,0,5.9,0.1,7.6,0.4s3.2,0.9,4.5,1.8s2.4,2.1,3.3,3.6s1.3,3.2,1.3,5c0,2-0.5,3.9-1.6,5.5
		s-2.6,2.9-4.4,3.8c2.6,0.8,4.6,2.1,6,3.9s2.1,4,2.1,6.5c0,2-0.5,3.9-1.4,5.7s-2.1,3.3-3.7,4.4c-1.6,1.1-3.5,1.8-5.8,2
		c-1.4,0.2-4.9,0.3-10.5,0.3h-14.6V63.1z M184.1,70.2v9.9h5.7c3.4,0,5.5,0,6.3-0.1c1.5-0.2,2.7-0.7,3.5-1.5s1.3-2,1.3-3.4
		c0-1.3-0.4-2.4-1.1-3.2s-1.8-1.3-3.3-1.5c-0.9-0.1-3.3-0.1-7.4-0.1H184.1z M184.1,87.3v11.5h8c3.1,0,5.1-0.1,5.9-0.3
		c1.3-0.2,2.3-0.8,3.1-1.7c0.8-0.9,1.2-2.1,1.2-3.6c0-1.3-0.3-2.4-0.9-3.3c-0.6-0.9-1.5-1.6-2.7-2c-1.2-0.4-3.7-0.6-7.7-0.6H184.1z"
	/>
		<path class="st0" d="M217.7,106V63.1h8.4l17.6,28.7V63.1h8.1V106H243l-17.3-28v28H217.7z"/>
</g>
	<g>
	<path class="st0" d="M91.1,143.8c-34.9,0-63.3-28.4-63.3-63.3s28.4-63.3,63.3-63.3s63.3,28.4,63.3,63.3S126,143.8,91.1,143.8z
		 M91.1,22.2c-32.2,0-58.3,26.2-58.3,58.3c0,32.2,26.2,58.3,58.3,58.3s58.3-26.2,58.3-58.3C149.4,48.3,123.2,22.2,91.1,22.2z"/>
</g>
	<path class="st0" d="M78.4,111.7H47.1V49.3h31.3v22.2L99.3,50H137l-29.7,31.7l28.9,29.6H98.2L78.4,91.3V111.7z M52.1,106.7h21.3
	V54.3H52.1V106.7z M100.3,106.4h24l-24-24.5L125.4,55h-24L75.7,81.5L100.3,106.4z"/>
</svg>
