<?xml version="1.0" encoding="utf-8"?>
<!-- Generator: Adobe Illustrator 28.1.0, SVG Export Plug-In . SVG Version: 6.00 Build 0)  -->
<svg version="1.1" id="Ebene_1" xmlns="http://www.w3.org/2000/svg" xmlns:xlink="http://www.w3.org/1999/xlink" x="0px" y="0px"
	 viewBox="0 0 289 160" style="enable-background:new 0 0 289 160;" xml:space="preserve">
<style type="text/css">
	.st0{fill:#FFFFFF;}
</style>
<g>
	<path class="st0" d="M89.8,142.3c-34.1,0-61.8-27.7-61.8-61.8c0-34.1,27.7-61.8,61.8-61.8s61.8,27.7,61.8,61.8
		C151.7,114.6,123.9,142.3,89.8,142.3z M89.8,20.7c-33,0-59.8,26.8-59.8,59.8s26.8,59.8,59.8,59.8s59.8-26.8,59.8-59.8
		S122.8,20.7,89.8,20.7z"/>
</g>
<path class="st0" d="M75.7,110.2H47.4V50.8h28.3v24.4l23-23.6h33.6L104,81.8l27.4,28.1H97.6L75.7,87.7V110.2z M49.4,108.2h24.3V82.8
	l24.8,25.1h28.2l-25.5-26.1l26.5-28.3H99.6L73.7,80.1V52.8H49.4V108.2z"/>
<g>
	<path class="st0" d="M174.3,106V63.1h16.1c3.3,0,5.9,0.4,7.9,1.3s3.5,2.2,4.7,4s1.7,3.7,1.7,5.7c0,1.8-0.5,3.6-1.5,5.2
		s-2.5,2.9-4.5,3.9c2.6,0.8,4.6,2.1,6,3.9s2.1,4,2.1,6.5c0,2-0.4,3.9-1.3,5.6s-1.9,3.1-3.1,4s-2.8,1.6-4.7,2.1s-4.2,0.7-6.9,0.7
		H174.3z M179.9,81.1h9.3c2.5,0,4.3-0.2,5.4-0.5c1.4-0.4,2.5-1.1,3.3-2.1s1.1-2.2,1.1-3.8c0-1.4-0.3-2.7-1-3.8s-1.7-1.8-2.9-2.2
		s-3.4-0.6-6.5-0.6h-8.6V81.1z M179.9,101h10.7c1.8,0,3.1-0.1,3.9-0.2c1.3-0.2,2.4-0.6,3.3-1.2s1.6-1.3,2.2-2.4s0.8-2.3,0.8-3.6
		c0-1.6-0.4-3-1.2-4.2s-2-2-3.4-2.5s-3.5-0.7-6.3-0.7h-9.9V101z"/>
	<path class="st0" d="M213.6,106V63.1h5.8L242,96.8V63.1h5.4V106h-5.8l-22.6-33.8V106H213.6z"/>
</g>
</svg>
