<?xml version="1.0" encoding="utf-8"?>
<!-- Generator: Adobe Illustrator 28.1.0, SVG Export Plug-In . SVG Version: 6.00 Build 0)  -->
<svg version="1.1" id="Ebene_1" xmlns="http://www.w3.org/2000/svg" xmlns:xlink="http://www.w3.org/1999/xlink" x="0px" y="0px"
	 viewBox="0 0 957 266" style="enable-background:new 0 0 957 266;" xml:space="preserve">
<style type="text/css">
	.st0{fill:#FFFFFF;}
</style>
<path class="st0" d="M123.6,181c-3.9,0-7-3.1-7-7v-53.5c0-3.9,3.1-7,7-7s7,3.1,7,7V174C130.6,177.9,127.4,181,123.6,181z"/>
<g>
	<path class="st0" d="M129.4,100.3c0-3.2-2.6-5.8-5.8-5.8c-3.2,0-5.8,2.6-5.8,5.8c0,3.2,2.6,5.8,5.8,5.8
		C126.8,106.1,129.4,103.5,129.4,100.3"/>
	<path class="st0" d="M123.6,108.6c-4.6,0-8.3-3.7-8.3-8.3c0-4.6,3.7-8.3,8.3-8.3c4.6,0,8.3,3.7,8.3,8.3
		C131.9,104.8,128.2,108.6,123.6,108.6z M123.6,97c-1.8,0-3.3,1.5-3.3,3.3c0,1.8,1.5,3.3,3.3,3.3c1.8,0,3.3-1.5,3.3-3.3
		C126.9,98.4,125.4,97,123.6,97z"/>
	<path class="st0" d="M941.4,245.2H123.6c-61.8,0-112-50.2-112-112c0-61.8,50.2-112,112-112s112,50.2,112,112
		c0,29.1-11.1,56.6-31.2,77.6c-1.5,1.6-4.1,1.6-5.7,0.1c-1.6-1.5-1.6-4.1-0.1-5.7c18.7-19.5,29-45,29-72c0-57.3-46.7-104-104-104
		s-104,46.7-104,104c0,57.3,46.7,104,104,104h817.8c2.2,0,4,1.8,4,4S943.6,245.2,941.4,245.2z"/>
	<path class="st0" d="M123.6,221.5c-48.7,0-88.2-39.6-88.2-88.2S74.9,45,123.6,45s88.2,39.6,88.2,88.2S172.2,221.5,123.6,221.5z
		 M123.6,53c-44.2,0-80.2,36-80.2,80.2s36,80.2,80.2,80.2s80.2-36,80.2-80.2S167.8,53,123.6,53z"/>
</g>
</svg>
