<?xml version="1.0" encoding="utf-8"?>
<!-- Generator: Adobe Illustrator 28.1.0, SVG Export Plug-In . SVG Version: 6.00 Build 0)  -->
<svg version="1.1" id="Ebene_1" xmlns="http://www.w3.org/2000/svg" xmlns:xlink="http://www.w3.org/1999/xlink" x="0px" y="0px"
	 viewBox="0 0 324 368" style="enable-background:new 0 0 324 368;" xml:space="preserve">
<style type="text/css">
	.st0{fill:#FFFFFF;}
</style>
<g>
	<path class="st0" d="M162,283c-1.9,0-3.5-1.6-3.5-3.5V155.7l-89.8,32.7l23.7,80.7c0.5,1.9-0.5,3.8-2.4,4.3
		c-1.9,0.6-3.8-0.5-4.3-2.4l-24.7-83.9c-0.5-1.8,0.4-3.6,2.2-4.3L94,171.8v-52.4c0-1.9,1.6-3.5,3.5-3.5h129.1c1.9,0,3.5,1.6,3.5,3.5
		v52.4l30.7,11.2c1.7,0.6,2.7,2.5,2.2,4.3l-24.8,84.5c-0.5,1.9-2.5,2.9-4.3,2.4c-1.9-0.5-2.9-2.5-2.4-4.3l23.9-81.3l-89.8-32.7
		v123.8C165.5,281.4,163.9,283,162,283z M101,122.9v46.3l58.3-21.2c0.4-0.1,0.8-0.2,1.2-0.2h3.1c0.4,0,0.8,0.1,1.2,0.2l58.3,21.2
		v-46.3H101z M204.5,104.2c-1.9,0-3.5-1.6-3.5-3.5v-22h-78v22c0,1.9-1.6,3.5-3.5,3.5s-3.5-1.6-3.5-3.5V75.2c0-1.9,1.6-3.5,3.5-3.5
		h85c1.9,0,3.5,1.6,3.5,3.5v25.5C208,102.6,206.5,104.2,204.5,104.2z"/>
	<path class="st0" d="M256,316.8c-1.1,0-2.2-0.5-2.9-1.5L235,289.2c-0.7-1-1.6-1.6-2.4-1.6c-0.8,0-1.7,0.6-2.4,1.6l-12.7,18.3
		c-2,2.9-5,4.6-8.2,4.6s-6.1-1.7-8.2-4.6l-12.7-18.3c-0.7-1-1.6-1.6-2.4-1.6c-0.8,0-1.7,0.6-2.4,1.6l-13.3,19.1
		c-2,2.9-5,4.6-8.1,4.6c0,0,0,0,0,0c-3.1,0-6.1-1.7-8.2-4.6l-13.7-19.8c-0.7-1.1-1.6-1.6-2.4-1.6s-1.7,0.6-2.4,1.6l-12.6,18.2
		c-2.1,3-5,4.6-8.2,4.6c0,0,0,0,0,0c-3.1,0-6.1-1.7-8.2-4.6L94,288.6c-0.7-1.1-1.6-1.6-2.4-1.6c-0.8,0-1.7,0.6-2.4,1.6l-18.3,26.4
		c-1.1,1.6-3.3,2-4.9,0.9c-1.6-1.1-2-3.3-0.9-4.9l18.3-26.4c2.1-3,5-4.6,8.2-4.6c0,0,0,0,0,0c3.1,0,6.1,1.7,8.2,4.6l12.6,18.2
		c0.7,1,1.6,1.6,2.4,1.6l0,0c0.8,0,1.7-0.6,2.4-1.6l12.6-18.1c2-3,5-4.6,8.2-4.6s6.1,1.7,8.2,4.6l13.7,19.8c0.7,1,1.6,1.6,2.4,1.6
		c0.8,0,1.7-0.6,2.4-1.6l13.3-19.2c2-3,5-4.6,8.2-4.6c3.1,0,6.1,1.7,8.2,4.6l12.7,18.3c0.7,1.1,1.6,1.6,2.4,1.6s1.7-0.6,2.4-1.6
		l12.7-18.3c2-3,5-4.6,8.2-4.6h0c3.1,0,6.1,1.7,8.2,4.6l18.2,26.2c1.1,1.6,0.7,3.8-0.9,4.9C257.4,316.6,256.7,316.8,256,316.8z"/>
	<path class="st0" d="M162,78.4c-1.9,0-3.5-1.6-3.5-3.5V54.7c0-1.9,1.6-3.5,3.5-3.5c1.9,0,3.5,1.6,3.5,3.5v20.2
		C165.5,76.8,163.9,78.4,162,78.4z"/>
</g>
<path class="st0" d="M121.2,200.7c-1,0-2-0.4-2.7-1.2c-1.2-1.5-1.1-3.7,0.4-4.9l15.5-13c1.5-1.2,3.7-1.1,4.9,0.4
	c1.2,1.5,1.1,3.7-0.4,4.9l-15.5,13C122.8,200.4,122,200.7,121.2,200.7z M202.8,200.7c-0.8,0-1.6-0.3-2.2-0.8l-15.5-13
	c-1.5-1.2-1.7-3.5-0.4-4.9c1.2-1.5,3.5-1.7,4.9-0.4l15.5,13c1.5,1.2,1.7,3.5,0.4,4.9C204.8,200.3,203.8,200.7,202.8,200.7z"/>
</svg>
