<?xml version="1.0" encoding="utf-8"?>
<!-- Generator: Adobe Illustrator 28.1.0, SVG Export Plug-In . SVG Version: 6.00 Build 0)  -->
<svg version="1.1" id="Ebene_1" xmlns="http://www.w3.org/2000/svg" xmlns:xlink="http://www.w3.org/1999/xlink" x="0px" y="0px"
	 viewBox="0 0 324 368" style="enable-background:new 0 0 324 368;" xml:space="preserve">
<style type="text/css">
	.st0{fill:#FFFFFF;}
</style>
<g>
	<path class="st0" d="M202.9,262.2h-81.8c-18.9,0-34.2-15.2-34.2-33.9v-91.3c0-18.7,15.3-33.9,34.2-33.9h81.8
		c18.9,0,34.2,15.2,34.2,33.9v91.3C237.1,246.9,221.8,262.2,202.9,262.2z M121.1,110c-15,0-27.2,12.1-27.2,26.9v91.3
		c0,14.9,12.2,26.9,27.2,26.9h81.8c15,0,27.2-12.1,27.2-26.9v-91.3c0-14.9-12.2-26.9-27.2-26.9H121.1z M201.3,237.7
		c-8.6,0-15.5-6.9-15.5-15.4c0-8.5,7-15.4,15.5-15.4c8.6,0,15.5,6.9,15.5,15.4C216.8,230.8,209.9,237.7,201.3,237.7z M201.3,213.9
		c-4.7,0-8.5,3.8-8.5,8.4c0,4.6,3.8,8.4,8.5,8.4c4.7,0,8.5-3.8,8.5-8.4C209.8,217.7,206,213.9,201.3,213.9z M122.7,237.7
		c-8.6,0-15.5-6.9-15.5-15.4c0-8.5,7-15.4,15.5-15.4c8.6,0,15.5,6.9,15.5,15.4C138.2,230.8,131.2,237.7,122.7,237.7z M122.7,213.9
		c-4.7,0-8.5,3.8-8.5,8.4c0,4.6,3.8,8.4,8.5,8.4c4.7,0,8.5-3.8,8.5-8.4C131.2,217.7,127.4,213.9,122.7,213.9z M162,177.2
		c-1.9,0-3.5-1.6-3.5-3.5v-35.2c0-1.9,1.6-3.5,3.5-3.5s3.5,1.6,3.5,3.5v35.2C165.5,175.6,163.9,177.2,162,177.2z M120.7,84.2
		c-0.5,0-1.1-0.1-1.6-0.4c-1.7-0.9-2.4-3-1.5-4.7c5.2-9.9,10.5-9.9,19.3-9.8l1.5,0h47.2c10.7,0,15.9,1.4,20.7,9.7
		c1,1.7,0.4,3.8-1.3,4.8c-1.7,1-3.8,0.4-4.8-1.3c-3-5.3-5.2-6.2-14.6-6.2l-48.7,0c-8.3,0-9.8,0-13.1,6.1
		C123.2,83.5,122,84.2,120.7,84.2z"/>
	<path class="st0" d="M229.6,180.6H94.4c-1.9,0-3.5-1.6-3.5-3.5s1.6-3.5,3.5-3.5h135.2c1.9,0,3.5,1.6,3.5,3.5
		S231.6,180.6,229.6,180.6z M229.6,141.2H94.4c-1.9,0-3.5-1.6-3.5-3.5s1.6-3.5,3.5-3.5h135.2c1.9,0,3.5,1.6,3.5,3.5
		S231.6,141.2,229.6,141.2z M180.3,97c-1.9,0-3.5-1.6-3.5-3.5V78.4c0-1.9,1.6-3.5,3.5-3.5s3.5,1.6,3.5,3.5v15.2
		C183.8,95.5,182.2,97,180.3,97z M143.7,97c-1.9,0-3.5-1.6-3.5-3.5V78.4c0-1.9,1.6-3.5,3.5-3.5s3.5,1.6,3.5,3.5v15.2
		C147.2,95.5,145.7,97,143.7,97z"/>
	<path class="st0" d="M215.8,298.8c-1.4,0-2.8-0.9-3.3-2.3L204,273c-0.7-1.8,0.3-3.8,2.1-4.5c1.8-0.7,3.8,0.3,4.5,2.1l8.5,23.5
		c0.7,1.8-0.3,3.8-2.1,4.5C216.6,298.7,216.2,298.8,215.8,298.8z M108.2,298.8c-0.4,0-0.8-0.1-1.2-0.2c-1.8-0.7-2.8-2.7-2.1-4.5
		l8.5-23.5c0.7-1.8,2.7-2.8,4.5-2.1c1.8,0.7,2.8,2.7,2.1,4.5l-8.5,23.5C111,297.9,109.6,298.8,108.2,298.8z"/>
</g>
</svg>
