<?xml version="1.0" encoding="utf-8"?>
<!-- Generator: Adobe Illustrator 28.1.0, SVG Export Plug-In . SVG Version: 6.00 Build 0)  -->
<svg version="1.1" id="Ebene_1" xmlns="http://www.w3.org/2000/svg" xmlns:xlink="http://www.w3.org/1999/xlink" x="0px" y="0px"
	 viewBox="0 0 324 368" style="enable-background:new 0 0 324 368;" xml:space="preserve">
<style type="text/css">
	.st0{fill:#FFFFFF;}
</style>
<g>
	<path class="st0" d="M91.9,239.8c-1.9,0-3.5-1.6-3.5-3.5v-98.4c0-5.8,4.8-10.6,10.8-10.6h124.6c5.9,0,10.8,4.8,10.8,10.6v96.6
		c0,1.9-1.6,3.5-3.5,3.5s-3.5-1.6-3.5-3.5v-96.6c0-2-1.7-3.6-3.8-3.6H99.2c-2.1,0-3.8,1.6-3.8,3.6v98.4
		C95.4,238.3,93.8,239.8,91.9,239.8z M230.7,118.1c-1.9,0-3.5-1.6-3.5-3.5V76.7H95.8v37.8c0,1.9-1.6,3.5-3.5,3.5s-3.5-1.6-3.5-3.5
		V73.2c0-1.9,1.6-3.5,3.5-3.5h138.5c1.9,0,3.5,1.6,3.5,3.5v41.3C234.2,116.5,232.7,118.1,230.7,118.1z"/>
	<path class="st0" d="M251.2,209.8h-20.1c-0.4,0-0.7-0.1-1.1-0.2c-0.1,0-0.3,0-0.4,0H107.3c-1.9,0-3.5-1.6-3.5-3.5s1.6-3.5,3.5-3.5
		h122.4c0.4,0,0.7,0.1,1.1,0.2c0.1,0,0.3,0,0.4,0h16.6v-30.4h-16.6c-1.9,0-3.5-1.6-3.5-3.5s1.6-3.5,3.5-3.5h20.1
		c1.9,0,3.5,1.6,3.5,3.5v37.4C254.7,208.2,253.2,209.8,251.2,209.8z M91.9,209.8H71.7c-1.9,0-3.5-1.6-3.5-3.5v-37.4
		c0-1.9,1.6-3.5,3.5-3.5h20.1c1.9,0,3.5,1.6,3.5,3.5s-1.6,3.5-3.5,3.5H75.2v30.4h16.6c1.9,0,3.5,1.6,3.5,3.5S93.8,209.8,91.9,209.8z
		 M229.6,154.6H107.3c-1.9,0-3.5-1.6-3.5-3.5s1.6-3.5,3.5-3.5h122.4c1.9,0,3.5,1.6,3.5,3.5S231.6,154.6,229.6,154.6z"/>
</g>
<path class="st0" d="M197.4,242.4h-71.8c-1.9,0-3.5-1.6-3.5-3.5s1.6-3.5,3.5-3.5h71.8c1.9,0,3.5,1.6,3.5,3.5
	S199.3,242.4,197.4,242.4z M197.4,220.9h-71.8c-1.9,0-3.5-1.6-3.5-3.5s1.6-3.5,3.5-3.5h71.8c1.9,0,3.5,1.6,3.5,3.5
	S199.3,220.9,197.4,220.9z"/>
<g>
	<path class="st0" d="M223.2,299.2h-27.7c-3.9,0-7-3.3-7-7.3c0-1.9,1.6-3.5,3.5-3.5s3.5,1.6,3.5,3.5c0,0.2,0.1,0.3,0.1,0.3h27.5
		c0-0.1,0.1-0.2,0.1-0.3v-15h-87.5v15c0,4-3.1,7.3-7,7.3H101c-3.9,0-7-3.3-7-7.3c0-1.9,1.6-3.5,3.5-3.5s3.5,1.6,3.5,3.5
		c0,0.2,0.1,0.3,0.1,0.3h27.6c0-0.1,0.1-0.2,0.1-0.3v-15H97.5c-0.5,0-0.9-0.1-1.4-0.3c-4.6-2-7.7-6.8-7.7-11.9v-15.9
		c0-1.9,1.6-3.5,3.5-3.5h140.2c1.9,0,3.5,1.6,3.5,3.5v15.9c0,4.4-2,8.4-5.4,10.8v16.5C230.2,295.9,227.1,299.2,223.2,299.2z
		 M195.6,292.3L195.6,292.3L195.6,292.3z M98.3,269.9h127.5c1.6-1,2.7-3,2.7-5.2v-12.4H95.4v12.4C95.4,266.8,96.6,268.9,98.3,269.9z
		"/>
</g>
</svg>
