<?xml version="1.0" encoding="utf-8"?>
<!-- Generator: Adobe Illustrator 28.1.0, SVG Export Plug-In . SVG Version: 6.00 Build 0)  -->
<svg version="1.1" id="Ebene_1" xmlns="http://www.w3.org/2000/svg" xmlns:xlink="http://www.w3.org/1999/xlink" x="0px" y="0px"
	 viewBox="0 0 518 368" style="enable-background:new 0 0 518 368;" xml:space="preserve">
<style type="text/css">
	.st0{fill:#FFFFFF;}
</style>
<g>
	<path class="st0" d="M379.6,147h-77.3c-1.9,0-3.5-1.6-3.5-3.5s1.6-3.5,3.5-3.5h77.3c1.9,0,3.5,1.6,3.5,3.5S381.6,147,379.6,147z
		 M222.4,147h-79.6c-1.9,0-3.5-1.6-3.5-3.5s1.6-3.5,3.5-3.5h79.6c1.9,0,3.5,1.6,3.5,3.5S224.3,147,222.4,147z M261.2,133.4
		c-1.9,0-3.5-1.6-3.5-3.5V63.4c0-1.9,1.6-3.5,3.5-3.5c1.9,0,3.5,1.6,3.5,3.5v66.5C264.7,131.8,263.1,133.4,261.2,133.4z"/>
	<path class="st0" d="M261.2,308.1c-47.2,0-85.6-38.4-85.6-85.6c0-22.2,10.2-46.1,27.9-65.6c17.3-19,39.1-30.3,58.2-30.3
		c19.8,0,41,11.1,58.2,30.4c17.1,19.3,27,43.2,27,65.5C346.8,269.7,308.4,308.1,261.2,308.1z M261.7,133.6c-17.2,0-37,10.5-53.1,28
		c-16.6,18.2-26.1,40.4-26.1,60.8c0,43.3,35.3,78.6,78.6,78.6c43.4,0,78.7-35.3,78.7-78.6c0-20.7-9.2-42.9-25.2-60.9
		C299,144.1,279.2,133.6,261.7,133.6z"/>
	<path class="st0" d="M310.1,212.5h-97.9c-1.9,0-3.5-1.6-3.5-3.5c0-17.8,10.3-28.4,19-34.2c11.1-7.4,24.3-10,33-10
		c12.4,0,24.9,3.6,34.4,10c12.1,8.1,18.5,19.9,18.5,34.2C313.6,210.9,312.1,212.5,310.1,212.5z M215.9,205.5h90.6
		c-0.9-10.4-6-18.7-15.3-24.9c-8.3-5.5-19.7-8.8-30.5-8.8c-7.6,0-19.3,2.3-29.1,8.8C225,185,217.1,192.8,215.9,205.5z"/>
</g>
<g>
	<path class="st0" d="M110.5,293.4c-15.2,0-27.5-12.7-27.5-28.4c0-15.6,12.4-28.4,27.5-28.4s27.5,12.7,27.5,28.4
		C138,280.7,125.6,293.4,110.5,293.4z M110.5,243.7c-11.3,0-20.5,9.6-20.5,21.4c0,11.8,9.2,21.4,20.5,21.4
		c11.3,0,20.5-9.6,20.5-21.4C131,253.3,121.8,243.7,110.5,243.7z"/>
	<path class="st0" d="M410.4,293.4c-15.6,0-28.4-12.7-28.4-28.4c0-15.6,12.7-28.4,28.4-28.4c15.6,0,28.4,12.7,28.4,28.4
		C438.7,280.7,426,293.4,410.4,293.4z M410.4,243.7c-11.8,0-21.4,9.6-21.4,21.4c0,11.8,9.6,21.4,21.4,21.4
		c11.8,0,21.4-9.6,21.4-21.4C431.7,253.3,422.1,243.7,410.4,243.7z"/>
</g>
<path class="st0" d="M72.4,236.6H25.6c-1.9,0-3.5,1.6-3.5,3.5s1.6,3.5,3.5,3.5h46.8c1.9,0,3.5-1.6,3.5-3.5S74.3,236.6,72.4,236.6z"
	/>
<path class="st0" d="M496.4,236.6h-46.8c-1.9,0-3.5,1.6-3.5,3.5s1.6,3.5,3.5,3.5h46.8c1.9,0,3.5-1.6,3.5-3.5
	S498.3,236.6,496.4,236.6z"/>
<path class="st0" d="M181.5,243.6h-31.2c-1.9,0-3.5-1.6-3.5-3.5s1.6-3.5,3.5-3.5h31.2c1.9,0,3.5,1.6,3.5,3.5
	S183.4,243.6,181.5,243.6z"/>
<path class="st0" d="M371.1,243.6h-29.7c-1.9,0-3.5-1.6-3.5-3.5s1.6-3.5,3.5-3.5h29.7c1.9,0,3.5,1.6,3.5,3.5
	S373.1,243.6,371.1,243.6z"/>
</svg>
