<?xml version="1.0" encoding="utf-8"?>
<!-- Generator: Adobe Illustrator 28.1.0, SVG Export Plug-In . SVG Version: 6.00 Build 0)  -->
<svg version="1.1" id="Ebene_1" xmlns="http://www.w3.org/2000/svg" xmlns:xlink="http://www.w3.org/1999/xlink" x="0px" y="0px"
	 viewBox="0 0 1005 890" style="enable-background:new 0 0 1005 890;" xml:space="preserve">
<style type="text/css">
	.st0{fill:#FFFFFF;}
</style>
<g>
	<path class="st0" d="M499,700.2c-176.2,0-406.1-38.3-408.4-38.7c-7-1.2-12.1-7.2-12.1-14.3V90.7c0-3.9,1.6-7.6,4.4-10.4
		c3.9-3.8,18.8-13.8,71.8-23.2c72.9-12.9,185.3-19.5,333.8-19.5c148.5,0,264.7,6.5,345.5,19.4c60.1,9.6,78.3,19.3,81.4,21.2
		c4.3,2.6,7,7.3,7,12.4v556.5c0,7.1-5.1,13.1-12.1,14.3C907.8,661.9,675.2,700.2,499,700.2z M107.5,634.9
		c49.5,7.8,240.7,36.3,391.5,36.3c151,0,344.4-28.6,394.3-36.3V100.3c-9.8-3.5-30.9-9.6-70.5-15.6c-98.6-14.9-236.2-18-334.3-18
		c-138.2,0-244.6,5.7-316.4,17c-38.4,6-56.7,12.1-64.6,15.5V634.9z"/>
	<path class="st0" d="M500.3,851.1c-236,0-360.9-26.6-366.1-27.7c-7.8-1.7-12.8-9.4-11.1-17.3c1.7-7.8,9.4-12.8,17.2-11.1l0,0
		c0.3,0.1,31.9,6.8,91.8,13.5c55.3,6.2,146.7,13.5,268.2,13.5c202.5,0,396.9-33,445.7-41.9v-53.4c-60.1,9.9-268,41.7-444,41.7
		c-176,0-383.9-31.9-444-41.7v65.5c0,8-6.5,14.5-14.5,14.5S29,800.2,29,792.2v-82.6c0-4.3,1.9-8.4,5.2-11.1
		c3.3-2.8,7.6-3.9,11.8-3.2c2.5,0.4,251.4,44.2,456,44.2c204.6,0,453.5-43.7,456-44.2c4.2-0.7,8.6,0.4,11.8,3.2
		c3.3,2.8,5.2,6.8,5.2,11.1v82.6c0,6.9-4.9,12.9-11.7,14.2C961.1,806.9,736.1,851.1,500.3,851.1z"/>
	<path class="st0" d="M500.4,173.1c-192,0-357.8-31.9-359.5-32.3c-7.9-1.5-13-9.1-11.5-17c1.5-7.9,9.2-13,17-11.5
		c1.6,0.3,164.8,31.7,353.9,31.7c262.9,0,393.3-58.1,394.6-58.7c7.3-3.3,15.9-0.1,19.2,7.2c3.3,7.3,0.1,15.9-7.2,19.2
		c-1.4,0.6-35,15.8-102.2,31C743.4,156.6,640.7,173.1,500.4,173.1z"/>
</g>
<path class="st0" d="M231.8,677.9c-8,0-14.5-6.5-14.5-14.5V228.2c0-8,6.5-14.5,14.5-14.5s14.5,6.5,14.5,14.5v435.3
	C246.3,671.4,239.8,677.9,231.8,677.9z"/>
<path class="st0" d="M415.5,677.9c-8,0-14.5-6.5-14.5-14.5V265.8c0-8,6.5-14.5,14.5-14.5s14.5,6.5,14.5,14.5v397.6
	C430,671.4,423.5,677.9,415.5,677.9z"/>
<path class="st0" d="M599.1,677.9c-8,0-14.5-6.5-14.5-14.5V265.8c0-8,6.5-14.5,14.5-14.5s14.5,6.5,14.5,14.5v397.6
	C613.6,671.4,607.2,677.9,599.1,677.9z"/>
<path class="st0" d="M782.8,677.9c-8,0-14.5-6.5-14.5-14.5V228.2c0-8,6.5-14.5,14.5-14.5s14.5,6.5,14.5,14.5v435.3
	C797.3,671.4,790.8,677.9,782.8,677.9z"/>
</svg>
