<?xml version="1.0" encoding="utf-8"?>
<!-- Generator: Adobe Illustrator 28.1.0, SVG Export Plug-In . SVG Version: 6.00 Build 0)  -->
<svg version="1.1" id="Ebene_1" xmlns="http://www.w3.org/2000/svg" xmlns:xlink="http://www.w3.org/1999/xlink" x="0px" y="0px"
	 viewBox="0 0 377 224" style="enable-background:new 0 0 377 224;" xml:space="preserve">
<style type="text/css">
	.st0{fill:#FFFFFF;}
</style>
<g>
	<path class="st0" d="M324.2,212.3h-291c-2.2,0-4-1.8-4-4s1.8-4,4-4h291c6.6,0,11.5-2.1,13.6-5.8c2.2-3.7,1.5-9-1.8-14.8l-89-154.6
		c-3.3-5.8-7.5-9-11.8-9c0,0,0,0,0,0c-4.3,0-8.5,3.2-11.8,8.9l-78.5,136.2c-1.1,1.9-3.5,2.6-5.5,1.5c-1.9-1.1-2.6-3.5-1.5-5.5
		l78.5-136.2c4.8-8.3,11.5-12.9,18.8-12.9c0,0,0,0,0,0c7.3,0,13.9,4.6,18.8,13l89,154.6c4.8,8.4,5.5,16.5,1.8,22.8
		C341.1,208.8,333.8,212.3,324.2,212.3z M321.4,192.9H148.7c-1.4,0-2.7-0.8-3.5-2c-0.7-1.2-0.7-2.8,0-4l86.4-149.8
		c0.7-1.2,2-2,3.5-2h0c1.4,0,2.8,0.8,3.5,2l86.3,149.8c0.7,1.2,0.7,2.8,0,4S322.8,192.9,321.4,192.9z M155.6,184.9h158.8L235.1,47.2
		L155.6,184.9z"/>
</g>
<path class="st0" d="M235,168.8c-3.9,0-7-3.1-7-7v-53.5c0-3.9,3.1-7,7-7s7,3.1,7,7v53.5C242,165.6,238.9,168.8,235,168.8z"/>
<g>
	<path class="st0" d="M229.2,88c0-3.2,2.6-5.8,5.8-5.8c3.2,0,5.8,2.6,5.8,5.8c0,3.2-2.6,5.8-5.8,5.8C231.8,93.8,229.2,91.2,229.2,88
		"/>
	<path class="st0" d="M235,96.3c-4.6,0-8.3-3.7-8.3-8.3c0-4.6,3.7-8.3,8.3-8.3c4.6,0,8.3,3.7,8.3,8.3
		C243.3,92.6,239.6,96.3,235,96.3z M235,84.7c-1.8,0-3.3,1.4-3.3,3.3c0,1.9,1.4,3.3,3.3,3.3c1.8,0,3.3-1.5,3.3-3.3
		C238.3,86.2,236.9,84.7,235,84.7z"/>
</g>
</svg>
