<?xml version="1.0" encoding="utf-8"?>
<!-- Generator: Adobe Illustrator 28.1.0, SVG Export Plug-In . SVG Version: 6.00 Build 0)  -->
<svg version="1.1" id="Ebene_1" xmlns="http://www.w3.org/2000/svg" xmlns:xlink="http://www.w3.org/1999/xlink" x="0px" y="0px"
	 viewBox="0 0 875 890" style="enable-background:new 0 0 875 890;" xml:space="preserve">
<style type="text/css">
	.st0{fill:#FFFFFF;}
</style>
<g>
	<path class="st0" d="M436.1,677.1c-176.4,0-385.3-38.3-387.4-38.7c-6.9-1.3-11.9-7.3-11.9-14.3V67.5c0-2.1,0.5-4.2,1.4-6.2
		c5.1-11,26-19.9,63.9-27.3c66-12.9,174.8-19.5,323.4-19.5c148.5,0,261.3,6.5,335.1,19.5c53.4,9.3,68.7,19.1,72.8,22.8
		c3,2.7,4.7,6.6,4.7,10.7v556.5c0,7-5,13-11.9,14.3C824.1,638.7,612.4,677.1,436.1,677.1z M65.9,611.9c46.4,8,220.5,36.1,370.2,36.1
		c149.9,0,326.2-28.2,373-36.2V76.2c-8.1-3.4-26.6-9.5-65.1-15.5c-72.6-11.4-179.7-17.1-318.5-17.1c-277.6,0-345.3,23.7-359.7,31.1
		V611.9z M814.6,78.9C814.6,78.9,814.6,78.9,814.6,78.9C814.6,78.9,814.6,78.9,814.6,78.9z"/>
	<path class="st0" d="M436.1,875.4c-191.9,0-293.6-23.2-297.8-24.2c-7.8-1.8-12.6-9.6-10.8-17.4c1.8-7.8,9.6-12.6,17.4-10.8l0,0
		c0.3,0.1,25.8,5.9,74.2,11.7c44.7,5.4,118.7,11.7,217,11.7c162.2,0,328.5-29.7,373-38.3V703.8c-54.9,9.5-230.7,38-371.6,38
		c-140.9,0-316.7-28.5-371.6-38v116.3c0,8-6.5,14.5-14.5,14.5s-14.5-6.5-14.5-14.5V686.5c0-4.3,1.9-8.4,5.2-11.2
		c3.3-2.8,7.7-3.9,11.9-3.1c2.2,0.4,217.8,40.6,383.5,40.6s381.3-40.2,383.4-40.6c4.2-0.8,8.6,0.3,11.9,3.1
		c3.3,2.8,5.2,6.8,5.2,11.2v133.6c0,6.9-4.8,12.8-11.5,14.2C824.6,834.7,627.8,875.4,436.1,875.4z"/>
	<path class="st0" d="M435.2,175.7c-193.7,0-296.8-45.2-301.1-47.1c-7.3-3.3-10.6-11.9-7.3-19.2c3.3-7.3,11.8-10.6,19.1-7.3
		c0.4,0.2,25.7,11.3,73.7,22.3c44.4,10.2,117.9,22.3,215.5,22.3c97.9,0,196.8-20.6,262.4-37.9C769.1,90,817.8,70.9,818.3,70.8
		c7.5-2.9,15.9,0.7,18.8,8.2c2.9,7.5-0.7,15.9-8.2,18.8c-2,0.8-50.5,19.8-123.5,39C638,154.5,536.4,175.7,435.2,175.7z"/>
</g>
<path class="st0" d="M169,654.8c-8,0-14.5-6.5-14.5-14.5V205c0-8,6.5-14.5,14.5-14.5s14.5,6.5,14.5,14.5v435.3
	C183.5,648.3,177,654.8,169,654.8z"/>
<path class="st0" d="M352.6,654.8c-8,0-14.5-6.5-14.5-14.5V242.7c0-8,6.5-14.5,14.5-14.5s14.5,6.5,14.5,14.5v397.6
	C367.1,648.3,360.6,654.8,352.6,654.8z"/>
<path class="st0" d="M536.3,654.8c-8,0-14.5-6.5-14.5-14.5V242.7c0-8,6.5-14.5,14.5-14.5s14.5,6.5,14.5,14.5v397.6
	C550.8,648.3,544.3,654.8,536.3,654.8z"/>
<path class="st0" d="M719.9,654.8c-8,0-14.5-6.5-14.5-14.5V205c0-8,6.5-14.5,14.5-14.5s14.5,6.5,14.5,14.5v435.3
	C734.4,648.3,727.9,654.8,719.9,654.8z"/>
</svg>
