<?xml version="1.0" encoding="utf-8"?>
<!-- Generator: Adobe Illustrator 28.1.0, SVG Export Plug-In . SVG Version: 6.00 Build 0)  -->
<svg version="1.1" id="Ebene_1" xmlns="http://www.w3.org/2000/svg" xmlns:xlink="http://www.w3.org/1999/xlink" x="0px" y="0px"
	 viewBox="0 0 337 342" style="enable-background:new 0 0 337 342;" xml:space="preserve">
<style type="text/css">
	.st0{fill:#FFFFFF;}
</style>
<g>
	<path class="st0" d="M167.3,270.9H65c-2.2,0-4-1.8-4-4V97.5c0-1.1,0.4-2.1,1.2-2.8l42.4-42c0.7-0.7,1.8-1.2,2.8-1.2h118.3
		c2.2,0,4,1.8,4,4v68.7c0,2.2-1.8,4-4,4s-4-1.8-4-4V59.5H109.1L69,99.2v163.7h98.2c2.2,0,4,1.8,4,4S169.5,270.9,167.3,270.9z"/>
</g>
<path class="st0" d="M118.9,113.6H87.8c-2.2,0-4-1.8-4-4s1.8-4,4-4h27.1V78.5c0-2.2,1.8-4,4-4s4,1.8,4,4v31.1
	C122.9,111.8,121.1,113.6,118.9,113.6z"/>
<g>
	<path class="st0" d="M230.8,270.9h-18.1c-2,0-3.6-1.4-3.9-3.3l-2.5-14.6c-3-0.9-5.9-2.1-8.7-3.6l-11.9,8.6c-1.6,1.1-3.8,1-5.2-0.4
		l-12.8-12.8c-1.4-1.4-1.6-3.6-0.4-5.2l8.6-12c-1.5-2.8-2.7-5.7-3.6-8.7l-14.6-2.5c-1.9-0.3-3.3-2-3.3-3.9v-18.1
		c0-2,1.4-3.6,3.3-3.9l14.6-2.5c0.9-3,2.1-5.9,3.6-8.7l-8.5-12c-1.1-1.6-0.9-3.8,0.4-5.1l12.8-12.8c1.4-1.4,3.6-1.6,5.1-0.4l12,8.5
		c3.6-1.9,7.3-3.3,11.3-4.3c2.1-0.5,4.3,0.7,4.9,2.9c0.5,2.1-0.7,4.3-2.9,4.9c-4.1,1-7.9,2.6-11.5,4.7c-1.4,0.8-3.1,0.7-4.4-0.2
		l-11.3-8l-8,8l8,11.3c0.9,1.3,1,3,0.2,4.4c-2.1,3.5-3.7,7.4-4.7,11.4c-0.4,1.5-1.6,2.7-3.2,2.9l-13.7,2.3v11.4l13.7,2.3
		c1.6,0.3,2.8,1.4,3.2,3c1,4,2.6,7.9,4.8,11.5c0.8,1.4,0.7,3.1-0.2,4.4l-8.1,11.3l8,8l11.3-8.1c1.3-0.9,3-1,4.4-0.2
		c3.6,2.1,7.4,3.7,11.5,4.8c1.5,0.4,2.7,1.6,3,3.2l2.3,13.7h11.4l2.3-13.7c0.3-1.6,1.4-2.8,2.9-3.2c4-1,7.9-2.6,11.5-4.8
		c1.4-0.8,3.1-0.7,4.4,0.2l11.3,8.1l8-8l-8.1-11.3c-0.9-1.3-1-3-0.2-4.4c2.1-3.6,3.8-7.5,4.8-11.6c0.4-1.5,1.7-2.7,3.2-3l13.7-2.2
		v-11.3l-13.7-2.2c-1.6-0.3-2.8-1.4-3.2-3c-1-4-2.6-7.9-4.7-11.5c-0.8-1.4-0.7-3.1,0.2-4.4l8-11.3l-8-8l-11.4,8
		c-1.3,0.9-3,1-4.4,0.2c-3.6-2.1-7.4-3.7-11.5-4.7c-1.5-0.4-2.7-1.7-3-3.2l-2.2-13.7h-14.7c-2.2,0-4-1.8-4-4s1.8-4,4-4h18.1
		c2,0,3.6,1.4,3.9,3.4l2.4,14.5c3,0.9,6,2.1,8.8,3.6l12-8.5c1.6-1.1,3.8-0.9,5.1,0.4l12.8,12.8c1.4,1.4,1.6,3.6,0.4,5.1l-8.5,12
		c1.5,2.8,2.7,5.7,3.6,8.8l14.5,2.4c1.9,0.3,3.4,2,3.4,3.9v18.1c0,2-1.4,3.6-3.4,3.9l-14.5,2.4c-0.9,3.1-2.2,6-3.7,8.8l8.6,12
		c1.1,1.6,1,3.8-0.4,5.2l-12.8,12.8c-1.4,1.4-3.6,1.6-5.2,0.4l-11.9-8.6c-2.8,1.5-5.7,2.7-8.7,3.6l-2.5,14.6
		C234.4,269.5,232.8,270.9,230.8,270.9z M221.8,226c-12.4,0-22.6-10.1-22.6-22.6c0-2.1,0.3-4.2,0.9-6.2c0.6-2.1,2.8-3.4,4.9-2.8
		c2.1,0.6,3.4,2.8,2.8,4.9c-0.4,1.3-0.6,2.6-0.6,4c0,8,6.5,14.6,14.6,14.6c8,0,14.6-6.5,14.6-14.6c0-8-6.5-14.6-14.6-14.6
		c-1.3,0-2.5,0.2-3.8,0.5c-2.1,0.6-4.3-0.7-4.9-2.8c-0.6-2.1,0.7-4.3,2.8-4.9c1.9-0.5,3.9-0.8,5.8-0.8c12.4,0,22.6,10.1,22.6,22.6
		C244.3,215.8,234.2,226,221.8,226z"/>
</g>
</svg>
