<?xml version="1.0" encoding="utf-8"?>
<!-- Generator: Adobe Illustrator 28.1.0, SVG Export Plug-In . SVG Version: 6.00 Build 0)  -->
<svg version="1.1" id="Ebene_1" xmlns="http://www.w3.org/2000/svg" xmlns:xlink="http://www.w3.org/1999/xlink" x="0px" y="0px"
	 viewBox="0 0 289 160" style="enable-background:new 0 0 289 160;" xml:space="preserve">
<style type="text/css">
	.st0{fill:#FFFFFF;}
</style>
<g>
	<path class="st0" d="M91.4,141.9c-34.1,0-61.8-27.7-61.8-61.8c0-34.1,27.7-61.8,61.8-61.8s61.8,27.7,61.8,61.8
		C153.2,114.2,125.5,141.9,91.4,141.9z M91.4,20.3c-33,0-59.8,26.8-59.8,59.8s26.8,59.8,59.8,59.8s59.8-26.8,59.8-59.8
		S124.3,20.3,91.4,20.3z"/>
</g>
<path class="st0" d="M77.2,109.8H48.9V50.4h28.3v24.4l23-23.6h33.6l-28.4,30.3l27.4,28.1H99.2L77.2,87.3V109.8z M50.9,107.8h24.3
	V82.4l24.8,25.1h28.2l-25.5-26.1l26.5-28.3h-28.1L75.2,79.7V52.4H50.9V107.8z"/>
<g>
	<path class="st0" d="M183.5,105.6l-11.4-42.9h5.8l6.5,28.2c0.7,2.9,1.3,5.9,1.8,8.8c1.1-4.6,1.7-7.2,1.9-7.9l8.2-29h6.9l6.2,21.7
		c1.5,5.4,2.7,10.5,3.3,15.2c0.5-2.7,1.3-5.8,2.1-9.3l6.7-27.6h5.7l-11.8,42.9h-5.5L201,72.9c-0.8-2.7-1.2-4.4-1.3-5
		c-0.4,2-0.9,3.7-1.3,5l-9.1,32.7H183.5z"/>
	<path class="st0" d="M224.6,105.6l16.5-42.9h6.1l17.6,42.9h-6.5l-5-13h-18l-4.7,13H224.6z M237,88h14.6l-4.5-11.9
		c-1.4-3.6-2.4-6.6-3-8.9c-0.5,2.8-1.3,5.5-2.3,8.2L237,88z"/>
</g>
</svg>
