<?xml version="1.0" encoding="utf-8"?>
<!-- Generator: Adobe Illustrator 28.1.0, SVG Export Plug-In . SVG Version: 6.00 Build 0)  -->
<svg version="1.1" id="Ebene_1" xmlns="http://www.w3.org/2000/svg" xmlns:xlink="http://www.w3.org/1999/xlink" x="0px" y="0px"
	 viewBox="0 0 289 160" style="enable-background:new 0 0 289 160;" xml:space="preserve">
<style type="text/css">
	.st0{fill:#004B6A;}
</style>
<g>
	<path class="st0" d="M91.1,143.4c-34.9,0-63.3-28.4-63.3-63.3s28.4-63.3,63.3-63.3s63.3,28.4,63.3,63.3S126,143.4,91.1,143.4z
		 M91.1,21.8c-32.2,0-58.3,26.2-58.3,58.3s26.2,58.3,58.3,58.3s58.3-26.2,58.3-58.3S123.3,21.8,91.1,21.8z"/>
</g>
<path class="st0" d="M78.5,111.3H47.1V48.9h31.3v22.2l20.9-21.4H137l-29.7,31.7l28.9,29.6H98.3L78.5,90.9V111.3z M52.1,106.3h21.3
	V53.9H52.1V106.3z M100.4,106h24l-24-24.5l25.1-26.8h-24L75.7,81.1L100.4,106z"/>
<g>
	<path class="st0" d="M183.3,105.6l-11.4-42.9h5.8l6.5,28.2c0.7,2.9,1.3,5.9,1.8,8.8c1.1-4.6,1.7-7.2,1.9-7.9l8.2-29h6.9l6.2,21.7
		c1.5,5.4,2.7,10.5,3.3,15.2c0.5-2.7,1.3-5.8,2.1-9.3l6.7-27.6h5.7l-11.8,42.9h-5.5l-9.1-32.7c-0.8-2.7-1.2-4.4-1.3-5
		c-0.4,2-0.9,3.7-1.3,5l-9.1,32.7H183.3z"/>
	<path class="st0" d="M224.4,105.6l16.5-42.9h6.1l17.6,42.9h-6.5l-5-13h-18l-4.7,13H224.4z M236.8,88h14.6l-4.5-11.9
		c-1.4-3.6-2.4-6.6-3-8.9c-0.5,2.8-1.3,5.5-2.3,8.2L236.8,88z"/>
</g>
</svg>
