<?xml version="1.0" encoding="utf-8"?>
<!-- Generator: Adobe Illustrator 28.1.0, SVG Export Plug-In . SVG Version: 6.00 Build 0)  -->
<svg version="1.1" id="Ebene_1" xmlns="http://www.w3.org/2000/svg" xmlns:xlink="http://www.w3.org/1999/xlink" x="0px" y="0px"
	 viewBox="0 0 195 204" style="enable-background:new 0 0 195 204;" xml:space="preserve">
<style type="text/css">
	.st0{fill:#FFFFFF;}
</style>
<g>
	<path class="st0" d="M103.9,96.8V93c-2,2.9-4.8,4.4-8.2,4.4c-1.5,0-3-0.3-4.3-0.9c-1.3-0.6-2.3-1.3-3-2.2c-0.6-0.9-1.1-2-1.4-3.3
		c-0.2-0.9-0.3-2.2-0.3-4.1V70.8h4.4v14.4c0,2.3,0.1,3.8,0.3,4.6c0.3,1.2,0.9,2.1,1.8,2.7c0.9,0.7,2,1,3.3,1s2.6-0.3,3.7-1
		c1.2-0.7,2-1.6,2.5-2.8c0.5-1.2,0.7-2.9,0.7-5.1V70.8h4.4v25.9H103.9z"/>
</g>
<g>
	<path class="st0" d="M86.9,136.8v-25.9h4v3.7c1.9-2.8,4.7-4.3,8.3-4.3c1.6,0,3,0.3,4.3,0.8c1.3,0.6,2.3,1.3,2.9,2.2
		c0.7,0.9,1.1,2,1.4,3.2c0.2,0.8,0.2,2.2,0.2,4.3v15.9h-4.4V121c0-1.8-0.2-3.1-0.5-4c-0.3-0.9-0.9-1.6-1.8-2.1
		c-0.9-0.5-1.9-0.8-3.1-0.8c-1.9,0-3.5,0.6-4.8,1.8c-1.4,1.2-2,3.4-2,6.8v14.2H86.9z"/>
</g>
<g>
	<path class="st0" d="M97.5,164c-34.1,0-61.8-27.7-61.8-61.8c0-34.1,27.7-61.8,61.8-61.8s61.8,27.7,61.8,61.8
		C159.3,136.3,131.6,164,97.5,164z M97.5,42.4c-33,0-59.8,26.8-59.8,59.8S64.5,162,97.5,162c33,0,59.8-26.8,59.8-59.8
		S130.5,42.4,97.5,42.4z"/>
</g>
</svg>
