<?xml version="1.0" encoding="utf-8"?>
<!-- Generator: Adobe Illustrator 28.0.0, SVG Export Plug-In . SVG Version: 6.00 Build 0)  -->
<svg version="1.1" id="Ebene_1" xmlns="http://www.w3.org/2000/svg" xmlns:xlink="http://www.w3.org/1999/xlink" x="0px" y="0px"
	 viewBox="0 0 595.3 187.4" style="enable-background:new 0 0 595.3 187.4;" xml:space="preserve">
<style type="text/css">
	.st0{fill:#FFFFFF;}
</style>
<g>
	<path class="st0" d="M126.4,110.6c-9.1,12-24.1,18.3-39.5,15.5c-13.9-2.2-26.9-14.1-31-27.4c-5.3-16.2-0.3-34.6,12.1-45.3
		c10.5-9,25.6-12.8,39.1-7.9c10.8,3.5,20.2,12.6,24.5,23C137.4,81.9,135.5,99.4,126.4,110.6 M141.5,37.8H47.2v94.6h94.3V37.8z"/>
</g>
<rect x="47.2" y="147.4" class="st0" width="156.3" height="5.1"/>
<polygon class="st0" points="208.7,104.5 191.6,104.5 170.4,89 170.4,104.5 159.9,104.5 159.9,65.4 170.4,65.4 170.4,80.1 
	189.9,65.4 205.6,65.4 179.6,83.9 "/>
<g>
	<path class="st0" d="M298.8,104.5h-23.5c-7.7,0-10.2-2.4-10.2-9.7V65.4h10.5v30.3h22.9V65.4h10.4v29.4
		C308.9,102.2,306.5,104.5,298.8,104.5"/>
</g>
<polygon class="st0" points="343.9,104.5 333.5,104.5 333.5,73.8 316.4,73.8 316.4,65.4 361.1,65.4 361.1,73.8 343.9,73.8 "/>
<polygon class="st0" points="408.9,104.5 368.5,104.5 368.5,65.4 408.6,65.4 408.6,73.5 379.1,73.5 379.1,80.1 396.3,80.1 
	396.3,88.3 379.1,88.3 379.1,95.8 408.9,95.8 "/>
<polygon class="st0" points="468.8,104.5 454.5,104.5 441.2,90.5 429,104.5 416.3,104.5 434.9,84.5 416,65.4 430,65.4 441.4,77.7 
	452.4,65.4 464.9,65.4 447.8,83.5 "/>
<path class="st0" d="M231.6,151.4h-2.7L227,146h-8.2l-2,5.4h-2.5l6.9-19.2h3.5L231.6,151.4z M226.3,143.8l-3.4-9.4l-3.3,9.4H226.3z"
	/>
<polygon class="st0" points="256.9,134.5 250.1,134.5 250.1,151.4 247.5,151.4 247.5,134.5 240.7,134.5 240.7,132.2 256.9,132.2 "/>
<g>
	<path class="st0" d="M266.5,144.4h-10.6c0,0.9,0.2,1.7,0.5,2.4c0.2,0.6,0.6,1.2,1.1,1.6c0.5,0.5,0.9,0.7,1.6,1
		c0.6,0.2,1.2,0.3,2,0.3c0.9,0,1.9-0.1,2.8-0.5c1.1-0.4,1.8-0.7,2.2-1.2h0.1v2.7c-0.9,0.3-1.6,0.5-2.5,0.8c-0.8,0.2-1.7,0.3-2.6,0.3
		c-2.4,0-4.2-0.5-5.6-1.9c-1.4-1.2-2-3.1-2-5.4c0-2.4,0.7-4.3,1.9-5.7c1.3-1.4,3-2,5.1-2c2,0,3.4,0.6,4.4,1.6c1.1,1.2,1.6,2.8,1.6,5
		V144.4z M264.2,142.5c0-1.2-0.3-2.2-0.9-3c-0.6-0.7-1.6-1-2.9-1c-1.2,0-2.2,0.4-3,1.2c-0.7,0.7-1.2,1.6-1.4,2.8H264.2z"/>
</g>
<polygon class="st0" points="282.4,151.4 279.3,151.4 275.3,145.8 271.1,151.4 268.4,151.4 273.9,144.2 268.4,137 271.5,137 
	275.5,142.5 279.6,137 282.4,137 276.7,144.1 "/>
<g>
	<path class="st0" d="M293.4,151.2c-0.5,0.2-0.9,0.3-1.4,0.3c-0.6,0.1-1.1,0.1-1.4,0.1c-1.6,0-2.6-0.3-3.4-1.2
		c-0.7-0.7-1.2-2-1.2-3.7V139h-1.6v-2h1.6v-4.1h2.4v4.1h4.9v2h-4.9v6.5c0,0.7,0,1.4,0.1,1.8c0,0.3,0.1,0.7,0.3,1.2
		c0.2,0.3,0.5,0.5,0.7,0.7c0.4,0.2,0.9,0.3,1.5,0.3c0.4,0,0.9-0.1,1.2-0.1c0.5-0.1,0.8-0.2,1-0.3h0.1V151.2z"/>
	<path class="st0" d="M305.6,139.6h-0.2c-0.3,0-0.7-0.1-1.1-0.1c-0.3-0.1-0.7-0.1-1.2-0.1c-0.7,0-1.4,0.2-2.2,0.5
		c-0.7,0.4-1.4,0.8-2,1.3v10.3h-2.4V137h2.4v2.1c1-0.7,1.8-1.4,2.5-1.6c0.8-0.3,1.4-0.5,2.2-0.5h0.9c0.2,0.1,0.5,0.1,0.9,0.2V139.6z
		"/>
	<path class="st0" d="M319.8,144.2c0,2.3-0.5,4.2-1.7,5.6c-1.3,1.4-2.9,2-4.9,2c-2,0-3.6-0.7-4.7-2c-1.3-1.4-1.8-3.3-1.8-5.6
		s0.5-4.2,1.8-5.6c1.1-1.4,2.8-2,4.7-2c2,0,3.7,0.7,4.9,2C319.2,140,319.8,141.9,319.8,144.2 M317.2,144.2c0-1.8-0.3-3.3-1-4.1
		c-0.8-0.9-1.8-1.3-3.1-1.3c-1.2,0-2.3,0.3-3,1.3c-0.7,0.9-1,2.3-1,4.1c0,1.8,0.3,3.2,1.1,4.1c0.6,0.9,1.7,1.4,2.9,1.4
		c1.4,0,2.3-0.5,3.1-1.4C317,147.4,317.2,146,317.2,144.2"/>
	<path class="st0" d="M334.9,151.4h-2.4v-8.2c0-0.6-0.1-1.3-0.2-1.8c0-0.6-0.2-1.1-0.3-1.4c-0.2-0.4-0.5-0.7-0.9-0.7
		c-0.4-0.2-0.9-0.3-1.6-0.3c-0.7,0-1.4,0.2-2.1,0.5c-0.7,0.3-1.4,0.8-2,1.3v10.7h-2.4V137h2.4v1.6c0.7-0.7,1.6-1.2,2.3-1.6
		c0.9-0.3,1.6-0.5,2.5-0.5c1.5,0,2.8,0.5,3.5,1.4c0.9,1,1.3,2.3,1.3,4.1V151.4z"/>
	<path class="st0" d="M364.5,149.9c-0.4,0.2-0.9,0.4-1.3,0.6c-0.3,0.1-0.8,0.3-1.4,0.5c-0.5,0.2-1.2,0.3-1.7,0.4
		c-0.7,0.1-1.4,0.1-2,0.1c-1.4,0-2.7-0.1-3.9-0.5c-1.2-0.4-2.1-0.9-3-1.8c-0.7-0.7-1.4-1.8-1.9-3.1c-0.5-1.3-0.7-2.8-0.7-4.4
		c0-1.6,0.2-3,0.7-4.2c0.4-1.3,1.1-2.3,1.9-3.2c0.8-0.9,1.8-1.4,3-1.9c1.2-0.4,2.4-0.7,3.9-0.7c0.9,0,2,0.1,3,0.3
		c1.1,0.3,2.1,0.7,3.4,1.4v3.1h-0.2c-1.1-0.9-2-1.5-3-2c-1.1-0.4-2.2-0.6-3.4-0.6c-0.9,0-1.8,0.2-2.6,0.5c-0.7,0.3-1.6,0.8-2.1,1.4
		c-0.6,0.7-1.1,1.5-1.4,2.5c-0.4,1-0.6,2.1-0.6,3.4c0,1.4,0.2,2.5,0.6,3.5c0.4,0.9,0.9,1.8,1.4,2.4c0.6,0.7,1.3,1.2,2.1,1.4
		c0.8,0.3,1.6,0.4,2.5,0.4c1.2,0,2.4-0.2,3.5-0.6c1.1-0.5,2.1-1,3-1.9h0.1V149.9z"/>
	<path class="st0" d="M379.9,144.2c0,2.3-0.5,4.2-1.8,5.6c-1.2,1.4-2.8,2-4.8,2c-2,0-3.7-0.7-4.9-2c-1.2-1.4-1.8-3.3-1.8-5.6
		s0.6-4.2,1.8-5.6c1.2-1.4,2.8-2,4.9-2c2,0,3.7,0.7,4.8,2C379.3,140,379.9,141.9,379.9,144.2 M377.4,144.2c0-1.8-0.4-3.3-1.1-4.1
		c-0.7-0.9-1.8-1.3-3-1.3c-1.4,0-2.3,0.3-3,1.3c-0.8,0.9-1.1,2.3-1.1,4.1c0,1.8,0.3,3.2,1.1,4.1c0.7,0.9,1.7,1.4,3,1.4
		c1.2,0,2.3-0.5,3-1.4C377,147.4,377.4,146,377.4,144.2"/>
	<path class="st0" d="M404.3,151.4h-2.4v-8.2c0-0.6-0.1-1.2-0.1-1.8c-0.1-0.5-0.1-1-0.3-1.4c-0.2-0.3-0.5-0.6-0.9-0.7
		c-0.4-0.2-0.9-0.3-1.6-0.3c-0.7,0-1.4,0.2-2.1,0.5c-0.7,0.4-1.4,0.8-2,1.4c0,0.2,0.1,0.4,0.1,0.7v0.7v9.2h-2.4v-8.2
		c0-0.6,0-1.2-0.1-1.8c-0.1-0.5-0.2-1-0.4-1.4c-0.1-0.4-0.5-0.6-0.7-0.7c-0.4-0.2-0.9-0.3-1.6-0.3s-1.4,0.2-2,0.5
		c-0.7,0.3-1.3,0.8-2,1.3v10.7h-2.4V137h2.4v1.6c0.7-0.7,1.5-1.2,2.3-1.6c0.7-0.3,1.5-0.5,2.4-0.5c0.9,0,1.8,0.2,2.5,0.6
		c0.7,0.5,1.2,1,1.5,1.7c1-0.8,1.8-1.4,2.7-1.7c0.7-0.4,1.6-0.6,2.6-0.6c1.6,0,2.7,0.5,3.5,1.5c0.7,1,1.2,2.3,1.2,4V151.4z"/>
	<path class="st0" d="M420.7,144c0,1.2-0.1,2.2-0.5,3.2c-0.3,0.9-0.8,1.8-1.4,2.5c-0.5,0.7-1.2,1.2-2,1.4c-0.7,0.4-1.5,0.5-2.4,0.5
		c-0.7,0-1.4-0.1-2-0.3c-0.7-0.2-1.2-0.3-1.9-0.7v6h-2.4V137h2.4v1.6c0.7-0.6,1.4-1.1,2.2-1.4c0.7-0.4,1.6-0.6,2.6-0.6
		c1.7,0,3,0.7,4,2C420.3,139.8,420.7,141.7,420.7,144 M418.3,144.1c0-1.8-0.3-3.1-0.9-3.9c-0.6-0.9-1.6-1.3-2.8-1.3
		c-0.7,0-1.4,0.1-2.1,0.5c-0.7,0.3-1.4,0.7-2,1.2v8.2c0.7,0.3,1.4,0.5,1.8,0.5c0.5,0.1,1.1,0.2,1.6,0.2c1.4,0,2.4-0.5,3.2-1.4
		C417.9,147.2,418.3,145.8,418.3,144.1"/>
	<path class="st0" d="M435.4,151.4h-2.4v-1.5c-0.2,0.1-0.5,0.3-0.9,0.5c-0.4,0.3-0.8,0.5-1.1,0.7c-0.3,0.2-0.9,0.3-1.4,0.5
		c-0.5,0.1-1.1,0.2-1.8,0.2c-1.2,0-2.4-0.5-3.2-1.4c-0.9-0.7-1.4-1.9-1.4-3.3c0-1.1,0.2-1.9,0.7-2.6c0.5-0.7,1.2-1.3,2-1.6
		c0.9-0.4,1.9-0.7,3.2-0.8c1.1-0.1,2.4-0.1,3.9-0.3v-0.3c0-0.6-0.1-1.1-0.3-1.4c-0.2-0.4-0.5-0.7-0.8-0.9c-0.3-0.2-0.8-0.4-1.3-0.4
		c-0.5-0.1-0.9-0.1-1.4-0.1c-0.7,0-1.4,0-2.2,0.2c-0.7,0.2-1.5,0.3-2.4,0.7h-0.1v-2.5c0.5-0.1,1.2-0.3,2-0.3
		c0.9-0.2,1.8-0.3,2.7-0.3c0.9,0,1.8,0.1,2.6,0.3c0.7,0.1,1.4,0.5,2,0.8c0.5,0.4,0.9,0.9,1.1,1.6c0.3,0.5,0.5,1.4,0.5,2.3V151.4z
		 M433.1,147.8v-4.1c-0.8,0.1-1.7,0.1-2.6,0.2c-1,0.1-1.8,0.2-2.4,0.4c-0.7,0.2-1.2,0.5-1.8,0.9c-0.3,0.4-0.5,1-0.5,1.8
		c0,0.7,0.2,1.4,0.7,1.8c0.5,0.4,1.4,0.6,2.3,0.6c0.9,0,1.6-0.1,2.3-0.5C431.8,148.7,432.5,148.3,433.1,147.8"/>
	<path class="st0" d="M451.5,151.4h-2.4v-8.2c0-0.6,0-1.3-0.1-1.8c-0.1-0.6-0.2-1.1-0.5-1.4c-0.2-0.4-0.5-0.7-0.9-0.7
		c-0.4-0.2-0.9-0.3-1.6-0.3c-0.6,0-1.4,0.2-2,0.5c-0.7,0.3-1.4,0.8-2.1,1.3v10.7h-2.4V137h2.4v1.6c0.7-0.7,1.6-1.2,2.4-1.6
		c0.8-0.3,1.7-0.5,2.4-0.5c1.6,0,2.8,0.5,3.7,1.4c0.7,1,1.2,2.3,1.2,4.1V151.4z"/>
</g>
<polygon class="st0" points="465.3,137 460.8,147.6 456.4,137 453.8,137 459.5,150.7 456.9,156.7 459.5,156.7 467.8,137 "/>
<g>
	<path class="st0" d="M490.7,152.5h-19.3c0,0-2.5,0.1-2.5-2.5c0-2.5,2.5-2.6,2.5-2.6h19.3c29,0,52.6-23.8,52.6-53
		c0-29-23.6-52.6-52.6-52.6H202.5v-5.1h288.2c31.8,0,57.6,25.9,57.6,57.7C548.3,126.4,522.5,152.5,490.7,152.5"/>
	<path class="st0" d="M102.3,85.8l16.9-18h-19l-15,15.4V67.3H69v35.3h16.2V87.9l14.3,14.5h19L102.3,85.8z M123.5,65.9l-19.2,19.9
		l18.8,18.3h-24L86.8,91.8v12.3H67V65.9h19.8v13.2l12.7-13.2H123.5z M127.4,64.5c-5.8-10-16.4-17.5-28.1-18.9
		c-14.7-1.8-28.1,4.8-36.1,15.8c-8.3,11.7-9.8,27.8-3.7,40.7c5.8,13,19.1,22.5,34,22.7c14.8,0.3,28.8-8.7,35.3-21.7
		C134.8,92,134.1,75.4,127.4,64.5"/>
</g>
<path class="st0" d="M222.2,89.7l9.7-18.1l9.5,18.1H222.2z M236.9,65.4h-9.4l-22.2,39.1h10.8l4.3-8.1h22.6l4.5,8.1h11.9L236.9,65.4z
	"/>
</svg>
