<?xml version="1.0" encoding="utf-8"?>
<!-- Generator: Adobe Illustrator 28.1.0, SVG Export Plug-In . SVG Version: 6.00 Build 0)  -->
<svg version="1.1" id="Ebene_1" xmlns="http://www.w3.org/2000/svg" xmlns:xlink="http://www.w3.org/1999/xlink" x="0px" y="0px"
	 viewBox="0 0 291 277" style="enable-background:new 0 0 291 277;" xml:space="preserve">
<style type="text/css">
	
		.st0{clip-path:url(#SVGID_00000052801405537343950360000005193709877992146085_);fill:url(#SVGID_00000139269326117547389940000010250517857067922062_);}
	.st1{fill:#FFFFFF;}
</style>
<g>
	<defs>
		<path id="SVGID_1_" d="M29.2,88.5c-27.8,63.9,1.5,138.3,65.4,166.1c63.9,27.8,138.3-1.5,166.1-65.4
			c27.8-63.9-1.5-138.3-65.4-166.1c-16.4-7.1-33.5-10.5-50.3-10.5C96.3,12.6,49.9,41,29.2,88.5"/>
	</defs>
	<clipPath id="SVGID_00000170265525603982329120000007030281646419698101_">
		<use xlink:href="#SVGID_1_"  style="overflow:visible;"/>
	</clipPath>
	
		<linearGradient id="SVGID_00000160883421322622003060000012801871171777441937_" gradientUnits="userSpaceOnUse" x1="-512.4446" y1="562.3701" x2="-511.4446" y2="562.3701" gradientTransform="matrix(-231.565 -100.6873 100.6873 -231.565 -175030.1406 78825.0078)">
		<stop  offset="0" style="stop-color:#0075A1"/>
		<stop  offset="1" style="stop-color:#289CD8"/>
	</linearGradient>
	
		<polygon style="clip-path:url(#SVGID_00000170265525603982329120000007030281646419698101_);fill:url(#SVGID_00000160883421322622003060000012801871171777441937_);" points="
		387.3,55.5 47.1,-92.4 -97.3,239.5 242.9,387.4 	"/>
</g>
<g>
	<path class="st1" d="M81.7,129.6h-6.9v-25.9c-2.5,2.3-5.5,4.1-8.9,5.2v-6.2c1.8-0.6,3.7-1.7,5.8-3.3c2.1-1.6,3.5-3.5,4.3-5.7h5.6
		V129.6z"/>
	<path class="st1" d="M101,93.6c3.5,0,6.2,1.2,8.1,3.7c2.3,2.9,3.5,7.8,3.5,14.6c0,6.8-1.2,11.6-3.5,14.6c-1.9,2.4-4.6,3.7-8.1,3.7
		c-3.5,0-6.3-1.3-8.4-4c-2.1-2.7-3.2-7.4-3.2-14.3c0-6.7,1.2-11.6,3.5-14.6C94.8,94.8,97.5,93.6,101,93.6z M101,99.3
		c-0.8,0-1.6,0.3-2.2,0.8c-0.7,0.5-1.2,1.5-1.5,2.8c-0.5,1.8-0.7,4.8-0.7,9s0.2,7.1,0.6,8.7c0.4,1.6,1,2.6,1.6,3.1
		c0.6,0.5,1.4,0.8,2.2,0.8s1.6-0.3,2.2-0.8c0.7-0.5,1.2-1.5,1.5-2.8c0.5-1.8,0.7-4.7,0.7-8.9s-0.2-7.1-0.6-8.7
		c-0.4-1.6-1-2.6-1.6-3.1C102.6,99.6,101.8,99.3,101,99.3z"/>
	<path class="st1" d="M128.7,93.6c3.5,0,6.2,1.2,8.1,3.7c2.3,2.9,3.5,7.8,3.5,14.6c0,6.8-1.2,11.6-3.5,14.6
		c-1.9,2.4-4.6,3.7-8.1,3.7c-3.5,0-6.3-1.3-8.4-4c-2.1-2.7-3.2-7.4-3.2-14.3c0-6.7,1.2-11.6,3.5-14.6
		C122.5,94.8,125.2,93.6,128.7,93.6z M128.7,99.3c-0.8,0-1.6,0.3-2.2,0.8c-0.7,0.5-1.2,1.5-1.5,2.8c-0.5,1.8-0.7,4.8-0.7,9
		s0.2,7.1,0.6,8.7c0.4,1.6,1,2.6,1.6,3.1c0.6,0.5,1.4,0.8,2.2,0.8s1.6-0.3,2.2-0.8c0.7-0.5,1.2-1.5,1.5-2.8c0.5-1.8,0.7-4.7,0.7-8.9
		s-0.2-7.1-0.6-8.7c-0.4-1.6-1-2.6-1.6-3.1C130.2,99.6,129.5,99.3,128.7,99.3z"/>
	<path class="st1" d="M159.9,129.6V93.8h6.9v12.9c2.1-2.4,4.6-3.6,7.5-3.6c3.2,0,5.8,1.1,7.8,3.4c2.1,2.3,3.1,5.6,3.1,9.9
		c0,4.4-1.1,7.8-3.2,10.2s-4.7,3.6-7.7,3.6c-1.5,0-2.9-0.4-4.4-1.1c-1.4-0.7-2.7-1.8-3.7-3.3v3.8H159.9z M166.8,116
		c0,2.7,0.4,4.7,1.3,6c1.2,1.8,2.8,2.7,4.7,2.7c1.5,0,2.8-0.6,3.9-1.9c1.1-1.3,1.6-3.3,1.6-6.1c0-3-0.5-5.1-1.6-6.4
		c-1.1-1.3-2.5-2-4.1-2c-1.6,0-3,0.6-4.1,1.9C167.3,111.5,166.8,113.4,166.8,116z"/>
	<path class="st1" d="M190.3,100.1v-6.3h6.9v6.3H190.3z M190.3,129.6v-25.9h6.9v25.9H190.3z"/>
	<path class="st1" d="M201.4,122.2l6.9-1c0.3,1.3,0.9,2.3,1.8,3c0.9,0.7,2.1,1,3.8,1c1.8,0,3.1-0.3,4-1c0.6-0.5,0.9-1.1,0.9-1.8
		c0-0.5-0.2-1-0.5-1.3c-0.3-0.3-1.1-0.6-2.3-0.9c-5.5-1.2-9-2.3-10.5-3.3c-2.1-1.4-3.1-3.3-3.1-5.8c0-2.2,0.9-4.1,2.7-5.7
		c1.8-1.5,4.5-2.3,8.3-2.3c3.5,0,6.2,0.6,7.9,1.7c1.7,1.2,2.9,2.9,3.6,5.1l-6.5,1.2c-0.3-1-0.8-1.8-1.6-2.3s-1.9-0.8-3.3-0.8
		c-1.8,0-3.1,0.3-3.9,0.8c-0.5,0.4-0.8,0.8-0.8,1.4c0,0.5,0.2,0.9,0.7,1.2c0.6,0.5,2.8,1.1,6.4,1.9s6.2,1.8,7.7,3.1
		c1.4,1.2,2.1,2.9,2.1,5.1c0,2.4-1,4.4-3,6.1c-2,1.7-4.9,2.6-8.8,2.6c-3.5,0-6.3-0.7-8.4-2.1C203.4,126.6,202,124.6,201.4,122.2z"/>
</g>
<g>
	<path class="st1" d="M63,184.6v-7.2H48.3v-6l15.5-22.7h5.8v22.7H74v6h-4.4v7.2H63z M63,171.3v-12.2l-8.2,12.2H63z"/>
	<path class="st1" d="M78.6,184.6v-6.9h6.9v6.9H78.6z"/>
	<path class="st1" d="M101.7,148.6c3.5,0,6.2,1.2,8.1,3.7c2.3,2.9,3.5,7.8,3.5,14.6c0,6.8-1.2,11.6-3.5,14.6
		c-1.9,2.4-4.6,3.7-8.1,3.7c-3.5,0-6.3-1.3-8.4-4c-2.1-2.7-3.2-7.4-3.2-14.3c0-6.7,1.2-11.6,3.5-14.6
		C95.5,149.8,98.2,148.6,101.7,148.6z M101.7,154.3c-0.8,0-1.6,0.3-2.2,0.8c-0.7,0.5-1.2,1.5-1.5,2.8c-0.5,1.8-0.7,4.8-0.7,9
		s0.2,7.1,0.6,8.7c0.4,1.6,1,2.6,1.6,3.1c0.6,0.5,1.4,0.8,2.2,0.8s1.6-0.3,2.2-0.8c0.7-0.5,1.2-1.5,1.5-2.8c0.5-1.8,0.7-4.7,0.7-8.9
		s-0.2-7.1-0.6-8.7c-0.4-1.6-1-2.6-1.6-3.1C103.3,154.6,102.5,154.3,101.7,154.3z"/>
	<path class="st1" d="M129.4,148.6c3.5,0,6.2,1.2,8.1,3.7c2.3,2.9,3.5,7.8,3.5,14.6c0,6.8-1.2,11.6-3.5,14.6
		c-1.9,2.4-4.6,3.7-8.1,3.7c-3.5,0-6.3-1.3-8.4-4c-2.1-2.7-3.2-7.4-3.2-14.3c0-6.7,1.2-11.6,3.5-14.6
		C123.2,149.8,125.9,148.6,129.4,148.6z M129.4,154.3c-0.8,0-1.6,0.3-2.2,0.8c-0.7,0.5-1.2,1.5-1.5,2.8c-0.5,1.8-0.7,4.8-0.7,9
		s0.2,7.1,0.6,8.7c0.4,1.6,1,2.6,1.6,3.1c0.6,0.5,1.4,0.8,2.2,0.8s1.6-0.3,2.2-0.8c0.7-0.5,1.2-1.5,1.5-2.8c0.5-1.8,0.7-4.7,0.7-8.9
		s-0.2-7.1-0.6-8.7c-0.4-1.6-1-2.6-1.6-3.1C130.9,154.6,130.2,154.3,129.4,154.3z"/>
	<path class="st1" d="M157,148.6c3.5,0,6.2,1.2,8.1,3.7c2.3,2.9,3.5,7.8,3.5,14.6c0,6.8-1.2,11.6-3.5,14.6c-1.9,2.4-4.6,3.7-8.1,3.7
		c-3.5,0-6.3-1.3-8.4-4c-2.1-2.7-3.2-7.4-3.2-14.3c0-6.7,1.2-11.6,3.5-14.6C150.9,149.8,153.6,148.6,157,148.6z M157,154.3
		c-0.8,0-1.6,0.3-2.2,0.8c-0.7,0.5-1.2,1.5-1.5,2.8c-0.5,1.8-0.7,4.8-0.7,9s0.2,7.1,0.6,8.7c0.4,1.6,1,2.6,1.6,3.1
		c0.6,0.5,1.4,0.8,2.2,0.8s1.6-0.3,2.2-0.8c0.7-0.5,1.2-1.5,1.5-2.8c0.5-1.8,0.7-4.7,0.7-8.9s-0.2-7.1-0.6-8.7
		c-0.4-1.6-1-2.6-1.6-3.1C158.6,154.6,157.8,154.3,157,154.3z"/>
	<path class="st1" d="M188.1,158.6h6.3v3.5c2.3-2.8,5-4.1,8.1-4.1c1.7,0,3.1,0.3,4.3,1s2.2,1.7,3,3.1c1.1-1.4,2.4-2.4,3.7-3.1
		s2.7-1,4.2-1c1.9,0,3.5,0.4,4.8,1.2c1.3,0.8,2.3,1.9,3,3.4c0.5,1.1,0.7,2.9,0.7,5.4v16.6h-6.9v-14.8c0-2.6-0.2-4.2-0.7-5
		c-0.6-1-1.6-1.5-2.9-1.5c-1,0-1.9,0.3-2.7,0.9c-0.8,0.6-1.5,1.4-1.8,2.6c-0.4,1.1-0.6,2.9-0.6,5.4v12.5h-6.9v-14.2
		c0-2.5-0.1-4.2-0.4-4.9s-0.6-1.3-1.1-1.6c-0.5-0.4-1.2-0.5-2.1-0.5c-1.1,0-2,0.3-2.9,0.9c-0.8,0.6-1.5,1.4-1.8,2.5
		s-0.5,2.9-0.5,5.3v12.6h-6.9V158.6z"/>
	<path class="st1" d="M232.4,184.6v-35.8h6.9v35.8H232.4z"/>
</g>
</svg>
