<?xml version="1.0" encoding="utf-8"?>
<!-- Generator: Adobe Illustrator 28.1.0, SVG Export Plug-In . SVG Version: 6.00 Build 0)  -->
<svg version="1.1" id="Ebene_1" xmlns="http://www.w3.org/2000/svg" xmlns:xlink="http://www.w3.org/1999/xlink" x="0px" y="0px"
	 viewBox="0 0 291 277" style="enable-background:new 0 0 291 277;" xml:space="preserve">
<style type="text/css">
	
		.st0{clip-path:url(#SVGID_00000139276847775111953500000009360243409694387130_);fill:url(#SVGID_00000041979078176108576030000012047958716274830227_);}
	.st1{fill:#FFFFFF;}
</style>
<g>
	<defs>
		<path id="SVGID_1_" d="M29.2,88.5c-27.8,63.9,1.5,138.3,65.4,166.1c63.9,27.8,138.3-1.5,166.1-65.4
			c27.8-63.9-1.5-138.3-65.4-166.1c-16.4-7.1-33.5-10.5-50.3-10.5C96.3,12.6,49.9,41,29.2,88.5"/>
	</defs>
	<clipPath id="SVGID_00000129192766714675067460000006845934302701861505_">
		<use xlink:href="#SVGID_1_"  style="overflow:visible;"/>
	</clipPath>
	
		<linearGradient id="SVGID_00000031206181770328402170000017547628815245423027_" gradientUnits="userSpaceOnUse" x1="-512.4446" y1="562.3701" x2="-511.4446" y2="562.3701" gradientTransform="matrix(-231.565 -100.6873 100.6873 -231.565 -175030.1406 78825.0078)">
		<stop  offset="0" style="stop-color:#0075A1"/>
		<stop  offset="1" style="stop-color:#289CD8"/>
	</linearGradient>
	
		<polygon style="clip-path:url(#SVGID_00000129192766714675067460000006845934302701861505_);fill:url(#SVGID_00000031206181770328402170000017547628815245423027_);" points="
		387.3,55.5 47.1,-92.4 -97.3,239.5 242.9,387.4 	"/>
</g>
<g>
	<path class="st1" d="M83.3,126.9h-6.9v-25.9c-2.5,2.3-5.5,4.1-8.9,5.2V100c1.8-0.6,3.7-1.7,5.8-3.3s3.5-3.5,4.3-5.7h5.6V126.9z"/>
	<path class="st1" d="M91,117.7l6.8-0.7c0.2,1.5,0.8,2.8,1.7,3.7c1,0.9,2.1,1.4,3.3,1.4c1.4,0,2.6-0.6,3.6-1.7
		c1-1.2,1.5-2.9,1.5-5.3c0-2.2-0.5-3.8-1.5-4.9c-1-1.1-2.3-1.6-3.8-1.6c-2,0-3.7,0.9-5.3,2.6l-5.6-0.8l3.5-18.6h18.1V98h-12.9
		l-1.1,6.1c1.5-0.8,3.1-1.1,4.7-1.1c3,0,5.6,1.1,7.7,3.3c2.1,2.2,3.2,5.1,3.2,8.6c0,2.9-0.9,5.6-2.6,7.9c-2.3,3.2-5.6,4.7-9.7,4.7
		c-3.3,0-6-0.9-8.1-2.7C92.7,123.1,91.4,120.7,91,117.7z"/>
	<path class="st1" d="M130.9,91c3.5,0,6.2,1.2,8.1,3.7c2.3,2.9,3.5,7.8,3.5,14.6c0,6.8-1.2,11.6-3.5,14.6c-1.9,2.4-4.6,3.7-8.1,3.7
		c-3.5,0-6.3-1.3-8.4-4c-2.1-2.7-3.2-7.5-3.2-14.3c0-6.7,1.2-11.6,3.5-14.6C124.7,92.2,127.4,91,130.9,91z M130.9,96.7
		c-0.8,0-1.6,0.3-2.2,0.8c-0.7,0.5-1.2,1.5-1.5,2.8c-0.5,1.8-0.7,4.8-0.7,9s0.2,7.1,0.6,8.7c0.4,1.6,1,2.6,1.6,3.1
		c0.6,0.5,1.4,0.8,2.2,0.8s1.6-0.3,2.2-0.8c0.7-0.5,1.2-1.5,1.5-2.8c0.5-1.8,0.7-4.7,0.7-8.9s-0.2-7.1-0.6-8.7
		c-0.4-1.6-1-2.6-1.6-3.1C132.4,96.9,131.7,96.7,130.9,96.7z"/>
	<path class="st1" d="M161.9,101h6.3v3.5c2.3-2.8,5-4.1,8.1-4.1c1.7,0,3.1,0.3,4.3,1s2.2,1.7,3,3.1c1.1-1.4,2.4-2.4,3.7-3.1
		s2.7-1,4.2-1c1.9,0,3.5,0.4,4.8,1.2c1.3,0.8,2.3,1.9,3,3.4c0.5,1.1,0.7,2.9,0.7,5.4v16.6h-6.9v-14.8c0-2.6-0.2-4.2-0.7-5
		c-0.6-1-1.6-1.5-2.9-1.5c-1,0-1.9,0.3-2.7,0.9c-0.8,0.6-1.5,1.4-1.8,2.6c-0.4,1.1-0.6,2.9-0.6,5.4v12.5h-6.9v-14.2
		c0-2.5-0.1-4.2-0.4-4.9s-0.6-1.3-1.1-1.6c-0.5-0.4-1.2-0.5-2.1-0.5c-1.1,0-2,0.3-2.9,0.9c-0.8,0.6-1.5,1.4-1.8,2.5
		s-0.5,2.9-0.5,5.3v12.6h-6.9V101z"/>
	<path class="st1" d="M206.8,126.9V91.1h6.9v35.8H206.8z"/>
	<path class="st1" d="M59.8,181.9v-35.8h6.9V159c2.1-2.4,4.6-3.6,7.5-3.6c3.2,0,5.8,1.1,7.8,3.4c2.1,2.3,3.1,5.6,3.1,9.9
		c0,4.4-1.1,7.8-3.2,10.2c-2.1,2.4-4.7,3.6-7.7,3.6c-1.5,0-2.9-0.4-4.4-1.1s-2.7-1.8-3.7-3.3v3.8H59.8z M66.6,168.4
		c0,2.7,0.4,4.7,1.3,6c1.2,1.8,2.8,2.7,4.7,2.7c1.5,0,2.8-0.6,3.9-1.9c1.1-1.3,1.6-3.3,1.6-6.1c0-3-0.5-5.1-1.6-6.4
		c-1.1-1.3-2.4-2-4.1-2c-1.6,0-3,0.6-4.1,1.9C67.1,163.9,66.6,165.8,66.6,168.4z"/>
	<path class="st1" d="M90.7,152.5v-6.3h6.9v6.3H90.7z M90.7,181.9V156h6.9v25.9H90.7z"/>
	<path class="st1" d="M102.3,174.5l6.9-1c0.3,1.3,0.9,2.3,1.8,3c0.9,0.7,2.1,1,3.8,1c1.8,0,3.1-0.3,4-1c0.6-0.5,0.9-1.1,0.9-1.8
		c0-0.5-0.2-1-0.5-1.3c-0.3-0.3-1.1-0.6-2.3-0.9c-5.5-1.2-9-2.3-10.5-3.3c-2.1-1.4-3.1-3.3-3.1-5.8c0-2.2,0.9-4.1,2.7-5.7
		c1.8-1.5,4.5-2.3,8.3-2.3c3.5,0,6.2,0.6,7.9,1.7c1.7,1.2,2.9,2.9,3.6,5.1l-6.5,1.2c-0.3-1-0.8-1.8-1.6-2.3
		c-0.8-0.5-1.9-0.8-3.3-0.8c-1.8,0-3.1,0.3-3.9,0.8c-0.5,0.4-0.8,0.8-0.8,1.4c0,0.5,0.2,0.9,0.7,1.2c0.6,0.5,2.8,1.1,6.4,1.9
		c3.7,0.8,6.2,1.8,7.7,3.1c1.4,1.2,2.1,2.9,2.1,5.1c0,2.4-1,4.4-3,6.1c-2,1.7-4.9,2.6-8.8,2.6c-3.5,0-6.3-0.7-8.4-2.1
		C104.3,178.9,102.9,177,102.3,174.5z"/>
	<path class="st1" d="M162.5,181.9h-6.9v-25.9c-2.5,2.3-5.5,4.1-8.9,5.2V155c1.8-0.6,3.7-1.7,5.8-3.3s3.5-3.5,4.3-5.7h5.6V181.9z"/>
	<path class="st1" d="M182.3,146c3.5,0,6.2,1.2,8.1,3.7c2.3,2.9,3.5,7.8,3.5,14.6c0,6.8-1.2,11.6-3.5,14.6c-1.9,2.4-4.6,3.7-8.1,3.7
		c-3.5,0-6.3-1.3-8.4-4c-2.1-2.7-3.2-7.5-3.2-14.3c0-6.7,1.2-11.6,3.5-14.6C176.2,147.2,178.9,146,182.3,146z M182.3,151.7
		c-0.8,0-1.6,0.3-2.2,0.8c-0.7,0.5-1.2,1.5-1.5,2.8c-0.5,1.8-0.7,4.8-0.7,9s0.2,7.1,0.6,8.7c0.4,1.6,1,2.6,1.6,3.1
		c0.6,0.5,1.4,0.8,2.2,0.8s1.6-0.3,2.2-0.8c0.7-0.5,1.2-1.5,1.5-2.8c0.5-1.8,0.7-4.7,0.7-8.9s-0.2-7.1-0.6-8.7
		c-0.4-1.6-1-2.6-1.6-3.1C183.9,151.9,183.2,151.7,182.3,151.7z"/>
	<path class="st1" d="M213.9,181.9v-35.8h6.9v35.8H213.9z"/>
</g>
</svg>
