<?xml version="1.0" encoding="utf-8"?>
<!-- Generator: Adobe Illustrator 28.1.0, SVG Export Plug-In . SVG Version: 6.00 Build 0)  -->
<svg version="1.1" id="Ebene_1" xmlns="http://www.w3.org/2000/svg" xmlns:xlink="http://www.w3.org/1999/xlink" x="0px" y="0px"
	 viewBox="0 0 291 277" style="enable-background:new 0 0 291 277;" xml:space="preserve">
<style type="text/css">
	
		.st0{clip-path:url(#SVGID_00000168085902957274797150000011356839244790277524_);fill:url(#SVGID_00000124158734607232056770000003539511952652478595_);}
	.st1{fill:#FFFFFF;}
</style>
<g>
	<defs>
		<path id="SVGID_1_" d="M29.6,87.6C1.8,151.5,31.1,225.9,95,253.7c63.9,27.8,138.3-1.5,166.1-65.4c27.8-63.9-1.5-138.3-65.4-166.1
			c-16.4-7.1-33.5-10.5-50.3-10.5C96.7,11.6,50.2,40,29.6,87.6"/>
	</defs>
	<clipPath id="SVGID_00000080921665875450263030000017112107172603275668_">
		<use xlink:href="#SVGID_1_"  style="overflow:visible;"/>
	</clipPath>
	
		<linearGradient id="SVGID_00000044891244089186519290000000924160235795331256_" gradientUnits="userSpaceOnUse" x1="-512.4444" y1="562.374" x2="-511.4444" y2="562.374" gradientTransform="matrix(-231.565 -100.6873 100.6873 -231.565 -175030.1406 78825.0078)">
		<stop  offset="0" style="stop-color:#0075A1"/>
		<stop  offset="1" style="stop-color:#289CD8"/>
	</linearGradient>
	
		<polygon style="clip-path:url(#SVGID_00000080921665875450263030000017112107172603275668_);fill:url(#SVGID_00000044891244089186519290000000924160235795331256_);" points="
		387.6,54.5 47.4,-93.4 -96.9,238.6 243.3,386.5 	"/>
</g>
<g>
	<path class="st1" d="M63.3,118.9l6.8-0.7c0.2,1.5,0.8,2.8,1.7,3.7c1,0.9,2.1,1.4,3.3,1.4c1.4,0,2.6-0.6,3.6-1.7
		c1-1.2,1.5-2.9,1.5-5.3c0-2.2-0.5-3.8-1.5-4.9c-1-1.1-2.3-1.6-3.8-1.6c-2,0-3.7,0.9-5.3,2.6l-5.6-0.8l3.5-18.6h18.1v6.4H72.9
		l-1.1,6.1c1.5-0.8,3.1-1.1,4.7-1.1c3,0,5.6,1.1,7.7,3.3c2.1,2.2,3.2,5.1,3.2,8.6c0,2.9-0.9,5.6-2.6,7.9c-2.3,3.2-5.6,4.7-9.7,4.7
		c-3.3,0-6-0.9-8.1-2.7C65,124.3,63.7,121.9,63.3,118.9z"/>
	<path class="st1" d="M103.1,92.1c3.5,0,6.2,1.2,8.1,3.7c2.3,2.9,3.5,7.8,3.5,14.6c0,6.8-1.2,11.6-3.5,14.6
		c-1.9,2.4-4.6,3.7-8.1,3.7c-3.5,0-6.3-1.3-8.4-4c-2.1-2.7-3.2-7.5-3.2-14.3c0-6.7,1.2-11.6,3.5-14.6C97,93.4,99.7,92.1,103.1,92.1z
		 M103.1,97.8c-0.8,0-1.6,0.3-2.2,0.8c-0.7,0.5-1.2,1.5-1.5,2.8c-0.5,1.8-0.7,4.8-0.7,9s0.2,7.1,0.6,8.7c0.4,1.6,1,2.6,1.6,3.1
		c0.6,0.5,1.4,0.8,2.2,0.8s1.6-0.3,2.2-0.8c0.7-0.5,1.2-1.5,1.5-2.8c0.5-1.8,0.7-4.7,0.7-8.9s-0.2-7.1-0.6-8.7
		c-0.4-1.6-1-2.6-1.6-3.1C104.7,98.1,104,97.8,103.1,97.8z"/>
	<path class="st1" d="M131.3,92.1c3.5,0,6.2,1.2,8.1,3.7c2.3,2.9,3.5,7.8,3.5,14.6c0,6.8-1.2,11.6-3.5,14.6
		c-1.9,2.4-4.6,3.7-8.1,3.7c-3.5,0-6.3-1.3-8.4-4c-2.1-2.7-3.2-7.5-3.2-14.3c0-6.7,1.2-11.6,3.5-14.6
		C125.2,93.4,127.9,92.1,131.3,92.1z M131.3,97.8c-0.8,0-1.6,0.3-2.2,0.8c-0.7,0.5-1.2,1.5-1.5,2.8c-0.5,1.8-0.7,4.8-0.7,9
		s0.2,7.1,0.6,8.7c0.4,1.6,1,2.6,1.6,3.1c0.6,0.5,1.4,0.8,2.2,0.8s1.6-0.3,2.2-0.8c0.7-0.5,1.2-1.5,1.5-2.8c0.5-1.8,0.7-4.7,0.7-8.9
		s-0.2-7.1-0.6-8.7c-0.4-1.6-1-2.6-1.6-3.1C132.9,98.1,132.2,97.8,131.3,97.8z"/>
	<path class="st1" d="M162.6,128.1V92.3h6.9v12.9c2.1-2.4,4.6-3.6,7.5-3.6c3.2,0,5.8,1.1,7.8,3.4c2.1,2.3,3.1,5.6,3.1,9.9
		c0,4.4-1.1,7.8-3.2,10.2s-4.7,3.6-7.7,3.6c-1.5,0-2.9-0.4-4.4-1.1c-1.4-0.7-2.7-1.8-3.7-3.3v3.8H162.6z M169.4,114.6
		c0,2.7,0.4,4.7,1.3,6c1.2,1.8,2.8,2.7,4.7,2.7c1.5,0,2.8-0.6,3.9-1.9s1.6-3.3,1.6-6.1c0-3-0.5-5.1-1.6-6.4c-1.1-1.3-2.4-2-4.1-2
		c-1.6,0-3,0.6-4.1,1.9C170,110,169.4,112,169.4,114.6z"/>
	<path class="st1" d="M193.5,98.6v-6.3h6.9v6.3H193.5z M193.5,128.1v-25.9h6.9v25.9H193.5z"/>
	<path class="st1" d="M205.2,120.7l6.9-1c0.3,1.3,0.9,2.3,1.8,3c0.9,0.7,2.1,1,3.8,1c1.8,0,3.1-0.3,4-1c0.6-0.5,0.9-1.1,0.9-1.8
		c0-0.5-0.2-1-0.5-1.3c-0.3-0.3-1.1-0.6-2.3-0.9c-5.5-1.2-9-2.3-10.5-3.3c-2.1-1.4-3.1-3.3-3.1-5.8c0-2.2,0.9-4.1,2.7-5.7
		s4.5-2.3,8.3-2.3c3.5,0,6.2,0.6,7.9,1.7s2.9,2.9,3.6,5.1l-6.5,1.2c-0.3-1-0.8-1.8-1.6-2.3c-0.8-0.5-1.9-0.8-3.3-0.8
		c-1.8,0-3.1,0.3-3.9,0.8c-0.5,0.4-0.8,0.8-0.8,1.4c0,0.5,0.2,0.9,0.7,1.2c0.6,0.5,2.8,1.1,6.4,1.9c3.7,0.8,6.2,1.8,7.7,3.1
		c1.4,1.2,2.1,2.9,2.1,5.1c0,2.4-1,4.4-3,6.1s-4.9,2.6-8.8,2.6c-3.5,0-6.3-0.7-8.4-2.1S205.8,123.1,205.2,120.7z"/>
	<path class="st1" d="M72.3,176.7v6.4h-24c0.3-2.4,1-4.7,2.3-6.8c1.3-2.2,3.9-5,7.7-8.6c3.1-2.9,5-4.8,5.7-5.9
		c0.9-1.4,1.4-2.8,1.4-4.2c0-1.5-0.4-2.7-1.2-3.5c-0.8-0.8-2-1.2-3.4-1.2c-1.4,0-2.6,0.4-3.4,1.3c-0.8,0.9-1.3,2.3-1.5,4.3l-6.8-0.7
		c0.4-3.8,1.7-6.5,3.8-8.1s4.8-2.5,8.1-2.5c3.5,0,6.3,1,8.3,2.9c2,1.9,3,4.3,3,7.1c0,1.6-0.3,3.1-0.9,4.6c-0.6,1.5-1.5,3-2.7,4.6
		c-0.8,1.1-2.3,2.6-4.5,4.6c-2.2,2-3.5,3.3-4.1,4c-0.6,0.7-1,1.3-1.4,1.9H72.3z"/>
	<path class="st1" d="M79.1,183.1v-6.9h6.9v6.9H79.1z"/>
	<path class="st1" d="M91.7,173.9l6.8-0.7c0.2,1.5,0.8,2.8,1.7,3.7c1,0.9,2.1,1.4,3.3,1.4c1.4,0,2.6-0.6,3.6-1.7
		c1-1.2,1.5-2.9,1.5-5.3c0-2.2-0.5-3.8-1.5-4.9c-1-1.1-2.3-1.6-3.8-1.6c-2,0-3.7,0.9-5.3,2.6l-5.6-0.8l3.5-18.6h18.1v6.4h-12.9
		l-1.1,6.1c1.5-0.8,3.1-1.1,4.7-1.1c3,0,5.6,1.1,7.7,3.3c2.1,2.2,3.2,5.1,3.2,8.6c0,2.9-0.9,5.6-2.6,7.9c-2.3,3.2-5.6,4.7-9.7,4.7
		c-3.3,0-6-0.9-8.1-2.7C93.3,179.3,92.1,176.9,91.7,173.9z"/>
	<path class="st1" d="M131.5,147.1c3.5,0,6.2,1.2,8.1,3.7c2.3,2.9,3.5,7.8,3.5,14.6c0,6.8-1.2,11.6-3.5,14.6
		c-1.9,2.4-4.6,3.7-8.1,3.7c-3.5,0-6.3-1.3-8.4-4c-2.1-2.7-3.2-7.5-3.2-14.3c0-6.7,1.2-11.6,3.5-14.6
		C125.3,148.4,128,147.1,131.5,147.1z M131.5,152.8c-0.8,0-1.6,0.3-2.2,0.8c-0.7,0.5-1.2,1.5-1.5,2.8c-0.5,1.8-0.7,4.8-0.7,9
		s0.2,7.1,0.6,8.7c0.4,1.6,1,2.6,1.6,3.1c0.6,0.5,1.4,0.8,2.2,0.8s1.6-0.3,2.2-0.8c0.7-0.5,1.2-1.5,1.5-2.8c0.5-1.8,0.7-4.7,0.7-8.9
		s-0.2-7.1-0.6-8.7c-0.4-1.6-1-2.6-1.6-3.1C133.1,153.1,132.3,152.8,131.5,152.8z"/>
	<path class="st1" d="M159.7,147.1c3.5,0,6.2,1.2,8.1,3.7c2.3,2.9,3.5,7.8,3.5,14.6c0,6.8-1.2,11.6-3.5,14.6
		c-1.9,2.4-4.6,3.7-8.1,3.7c-3.5,0-6.3-1.3-8.4-4c-2.1-2.7-3.2-7.5-3.2-14.3c0-6.7,1.2-11.6,3.5-14.6
		C153.5,148.4,156.2,147.1,159.7,147.1z M159.7,152.8c-0.8,0-1.6,0.3-2.2,0.8c-0.7,0.5-1.2,1.5-1.5,2.8c-0.5,1.8-0.7,4.8-0.7,9
		s0.2,7.1,0.6,8.7c0.4,1.6,1,2.6,1.6,3.1c0.6,0.5,1.4,0.8,2.2,0.8s1.6-0.3,2.2-0.8c0.7-0.5,1.2-1.5,1.5-2.8c0.5-1.8,0.7-4.7,0.7-8.9
		s-0.2-7.1-0.6-8.7c-0.4-1.6-1-2.6-1.6-3.1C161.3,153.1,160.5,152.8,159.7,152.8z"/>
	<path class="st1" d="M190.8,157.2h6.3v3.5c2.3-2.8,5-4.1,8.1-4.1c1.7,0,3.1,0.3,4.3,1s2.2,1.7,3,3.1c1.1-1.4,2.4-2.4,3.7-3.1
		s2.7-1,4.2-1c1.9,0,3.5,0.4,4.8,1.2c1.3,0.8,2.3,1.9,3,3.4c0.5,1.1,0.7,2.9,0.7,5.4v16.6H222v-14.8c0-2.6-0.2-4.2-0.7-5
		c-0.6-1-1.6-1.5-2.9-1.5c-1,0-1.9,0.3-2.7,0.9c-0.8,0.6-1.5,1.4-1.8,2.6c-0.4,1.1-0.6,2.9-0.6,5.4v12.5h-6.9v-14.2
		c0-2.5-0.1-4.2-0.4-4.9s-0.6-1.3-1.1-1.6s-1.2-0.5-2.1-0.5c-1.1,0-2,0.3-2.9,0.9c-0.8,0.6-1.5,1.4-1.8,2.5s-0.5,2.9-0.5,5.3v12.6
		h-6.9V157.2z"/>
	<path class="st1" d="M235.6,183.1v-35.8h6.9v35.8H235.6z"/>
</g>
</svg>
