<?xml version="1.0" encoding="utf-8"?>
<!-- Generator: Adobe Illustrator 28.1.0, SVG Export Plug-In . SVG Version: 6.00 Build 0)  -->
<svg version="1.1" id="Ebene_1" xmlns="http://www.w3.org/2000/svg" xmlns:xlink="http://www.w3.org/1999/xlink" x="0px" y="0px"
	 viewBox="0 0 291 277" style="enable-background:new 0 0 291 277;" xml:space="preserve">
<style type="text/css">
	
		.st0{clip-path:url(#SVGID_00000107571881051985916290000012731085923961187236_);fill:url(#SVGID_00000043438595527051177940000015068168695016975026_);}
	.st1{fill:#FFFFFF;}
</style>
<g>
	<defs>
		<path id="SVGID_1_" d="M29.9,87.7c-27.8,63.9,1.5,138.3,65.4,166.1c63.9,27.8,138.3-1.5,166.1-65.4C289.3,124.5,260,50.1,196,22.3
			c-16.4-7.1-33.5-10.5-50.3-10.5C97,11.8,50.6,40.2,29.9,87.7"/>
	</defs>
	<clipPath id="SVGID_00000022526582565994291590000016475115489054873489_">
		<use xlink:href="#SVGID_1_"  style="overflow:visible;"/>
	</clipPath>
	
		<linearGradient id="SVGID_00000057840368860952082920000014596784690459356593_" gradientUnits="userSpaceOnUse" x1="-512.4459" y1="562.3739" x2="-511.4459" y2="562.3739" gradientTransform="matrix(-231.565 -100.6873 100.6873 -231.565 -175030.1406 78825.0078)">
		<stop  offset="0" style="stop-color:#0075A1"/>
		<stop  offset="1" style="stop-color:#289CD8"/>
	</linearGradient>
	
		<polygon style="clip-path:url(#SVGID_00000022526582565994291590000016475115489054873489_);fill:url(#SVGID_00000057840368860952082920000014596784690459356593_);" points="
		387.9,54.7 47.7,-93.2 -96.6,238.8 243.6,386.7 	"/>
</g>
<g>
	<path class="st1" d="M93.4,121.9v6.4h-24c0.3-2.4,1-4.7,2.3-6.8c1.3-2.2,3.9-5,7.7-8.6c3.1-2.9,5-4.8,5.7-5.9
		c0.9-1.4,1.4-2.8,1.4-4.2c0-1.5-0.4-2.7-1.2-3.5c-0.8-0.8-2-1.2-3.4-1.2c-1.4,0-2.6,0.4-3.4,1.3c-0.8,0.9-1.3,2.3-1.5,4.3l-6.8-0.7
		c0.4-3.8,1.7-6.5,3.8-8.1c2.1-1.6,4.8-2.5,8.1-2.5c3.5,0,6.3,1,8.3,2.9c2,1.9,3,4.3,3,7.1c0,1.6-0.3,3.1-0.9,4.6
		c-0.6,1.5-1.5,3-2.7,4.6c-0.8,1.1-2.3,2.6-4.5,4.6c-2.2,2-3.5,3.3-4.1,4c-0.6,0.7-1,1.3-1.4,1.9H93.4z"/>
	<path class="st1" d="M100,121.4h6.9v4.9c0,2-0.2,3.6-0.5,4.7s-1,2.2-1.9,3.1c-1,0.9-2.2,1.6-3.6,2.1l-1.3-2.8
		c1.4-0.5,2.4-1.1,3-1.9c0.6-0.8,0.9-1.9,0.9-3.3H100V121.4z"/>
	<path class="st1" d="M112.5,119.1l6.8-0.7c0.2,1.5,0.8,2.8,1.7,3.7c1,0.9,2.1,1.4,3.3,1.4c1.4,0,2.6-0.6,3.6-1.7
		c1-1.2,1.5-2.9,1.5-5.3c0-2.2-0.5-3.8-1.5-4.9c-1-1.1-2.3-1.6-3.8-1.6c-2,0-3.7,0.9-5.3,2.6l-5.6-0.8l3.5-18.6H135v6.4H122
		l-1.1,6.1c1.5-0.8,3.1-1.1,4.7-1.1c3,0,5.6,1.1,7.7,3.3c2.1,2.2,3.2,5.1,3.2,8.6c0,2.9-0.9,5.6-2.6,7.9c-2.3,3.2-5.6,4.7-9.7,4.7
		c-3.3,0-6-0.9-8.1-2.7C114.1,124.4,112.9,122,112.5,119.1z"/>
	<path class="st1" d="M155.3,128.3V92.5h6.9v12.9c2.1-2.4,4.6-3.6,7.5-3.6c3.2,0,5.8,1.1,7.8,3.4c2.1,2.3,3.1,5.6,3.1,9.9
		c0,4.4-1.1,7.8-3.2,10.2c-2.1,2.4-4.7,3.6-7.7,3.6c-1.5,0-2.9-0.4-4.4-1.1c-1.4-0.7-2.7-1.8-3.7-3.3v3.8H155.3z M162.1,114.7
		c0,2.7,0.4,4.7,1.3,6c1.2,1.8,2.8,2.7,4.7,2.7c1.5,0,2.8-0.6,3.9-1.9c1.1-1.3,1.6-3.3,1.6-6.1c0-3-0.5-5.1-1.6-6.4
		c-1.1-1.3-2.4-2-4.1-2c-1.6,0-3,0.6-4.1,1.9C162.6,110.2,162.1,112.1,162.1,114.7z"/>
	<path class="st1" d="M186.2,98.8v-6.3h6.9v6.3H186.2z M186.2,128.3v-25.9h6.9v25.9H186.2z"/>
	<path class="st1" d="M197.8,120.9l6.9-1c0.3,1.3,0.9,2.3,1.8,3c0.9,0.7,2.1,1,3.8,1c1.8,0,3.1-0.3,4-1c0.6-0.5,0.9-1.1,0.9-1.8
		c0-0.5-0.2-1-0.5-1.3c-0.3-0.3-1.1-0.6-2.3-0.9c-5.5-1.2-9-2.3-10.5-3.3c-2.1-1.4-3.1-3.3-3.1-5.8c0-2.2,0.9-4.1,2.7-5.7
		c1.8-1.5,4.5-2.3,8.3-2.3c3.5,0,6.2,0.6,7.9,1.7c1.7,1.2,2.9,2.9,3.6,5.1l-6.5,1.2c-0.3-1-0.8-1.8-1.6-2.3s-1.9-0.8-3.3-0.8
		c-1.8,0-3.1,0.3-3.9,0.8c-0.5,0.4-0.8,0.8-0.8,1.4c0,0.5,0.2,0.9,0.7,1.2c0.6,0.5,2.8,1.1,6.4,1.9s6.2,1.8,7.7,3.1
		c1.4,1.2,2.1,2.9,2.1,5.1c0,2.4-1,4.4-3,6.1c-2,1.7-4.9,2.6-8.8,2.6c-3.5,0-6.3-0.7-8.4-2.1C199.8,125.3,198.4,123.3,197.8,120.9z"
		/>
	<path class="st1" d="M106.4,173.8l6.6-0.8c0.2,1.7,0.8,3,1.7,3.9c0.9,0.9,2.1,1.3,3.4,1.3c1.4,0,2.6-0.5,3.6-1.6
		c1-1.1,1.5-2.5,1.5-4.3c0-1.7-0.5-3.1-1.4-4.1c-0.9-1-2.1-1.5-3.4-1.5c-0.9,0-1.9,0.2-3.1,0.5l0.8-5.6c1.9,0,3.3-0.4,4.2-1.2
		s1.5-2,1.5-3.4c0-1.2-0.4-2.2-1.1-2.9c-0.7-0.7-1.7-1.1-2.9-1.1c-1.2,0-2.2,0.4-3,1.2c-0.8,0.8-1.3,2-1.5,3.6l-6.3-1.1
		c0.4-2.2,1.1-3.9,2-5.2c0.9-1.3,2.1-2.3,3.7-3.1c1.6-0.7,3.4-1.1,5.3-1.1c3.4,0,6.1,1.1,8.1,3.2c1.7,1.8,2.5,3.7,2.5,6
		c0,3.1-1.7,5.6-5.2,7.5c2.1,0.4,3.7,1.4,4.9,3c1.2,1.5,1.8,3.4,1.8,5.5c0,3.1-1.1,5.8-3.4,8c-2.3,2.2-5.2,3.3-8.6,3.3
		c-3.2,0-5.9-0.9-8.1-2.8C108,179.2,106.7,176.8,106.4,173.8z"/>
	<path class="st1" d="M146.1,147.3c3.5,0,6.2,1.2,8.1,3.7c2.3,2.9,3.5,7.8,3.5,14.6c0,6.8-1.2,11.6-3.5,14.6
		c-1.9,2.4-4.6,3.7-8.1,3.7c-3.5,0-6.3-1.3-8.4-4c-2.1-2.7-3.2-7.5-3.2-14.3c0-6.7,1.2-11.6,3.5-14.6
		C140,148.5,142.7,147.3,146.1,147.3z M146.1,153c-0.8,0-1.6,0.3-2.2,0.8c-0.7,0.5-1.2,1.5-1.5,2.8c-0.5,1.8-0.7,4.8-0.7,9
		s0.2,7.1,0.6,8.7c0.4,1.6,1,2.6,1.6,3.1c0.6,0.5,1.4,0.8,2.2,0.8s1.6-0.3,2.2-0.8c0.7-0.5,1.2-1.5,1.5-2.8c0.5-1.8,0.7-4.7,0.7-8.9
		s-0.2-7.1-0.6-8.7c-0.4-1.6-1-2.6-1.6-3.1C147.7,153.3,147,153,146.1,153z"/>
	<path class="st1" d="M177.7,183.3v-35.8h6.9v35.8H177.7z"/>
</g>
</svg>
