<?xml version="1.0" encoding="utf-8"?>
<!-- Generator: Adobe Illustrator 28.1.0, SVG Export Plug-In . SVG Version: 6.00 Build 0)  -->
<svg version="1.1" id="Ebene_1" xmlns="http://www.w3.org/2000/svg" xmlns:xlink="http://www.w3.org/1999/xlink" x="0px" y="0px"
	 viewBox="0 0 2180 768" style="enable-background:new 0 0 2180 768;" xml:space="preserve">
<style type="text/css">
	.st0{fill:#FFFFFF;}
</style>
<g>
	<path class="st0" d="M1604.6,525.8c-0.4,0-0.8,0-1,0h-45.2c-2.8,0-5-2.2-5-5s2.2-5,5-5h45.4c0.2,0,0.4,0,0.5,0
		c0.1,0,3.4,0.2,6.1-2.2c2.4-2.2,3.7-6.3,3.7-11.8v-90.6c0-12.9-8.6-16.3-9-16.5l-39.7-13.9c-1.6-0.6-2.8-1.9-3.2-3.5
		c-0.1-0.6-14.9-57-47.3-95.5h-85.9v142.6c0.3,0.7,0.5,1.4,0.5,2.2s-0.2,1.5-0.5,2.2v50.9c0,2.8-2.2,5-5,5s-5-2.2-5-5v-48.1H716.3
		v84.2h45.9c2.8,0,5,2.2,5,5s-2.2,5-5,5h-50.9c-2.8,0-5-2.2-5-5v-94.2c0-2.8,2.2-5,5-5h707.7V276.8c0-2.8,2.2-5,5-5h93.2
		c1.4,0,2.8,0.6,3.8,1.7c31.3,36.1,46.8,86.6,50.2,98.7l37.2,13c0.6,0.2,15.6,5.6,15.6,25.9v90.6c0,8.6-2.4,15.1-7.1,19.3
		C1612.4,525.2,1607,525.8,1604.6,525.8z M1465.5,525.7H1224c-2.8,0-5-2.2-5-5s2.2-5,5-5h241.5c2.8,0,5,2.2,5,5
		S1468.2,525.7,1465.5,525.7z"/>
	<path class="st0" d="M1513.9,388h-38.7c-2.8,0-5-2.2-5-5s2.2-5,5-5h32.4c-5.9-22-22.7-53.3-22.9-53.7c-1.3-2.4-0.4-5.5,2-6.8
		c2.4-1.3,5.5-0.4,6.8,2c0.9,1.6,21,39.2,25.2,62.5c0.3,1.5-0.1,3-1.1,4.1C1516.8,387.4,1515.4,388,1513.9,388z"/>
	<path class="st0" d="M1511.2,577.3c-28,0-50.7-22.8-50.7-50.7c0-28,22.8-50.7,50.7-50.7c28,0,50.7,22.8,50.7,50.7
		C1561.9,554.6,1539.2,577.3,1511.2,577.3z M1511.2,485.9c-22.5,0-40.7,18.3-40.7,40.7s18.3,40.7,40.7,40.7
		c22.5,0,40.7-18.3,40.7-40.7S1533.7,485.9,1511.2,485.9z M1138.4,577.3c-28,0-50.7-22.8-50.7-50.7c0-28,22.8-50.7,50.7-50.7
		c28,0,50.7,22.8,50.7,50.7C1189.1,554.6,1166.3,577.3,1138.4,577.3z M1138.4,485.9c-22.5,0-40.7,18.3-40.7,40.7
		s18.3,40.7,40.7,40.7c22.5,0,40.7-18.3,40.7-40.7S1160.8,485.9,1138.4,485.9z M807.9,577.3c-28,0-50.7-22.8-50.7-50.7
		c0-28,22.8-50.7,50.7-50.7c28,0,50.7,22.8,50.7,50.7C858.6,554.6,835.8,577.3,807.9,577.3z M807.9,485.9
		c-22.5,0-40.7,18.3-40.7,40.7s18.3,40.7,40.7,40.7c22.5,0,40.7-18.3,40.7-40.7S830.3,485.9,807.9,485.9z"/>
	<path class="st0" d="M650.5,391.1H578c-2.8,0-5-2.2-5-5c0-2.8,2.2-5,5-5h72.5c2.8,0,5,2.2,5,5C655.5,388.9,653.3,391.1,650.5,391.1
		z M793.9,343.5H633.6c-2.8,0-5-2.2-5-5s2.2-5,5-5h160.3c2.8,0,5,2.2,5,5S796.7,343.5,793.9,343.5z M723.9,272.6H620.2
		c-2.8,0-5-2.2-5-5s2.2-5,5-5h103.8c2.8,0,5,2.2,5,5S726.7,272.6,723.9,272.6z M663.9,201.6h-104c-2.8,0-5-2.2-5-5s2.2-5,5-5h104
		c2.8,0,5,2.2,5,5S666.7,201.6,663.9,201.6z"/>
</g>
<path class="st0" d="M1092.6,525.7H892.2c-2.8,0-5-2.2-5-5s2.2-5,5-5h200.4c2.8,0,5,2.2,5,5S1095.4,525.7,1092.6,525.7z"/>
<g>
	<path class="st0" d="M928.2,431H763.1c-10.5,0-19.1-8.7-19.1-19.4V246.5c0-3.5,1-6.9,2.8-9.8l22.8-36.5c3.4-5.4,9.1-8.6,15.4-8.6
		h59.8c6.3,0,12,3.2,15.4,8.6l16.8,26.8c1.9,3.1,5.2,4.9,8.7,4.9h34.1v-30.2h-25.2v12.9c0,2.8-2.2,5-5,5s-5-2.2-5-5v-17.9
		c0-2.8,2.2-5,5-5h35.2c2.8,0,5,2.2,5,5v35.7c0,0.1,0,0.2,0,0.3c0.5,0.3,0.9,0.7,1.2,1.1l12.4,15.8c1.5,1.9,2.2,2.8,2.7,68
		c0.2,31.4,0.2,62.9,0.2,63.2c0,1.3-0.5,2.6-1.5,3.5c-0.9,0.9-2.2,1.5-3.5,1.5c0,0,0,0,0,0L760.8,385c-2.8,0-5-2.3-5-5
		c0-2.8,2.2-5,5-5c0,0,0,0,0,0l175.4,0.7c0-44.6-0.4-111.5-1.5-120.9l-10.2-12.9h-39c-7,0-13.5-3.6-17.2-9.6l-16.8-26.8
		c-1.5-2.4-4.1-3.9-6.9-3.9H785c-2.8,0-5.4,1.4-6.9,3.9L755.2,242c-0.9,1.4-1.3,2.9-1.3,4.5v165.2c0,5.2,4.1,9.4,9.1,9.4h165.1
		c5,0,9.1-4.2,9.1-9.4c0-2.8,2.2-5,5-5s5,2.2,5,5C947.3,422.4,938.7,431,928.2,431z M856.6,246h-84.7c-1.8,0-3.4-1-4.3-2.5
		s-0.9-3.5,0-5l14.2-24.4c0,0,0.1-0.1,0.1-0.1c1.7-2.8,4.7-4.4,7.9-4.4h50.1c3.2,0,6.2,1.7,7.9,4.4c0.1,0.1,0.1,0.2,0.2,0.3
		l12.9,24.4c0.8,1.5,0.8,3.4-0.1,4.9S858.3,246,856.6,246z M780.6,236h67.7l-8.7-16.4h-49.4L780.6,236z M839.9,219.5L839.9,219.5
		L839.9,219.5z"/>
	<path class="st0" d="M1144.1,431H978.9c-10.5,0-19.1-8.7-19.1-19.4V246.5c0-3.5,1-6.9,2.8-9.8l22.8-36.5c3.4-5.4,9.1-8.6,15.4-8.6
		h59.8c6.3,0,12,3.2,15.4,8.6l16.8,26.8c1.9,3.1,5.2,4.9,8.7,4.9h34.1v-30.2h-25.2v12.9c0,2.8-2.2,5-5,5s-5-2.2-5-5v-17.9
		c0-2.8,2.2-5,5-5h35.2c2.8,0,5,2.2,5,5v35.7c0,0.1,0,0.2,0,0.3c0.5,0.3,0.9,0.7,1.2,1.1l12.4,15.8c1.5,1.9,2.2,2.8,2.7,68
		c0.2,31.4,0.2,62.9,0.2,63.2c0,1.3-0.5,2.6-1.5,3.5c-0.9,0.9-2.2,1.5-3.5,1.5c0,0,0,0,0,0L976.6,385c-2.8,0-5-2.3-5-5
		c0-2.8,2.2-5,5-5c0,0,0,0,0,0l175.4,0.7c0-44.6-0.4-111.5-1.5-120.9l-10.2-12.9h-39c-7,0-13.5-3.6-17.2-9.6l-16.8-26.8
		c-1.5-2.4-4.1-3.9-6.9-3.9h-59.8c-2.8,0-5.4,1.4-6.9,3.9L971.1,242c-0.9,1.4-1.3,2.9-1.3,4.5v165.2c0,5.2,4.1,9.4,9.1,9.4h165.1
		c5,0,9.1-4.2,9.1-9.4c0-2.8,2.2-5,5-5s5,2.2,5,5C1163.2,422.4,1154.6,431,1144.1,431z M1072.4,246h-84.7c-1.8,0-3.4-1-4.3-2.5
		s-0.9-3.5,0-5l14.2-24.4c0,0,0.1-0.1,0.1-0.1c1.7-2.8,4.7-4.4,7.9-4.4h50.1c3.2,0,6.2,1.7,7.9,4.4c0.1,0.1,0.1,0.2,0.2,0.3
		l12.9,24.4c0.8,1.5,0.8,3.4-0.1,4.9S1074.2,246,1072.4,246z M996.4,236h67.7l-8.7-16.4H1006L996.4,236z M1055.8,219.5L1055.8,219.5
		L1055.8,219.5z"/>
	<path class="st0" d="M1355.5,431h-165.1c-10.5,0-19.1-8.7-19.1-19.4V246.5c0-3.5,1-6.9,2.8-9.8l22.8-36.5c3.4-5.4,9.1-8.6,15.4-8.6
		h59.8c6.3,0,12,3.2,15.4,8.6l16.8,26.8c1.9,3.1,5.2,4.9,8.7,4.9h34.1v-30.2h-25.2v12.9c0,2.8-2.2,5-5,5s-5-2.2-5-5v-17.9
		c0-2.8,2.2-5,5-5h35.2c2.8,0,5,2.2,5,5v35.7c0,0.1,0,0.2,0,0.3c0.5,0.3,0.9,0.7,1.2,1.1l12.4,15.8c1.5,1.9,2.2,2.8,2.7,68
		c0.2,31.4,0.2,62.9,0.2,63.2c0,1.3-0.5,2.6-1.5,3.5c-0.9,0.9-2.2,1.5-3.5,1.5c0,0,0,0,0,0l-180.5-0.7c-2.8,0-5-2.3-5-5
		c0-2.8,2.2-5,5-5c0,0,0,0,0,0l175.4,0.7c0-44.6-0.4-111.5-1.5-120.9l-10.2-12.9h-39c-7,0-13.5-3.6-17.2-9.6l-16.8-26.8
		c-1.5-2.4-4.1-3.9-6.9-3.9h-59.8c-2.8,0-5.4,1.4-6.9,3.9l-22.8,36.5c-0.8,1.4-1.3,2.9-1.3,4.5v165.2c0,5.2,4.1,9.4,9.1,9.4h165.1
		c5,0,9.1-4.2,9.1-9.4c0-2.8,2.2-5,5-5s5,2.2,5,5C1374.6,422.4,1366,431,1355.5,431z M1283.9,246h-84.7c-1.8,0-3.4-1-4.3-2.5
		c-0.9-1.6-0.9-3.5,0-5l14.2-24.4c0,0,0.1-0.1,0.1-0.1c1.7-2.8,4.7-4.4,7.9-4.4h50.1c3.2,0,6.2,1.7,7.9,4.4c0.1,0.1,0.1,0.2,0.2,0.3
		l12.9,24.4c0.8,1.5,0.8,3.4-0.1,4.9S1285.6,246,1283.9,246z M1207.9,236h67.7l-8.7-16.4h-49.4L1207.9,236z M1267.2,219.5
		L1267.2,219.5L1267.2,219.5z"/>
</g>
</svg>
