<?xml version="1.0" encoding="utf-8"?>
<!-- Generator: Adobe Illustrator 28.1.0, SVG Export Plug-In . SVG Version: 6.00 Build 0)  -->
<svg version="1.1" id="Ebene_1" xmlns="http://www.w3.org/2000/svg" xmlns:xlink="http://www.w3.org/1999/xlink" x="0px" y="0px"
	 viewBox="0 0 2408 768" style="enable-background:new 0 0 2408 768;" xml:space="preserve">
<style type="text/css">
	.st0{fill:#FFFFFF;}
</style>
<g>
	<path class="st0" d="M1888.1,738.6c-24.2,0-45.8,0-64.8,0c-31.5-0.1-55.9-0.2-72.6-0.3c-9-0.1-16-0.2-20.6-0.3
		c-8.9-0.2-11.3-0.2-14.4-3.3c-1.9-1.9-2.9-4.5-2.9-7.1v-72.3h-285.4v68.6c0,5.5-4.5,10-10,10L47.5,735.6c0,0,0,0,0,0
		c-5.5,0-10-4.5-10-10c0-5.5,4.5-10,10-10l1359.9-1.9v-68.6c0-5.5,4.5-10,10-10h305.4c5.5,0,10,4.5,10,10V718
		c65.1,1.2,467.5,0.1,627.7-0.4c0,0,0,0,0,0c5.5,0,10,4.5,10,10c0,5.5-4.4,10-10,10c-1.6,0-160.7,0.6-318.1,0.8
		C1983.1,738.5,1931.5,738.6,1888.1,738.6z M1732.7,727.4v0.2C1732.7,727.5,1732.7,727.5,1732.7,727.4z"/>
</g>
<path class="st0" d="M1698.8,585.4h-262.1c-5.5,0-10-4.5-10-10s4.5-10,10-10h262.1c5.5,0,10,4.5,10,10S1704.3,585.4,1698.8,585.4z"
	/>
<g>
	<path class="st0" d="M2080.9,369.5c-0.5,0.5-1,1-1.5,1.4c-13.3,12.5-30.9,18.8-49.6,17.6l-338.3-21.3c-5.5-0.3-9.7-5.1-9.4-10.6
		c0.3-5.5,5.1-9.7,10.6-9.4l338.2,21.3c13.1,0.8,25.4-3.5,34.7-12.2c9.2-8.7,14.3-20.6,14.3-33.7v-14.1c0-13.1-5.1-25-14.3-33.7
		s-21.5-13-34.6-12.2l-340.7,21.7c-5.5,0.4-10.3-3.8-10.6-9.3c-0.4-5.5,3.8-10.3,9.3-10.6l340.7-21.7c18.6-1.2,36.2,5.1,49.5,17.6
		c13.3,12.5,20.6,29.7,20.6,48.3v14C2100,340.6,2093.3,357.1,2080.9,369.5z"/>
</g>
<path class="st0" d="M1654.3,438.5c-1.8,1.8-4.3,2.9-7.1,2.9h-164c-5.5,0-10-4.5-10-10V206c0-2.7,1.1-5.2,2.9-7.1s4.4-2.9,7.1-2.9
	h164c2.7,0,5.2,1.1,7.1,2.9c1.9,1.9,2.9,4.4,2.9,7.1v225.4C1657.3,434.2,1656.2,436.7,1654.3,438.5z M1493.3,421.5h144V216.1h-144
	V421.5z"/>
<g>
	<path class="st0" d="M1654.3,227.9c-3.5,3.5-9,3.9-13.1,0.9c-4.4-3.3-5.3-9.6-2-14l27.5-36.7v-50.9h-203.4v50.9l27.5,36.7
		c3.3,4.4,2.4,10.7-2,14s-10.7,2.4-14-2l-29.5-39.3c-1.3-1.7-2-3.8-2-6v-64.3c0-5.5,4.5-10,10-10h223.4c2.7,0,5.2,1.1,7.1,2.9
		c1.9,1.9,2.9,4.4,2.9,7.1v64.3c0,2.2-0.7,4.3-2,6l-29.5,39.3C1655,227.2,1654.7,227.6,1654.3,227.9z"/>
</g>
<path class="st0" d="M1683.8,527.6c-1.8,1.8-4.3,2.9-7.1,2.9h-223.4c-5.5,0-10-4.5-10-10v-64.3c0-2.2,0.7-4.3,2-6l29.5-39.3
	c3.3-4.4,9.6-5.3,14-2s5.3,9.6,2,14l-27.5,36.6v50.9h203.4v-50.9l-27.5-36.6c-3.3-4.4-2.4-10.7,2-14s10.7-2.4,14,2l29.5,39.3
	c1.3,1.7,2,3.8,2,6v64.3C1686.7,523.3,1685.6,525.8,1683.8,527.6z"/>
</svg>
