<?xml version="1.0" encoding="utf-8"?>
<!-- Generator: Adobe Illustrator 28.1.0, SVG Export Plug-In . SVG Version: 6.00 Build 0)  -->
<svg version="1.1" id="Ebene_1" xmlns="http://www.w3.org/2000/svg" xmlns:xlink="http://www.w3.org/1999/xlink" x="0px" y="0px"
	 viewBox="0 0 2461.8 354.8" style="enable-background:new 0 0 2461.8 354.8;" xml:space="preserve">
<style type="text/css">
	.st0{fill:#FFFFFF;}
</style>
<g>
	<path class="st0" d="M1916.8,264.4c-24.2,0-45.8,0-64.8,0c-31.5-0.1-55.9-0.2-72.6-0.3c-9-0.1-16-0.2-20.6-0.3
		c-8.9-0.2-11.3-0.2-14.4-3.3c-1.9-1.9-2.9-4.5-2.9-7.1v-72.3H1456v68.6c0,5.5-4.5,10-10,10L76.2,261.5c0,0,0,0,0,0
		c-5.5,0-10-4.5-10-10c0-5.5,4.5-10,10-10l1359.9-1.9v-68.6c0-5.5,4.5-10,10-10h305.4c5.5,0,10,4.5,10,10v72.8
		c65.1,1.2,467.5,0.1,627.7-0.4c0,0,0,0,0,0c5.5,0,10,4.5,10,10c0,5.5-4.4,10-10,10c-1.6,0-160.7,0.6-318.1,0.8
		C2011.8,264.4,1960.1,264.4,1916.8,264.4z M1761.4,253.3v0.1C1761.4,253.4,1761.4,253.4,1761.4,253.3z"/>
	<path class="st0" d="M1727.5,111.3h-262.1c-5.5,0-10-4.5-10-10s4.5-10,10-10h262.1c5.5,0,10,4.5,10,10S1733,111.3,1727.5,111.3z"/>
</g>
</svg>
