<?xml version="1.0" encoding="utf-8"?>
<!-- Generator: Adobe Illustrator 28.1.0, SVG Export Plug-In . SVG Version: 6.00 Build 0)  -->
<svg version="1.1" id="Ebene_1" xmlns="http://www.w3.org/2000/svg" xmlns:xlink="http://www.w3.org/1999/xlink" x="0px" y="0px"
	 viewBox="0 0 2408 768" style="enable-background:new 0 0 2408 768;" xml:space="preserve">
<style type="text/css">
	.st0{fill:#FFFFFF;}
</style>
<g>
	<path class="st0" d="M2038.6,661.6c-0.7,0-1.4,0-2,0c-18.3-0.6-35.2-8.6-47.5-22.6L1765,384.7c-3.7-4.1-3.3-10.5,0.9-14.1
		c4.1-3.7,10.5-3.3,14.1,0.9L2004,625.7c8.7,9.8,20.4,15.5,33.2,15.8c12.7,0.4,24.7-4.5,33.9-13.7l10-9.9c9.2-9.2,14.1-21.3,13.7-34
		c-0.4-12.7-6-24.4-15.8-33.1l-256.2-225.5c-4.1-3.6-4.5-10-0.9-14.1c3.6-4.1,10-4.5,14.1-0.9l256.2,225.5
		c14,12.3,22,29.2,22.6,47.5c0.6,18.3-6.4,35.6-19.6,48.8l-9.9,9.9C2072.6,654.7,2056.1,661.6,2038.6,661.6z"/>
</g>
<path class="st0" d="M1688.2,408.8c-2.6,0-5.1-1-7.1-2.9l-115.9-115.9c-3.9-3.9-3.9-10.2,0-14.1l159.3-159.4
	c1.9-1.9,4.4-2.9,7.1-2.9s5.2,1.1,7.1,2.9l116,116c1.9,1.9,2.9,4.4,2.9,7.1c0,2.7-1.1,5.2-2.9,7.1l-159.4,159.4
	C1693.3,407.8,1690.8,408.8,1688.2,408.8z M1586.4,282.8l101.8,101.8l145.3-145.2l-101.9-101.8L1586.4,282.8z"/>
<g>
	<path class="st0" d="M1837.1,259.8c-4.9,0-9.2-3.6-9.9-8.6c-0.8-5.5,3-10.5,8.5-11.3l45.3-6.5l36-36L1773.2,53.6l-36,36l-6.5,45.4
		c-0.8,5.5-5.9,9.3-11.3,8.5c-5.5-0.8-9.3-5.8-8.5-11.3l7-48.7c0.3-2.1,1.3-4.1,2.8-5.7l45.5-45.4c3.9-3.9,10.2-3.9,14.1,0l158,158
		c1.9,1.9,2.9,4.4,2.9,7.1c0,2.7-1.1,5.2-2.9,7.1l-45.5,45.4c-1.5,1.5-3.5,2.5-5.7,2.8l-48.6,7
		C1838.1,259.8,1837.6,259.8,1837.1,259.8z"/>
</g>
<path class="st0" d="M1646.1,492.6c-2.6,0-5.1-1-7.1-2.9l-158-158c-3.9-3.9-3.9-10.2,0-14.1l45.4-45.5c1.5-1.5,3.5-2.5,5.7-2.8
	l48.6-6.9c5.5-0.8,10.5,3,11.3,8.5c0.8,5.5-3,10.5-8.5,11.3l-45.3,6.5l-36,36l143.9,143.8l36-36l6.5-45.3c0.8-5.5,5.8-9.3,11.3-8.5
	c5.5,0.8,9.3,5.8,8.5,11.3l-6.9,48.7c-0.3,2.1-1.3,4.1-2.8,5.7l-45.5,45.4C1651.2,491.6,1648.6,492.6,1646.1,492.6z"/>
</svg>
