<?xml version="1.0" encoding="utf-8"?>
<!-- Generator: Adobe Illustrator 28.1.0, SVG Export Plug-In . SVG Version: 6.00 Build 0)  -->
<svg version="1.1"
	 id="svg6792" xmlns:svg="http://www.w3.org/2000/svg" xmlns:rdf="http://www.w3.org/1999/02/22-rdf-syntax-ns#" xmlns:cc="http://creativecommons.org/ns#" xmlns:dc="http://purl.org/dc/elements/1.1/"
	 xmlns="http://www.w3.org/2000/svg" xmlns:xlink="http://www.w3.org/1999/xlink" x="0px" y="0px" viewBox="0 0 90 90"
	 style="enable-background:new 0 0 90 90;" xml:space="preserve">
<style type="text/css">
	.st0{fill:#008066;}
	.st1{fill:none;stroke:#000000;stroke-width:0.7;stroke-miterlimit:4;}
</style>
<rect id="rect6763" x="15" y="15" transform="matrix(0.7071 -0.7071 0.7071 0.7071 -18.6396 44.9999)" class="st0" width="60" height="60"/>
<rect id="rect6769" x="19.4" y="19.4" transform="matrix(0.7071 -0.7071 0.7071 0.7071 -18.6402 45.0005)" class="st1" width="51.3" height="51.3"/>
<path id="path3113" d="M47.6,72.6V74h-5.3c0.1-0.5,0.2-1,0.5-1.5c0.3-0.5,0.9-1.1,1.7-1.9c0.7-0.6,1.1-1.1,1.3-1.3
	c0.2-0.3,0.3-0.6,0.3-0.9c0-0.3-0.1-0.6-0.3-0.8c-0.2-0.2-0.4-0.3-0.7-0.3c-0.3,0-0.6,0.1-0.8,0.3c-0.2,0.2-0.3,0.5-0.3,0.9
	l-1.5-0.2c0.1-0.8,0.4-1.4,0.8-1.8c0.5-0.4,1.1-0.5,1.8-0.5c0.8,0,1.4,0.2,1.8,0.6c0.4,0.4,0.7,0.9,0.7,1.6c0,0.4-0.1,0.7-0.2,1
	c-0.1,0.3-0.3,0.7-0.6,1c-0.2,0.2-0.5,0.6-1,1c-0.5,0.4-0.8,0.7-0.9,0.9c-0.1,0.1-0.2,0.3-0.3,0.4H47.6z"/>
<path id="path530" d="M27.7,31.2c0,0-0.6-1.5,1.9-2c2.5-0.5,20.8-4.3,20.8-4.3s1.8-0.6,3-0.1c1.2,0.5,1,0.6,2.2,0.3
	c1.3-0.3,1.8-0.4,1.8-0.4s1.3-0.3,1.5,0.5c0.3,1.3-1,1.3-1,1.3l-2,0.5c0,0-1.4,0.2-1.7,0.9c-0.3,0.6-2,1.3-2.8,1.4
	c-0.7,0.1-20.9,4.6-20.9,4.6s-1.9,0.7-2.3-0.6C27.8,31.7,27.7,31.2,27.7,31.2"/>
</svg>
