<?xml version="1.0" encoding="utf-8"?>
<!-- Generator: Adobe Illustrator 28.1.0, SVG Export Plug-In . SVG Version: 6.00 Build 0)  -->
<svg version="1.1" id="Layer_1" xmlns="http://www.w3.org/2000/svg" xmlns:xlink="http://www.w3.org/1999/xlink" x="0px" y="0px"
	 viewBox="0 0 91.2 90.9" style="enable-background:new 0 0 91.2 90.9;" xml:space="preserve">
<style type="text/css">
	.st0{fill:none;}
	.st1{fill:none;stroke:#000000;stroke-width:0.3381;}
	.st2{fill:#FFFFFF;}
	.st3{fill:none;stroke:#000000;stroke-width:0.8561;}
</style>
<g>
	<line class="st0" x1="90.5" y1="45.5" x2="45.5" y2="90.3"/>
	<line class="st1" x1="90.5" y1="45.5" x2="45.5" y2="90.3"/>
	<polygon class="st2" points="90.5,45.5 45.5,0.6 0.5,45.5 45.5,90.3 	"/>
	<path class="st3" d="M84.2,45.7L45.3,6.9L6.5,45.7l38.9,38.8L84.2,45.7z M90.5,45.5l-45-44.9l-45,44.9l45,44.9L90.5,45.5z"/>
	<path d="M50.9,18.6c0.5,0.8,1,1.6,0.8,2.6c-0.3,1.2-1.1,2.3-1.1,3.6c0,1.1-0.5,2-0.9,2.9c1.6-1.1,3.3-1.9,4.9-2.9
		c0.4-0.1,0.9-0.2,1.3,0.1c0.8,0.8-0.9,1.4-0.1,2.4C55.3,28.4,54,27.3,53,28c-1.4,0.5-2.7,1.2-4.1,1.9c-0.1,0.1,0,0.2,0,0.4
		c1.2,0.6,2.5,1.1,3.8,1.3c0.8,0.8,2.1,0.3,2.5,1.4c0.2,0.8-0.3,1.5-0.9,2c-0.1,0.3-0.4,0.5-0.7,0.6c-0.7,0-1.2-0.6-1.8-0.9
		c-0.7-1-1.4-2-2.6-2.3c-0.9-0.1-1.8-1.5-2.6-0.4c-0.7,0.5-1.5,0.6-2.4,0.4c-0.6-0.1-1.1-0.9-1.7-0.4c-1.2,1-3,1-3.5,2.7
		c-0.6,0.4-1.2,0.5-1.8,0.9c-0.8,0.1-1.1-0.6-1.8-0.7c-0.3-0.3-0.3-0.7-0.4-1.1c0.3-0.6,0.6-1,1.1-1.5c2.1,0,3.8-0.7,5.4-1.8
		c0.3-1.5-1.4-1.1-2.1-1.5c-1.4-0.4-2.8-0.6-4.2-0.9c-0.3-0.3-0.2-0.7-0.4-1c-0.3-0.3-0.5-0.8-0.4-1.3c0.1-0.3,0.3-0.3,0.6-0.4
		c2-0.1,3.5,1.5,5.3,2c-1-0.8,0-2.7-1-3.6c-0.6-0.8-1.1-1.9-0.8-3c0.5-2.9,3.6-3.9,5.9-4.7C46.9,16.1,49.2,16.9,50.9,18.6"/>
	<path class="st2" d="M51,20.1c0,0.6,0,1.3-0.3,1.8c-0.2-0.7,0-1.6-0.6-1.9c-0.1,0.3,0,0.7,0,1c-0.2,1.6-0.2,3.4-0.3,5.1
		c-0.3,1.6-2.4,1-2.7,2.5c-0.8,0.7-2,0.6-2.9,0.4c-0.7-0.4-0.7-1.4-1.5-1.7c-0.7-0.4-1.8-0.4-2.1-1.4c0.1-1.8,0.7-3.6,0.2-5.4
		c-0.3,0-0.2,0.3-0.3,0.4l-0.3,2.2c-0.5-0.6-0.8-1.2-0.7-1.9c0.5-2.6,3.3-4.3,5.7-4.7C47.4,16.8,50,17.9,51,20.1"/>
	<path d="M44.1,24.1c0,0.8-0.9,1.1-1.5,1.5c-0.4,0.1-0.8-0.4-1-0.7c-0.1-0.4-0.5-0.8-0.2-1.2c0.8-0.2,1.8-0.1,2.6,0.2L44.1,24.1z"/>
	<path d="M49,24.3c0.1,0.5-0.4,0.9-0.8,1c-0.4,0.1-0.9,0.2-1.3-0.1c-0.3-0.3-0.7-0.6-0.8-1.1c0-0.2,0.2-0.4,0.4-0.5
		C47.4,23.6,48.6,23.5,49,24.3"/>
	<path class="st2" d="M54.8,25.2c0,0.7,0.4,1.4,0.3,2c-0.8,0.1-1.7-0.2-2.4,0.3c-1.1,0.5-2.2,1.1-3.4,1.5c0-0.2,0-0.6,0.2-0.8
		C51.2,27.2,53,26.1,54.8,25.2"/>
	<path class="st2" d="M55.5,25.4v0.1c0,0-0.1,0-0.1,0c-0.1,0-0.2-0.2-0.1-0.3C55.5,25.3,55.6,25.3,55.5,25.4"/>
	<path class="st2" d="M35.3,25.8c0.1,0.2,0,0.4,0,0.6h-0.1C35,26.2,35,25.8,35.3,25.8"/>
	<path d="M46.2,26.6c0,0.5,0.3,1.1-0.1,1.4c-0.3,0.1-0.6-0.2-0.7-0.5c0-0.1-0.1-0.1-0.1-0.1c-0.3,0.3-0.5,0.6-0.9,0.5
		c-0.3-0.6,0.2-1.2,0.5-1.7c0.1-0.2,0.3-0.3,0.5-0.3C45.9,25.9,46.2,26.3,46.2,26.6"/>
	<path class="st2" d="M41,28.3l0.1,0.4c-1.7-0.4-3.7-0.8-5.5-1.3c-0.1-0.5,0.4-1,0.4-1.5C37.9,26.3,39.4,27.6,41,28.3"/>
	<path class="st2" d="M43,28.4c-0.1,0.1-0.1,0.2-0.1,0.4l-0.7-1C42.6,27.9,42.9,28,43,28.4"/>
	<path class="st2" d="M48,28.6c-0.1-0.3,0.1-0.5,0.3-0.5h0.1L48,28.6z"/>
	<path class="st2" d="M42.8,30.1c1,0.9,2.5,0.9,3.7,0.8c0.7-0.2,1.2-0.7,1.6-1.3c-0.1,1.2-1.5,1.8-2.4,2.2c-1.2,0.2-2.1-0.5-3-1.1
		c-0.4-0.6-0.5-1.4-0.6-2.2C42.5,28.9,42.7,29.5,42.8,30.1"/>
	<path class="st2" d="M53.9,32.8c-0.2,0.7-0.1,1.5-0.3,2.1c-1.8-0.1-2-2.6-3.9-2.9l-1.6-0.8l0.5-0.6C50.2,31.7,52.3,31.7,53.9,32.8"
		/>
	<path class="st2" d="M42.2,31.5c-1.2,1-3.2,1-3.5,2.8c-0.7,0.1-1.2,0.7-1.9,0.7c0.2-0.8-0.3-1.4-0.6-2c0.8-0.3,1.7-0.2,2.5-0.4
		c1.1-0.3,2.1-0.8,3.1-1.4C41.9,31.1,42.1,31.3,42.2,31.5"/>
	<path class="st2" d="M54.7,33.2c-0.1,0.2-0.1,0.4-0.3,0.6c-0.2-0.1-0.2-0.5-0.1-0.7C54.4,33,54.7,33.1,54.7,33.2"/>
	<path class="st2" d="M36.1,34.2l-0.1,0.2c-0.2,0-0.3-0.2-0.4-0.3C35.6,33.6,36.2,34,36.1,34.2"/>
	<path d="M43,73.8c0-2.4,1.7-2.6,2.4-2.6c1.4,0,2.5,0.8,2.5,2.3c0,1.2-0.8,1.9-1.5,2.4c-1,0.7-1.5,1-1.6,1.3h3.1v1.3h-5
		c0-0.8,0.1-1.7,1.7-2.9c1.3-0.9,1.8-1.3,1.8-2.1c0-0.5-0.3-1-1-1c-1,0-1,0.8-1,1.4L43,73.8L43,73.8z"/>
</g>
</svg>
