<?xml version="1.0" encoding="utf-8"?>
<!-- Generator: Adobe Illustrator 28.1.0, SVG Export Plug-In . SVG Version: 6.00 Build 0)  -->
<svg version="1.1"
	 id="svg2" xmlns:svg="http://www.w3.org/2000/svg" xmlns:rdf="http://www.w3.org/1999/02/22-rdf-syntax-ns#" xmlns:cc="http://creativecommons.org/ns#" xmlns:dc="http://purl.org/dc/elements/1.1/"
	 xmlns="http://www.w3.org/2000/svg" xmlns:xlink="http://www.w3.org/1999/xlink" x="0px" y="0px" viewBox="0 0 98.3 98.3"
	 style="enable-background:new 0 0 98.3 98.3;" xml:space="preserve">
<style type="text/css">
	.st0{fill:#E0393E;}
	.st1{fill:none;stroke:#000000;stroke-width:0.7;stroke-miterlimit:4;}
</style>
<rect id="rect6763" x="19.1" y="19.1" transform="matrix(0.7071 -0.7071 0.7071 0.7071 -20.3582 49.1489)" class="st0" width="60" height="60"/>
<rect id="rect6769" x="23.5" y="23.5" transform="matrix(0.7071 -0.7071 0.7071 0.7071 -20.3588 49.1495)" class="st1" width="51.3" height="51.3"/>
<path id="path1390" d="M48.9,18.3c0,0-0.2,0-0.3,0.2c-0.6,0.7-0.8,1.8-0.9,2.7c-0.1,1.2,0.8,2.2,0.6,3.5c-0.9-1-1.7-1.5-2.8-2
	c-0.1-0.1-0.3-0.1-0.4-0.2c0.1,0.5,0.3,0.8,0.6,1.2c1.1,1.4-0.1,3,0.1,4.5c-0.4-0.7-1.1-1.2-1.7-1.7c-0.1-0.1-0.3-0.1-0.5-0.1L44,27
	c0.7,1,0.5,2.6,0.1,3.7c-0.7-0.6-1.2-1.5-2.1-1.4c1,1.5,0.8,3.7,1.5,5.4c0.7,1.5,2.1,2.3,3.6,2.6c0.6,0.1,1.8,0.2,1.8,0.2v-0.3
	c-1.9-0.3-1.8-2.4-3.2-3.4l-0.1-0.1l0.1,0c0.1,0,0.2,0,0.3,0c0.2,0,0.5,0.4,0.7,0.1c-0.3-0.8-0.2-1.5-0.2-2.3h0.1
	c0.7,1,0.6,2.3,1.5,3.2c0.1,0,0.2,0.1,0.3,0c0-1.4-0.8-2.7-0.4-4.2c0.2,0.5,0.4,1.1,0.9,1.3c0.7-0.7,0.5-2,0.4-3
	c0.8,1,1.1,2.8,0.5,4.1c-0.1,0.2-0.2,0.3-0.1,0.5c0.6-0.2,1-0.8,1.3-1.3l0-0.1l0,0.1c0.1,0.4,0,0.9-0.1,1.3c-0.1,0.4-0.5,0.6-0.3,1
	c0.6-0.2,1-0.7,1.4-1.1c0.2,1.7-1,3.3-2.4,4v0.2c0,0,0.7-0.1,1.1-0.1c2.3-0.3,4.6-2.2,5.1-4.6c0.4-1.2,0-2.4,0.1-3.7v-0.2l-0.1,0
	c-0.6,0.6-0.6,1.5-1,2.3c-0.2,0.2-0.3,0.6-0.6,0.6c0-1,0.4-1.9,0.7-2.7c0.3-1.1,0-2.3-0.7-3.2c0,0-0.1-0.1-0.1-0.1
	c0,0.1,0.1,0.1,0.1,0.2c0.2,1.3-0.4,2.3-1.4,3.1c-0.1,0.1-0.3,0.4-0.5,0.2c0.4-1.5,0.9-3.2-0.2-4.6c-0.2-0.3-0.4-0.7-0.8-0.9
	c0,1,0,2.2-0.7,2.9c0-0.5,0.1-1,0.1-1.5C51.2,22.6,48.4,21,48.9,18.3z M43.2,37.8v1.2h12v-1.2H43.2z"/>
<path id="path67" d="M48.7,73.5H49c0.5,0,1.3,0,1.3-1c0-0.3-0.1-1-1-1c-1,0-1,1-1,1.3h-1.4c0-1.4,0.8-2.5,2.6-2.5
	c1,0,2.4,0.5,2.4,2.2c0,0.8-0.5,1.3-0.9,1.5v0c0.3,0.1,1.2,0.5,1.2,1.8c0,1.5-1.1,2.5-2.6,2.5c-0.7,0-2.7-0.2-2.7-2.6h1.5l0,0
	c0,0.4,0.1,1.3,1.1,1.3c0.6,0,1.1-0.4,1.1-1.3c0-1.1-1-1.1-1.7-1.1L48.7,73.5"/>
</svg>
