<?xml version="1.0" encoding="utf-8"?>
<!-- Generator: Adobe Illustrator 28.1.0, SVG Export Plug-In . SVG Version: 6.00 Build 0)  -->
<svg version="1.1"
	 id="svg6792" xmlns:svg="http://www.w3.org/2000/svg" xmlns:rdf="http://www.w3.org/1999/02/22-rdf-syntax-ns#" xmlns:cc="http://creativecommons.org/ns#" xmlns:dc="http://purl.org/dc/elements/1.1/"
	 xmlns="http://www.w3.org/2000/svg" xmlns:xlink="http://www.w3.org/1999/xlink" x="0px" y="0px" viewBox="0 0 90 90"
	 style="enable-background:new 0 0 90 90;" xml:space="preserve">
<style type="text/css">
	.st0{fill:#FFFFFF;stroke:#231F20;stroke-width:0.7;stroke-miterlimit:4;}
	.st1{fill:#E22739;}
	.st2{fill:#231F20;}
	.st3{fill:none;stroke:#231F20;stroke-width:0.7;stroke-miterlimit:4;}
</style>
<rect id="rect6763" x="15" y="15" transform="matrix(0.7071 -0.7071 0.7071 0.7071 -18.6396 44.9999)" class="st0" width="60" height="60"/>
<path id="rect3103" class="st1" d="M45,2.6l-2.8,2.8v79.3l2.8,2.8l2.8-2.8V5.3L45,2.6z M36.7,10.9l-5.5,5.5v57.2l5.5,5.5V10.9z
	 M53.4,11V79l5.6-5.6V16.5L53.4,11z M25.6,21.9l-5.6,5.6v35l5.6,5.6V21.9z M64.5,22.1v45.8l5.5-5.5V27.6L64.5,22.1z M14.6,33L9,38.6
	v12.9l5.6,5.6V33z M75.6,33.2v23.6l5.6-5.6V38.8L75.6,33.2z"/>
<path id="path3086" class="st2" d="M45.4,74v-1.6h-3.2v-1.3l3.4-5h1.3v5h1v1.3h-1V74H45.4z M45.4,71.1v-2.7l-1.8,2.7H45.4z"/>
<rect id="rect3920" x="15" y="15" transform="matrix(0.7071 -0.7071 0.7071 0.7071 -18.6396 44.9999)" class="st3" width="60" height="60"/>
<rect id="rect6769" x="19.4" y="19.4" transform="matrix(0.7071 -0.7071 0.7071 0.7071 -18.6402 45.0005)" class="st3" width="51.3" height="51.3"/>
<path id="path1390" class="st2" d="M44.8,14.1c0,0-0.2,0-0.3,0.2C43.9,15,43.6,16,43.6,17c-0.1,1.2,0.8,2.2,0.6,3.5
	c-0.9-1-1.7-1.5-2.8-2c-0.1-0.1-0.3-0.1-0.4-0.2c0.1,0.5,0.3,0.8,0.6,1.2c1.1,1.4-0.1,3,0.1,4.5c-0.4-0.7-1.1-1.2-1.7-1.7
	c-0.1-0.1-0.4-0.2-0.5-0.1l0.3,0.5c0.7,1,0.6,2.6,0.2,3.7c-0.7-0.6-1.2-1.5-2.1-1.4c1,1.5,0.8,3.7,1.5,5.4c0.7,1.5,2.1,2.3,3.6,2.6
	c0.6,0.1,1.8,0.2,1.8,0.2v-0.3c-1.9-0.3-1.7-2.4-3.1-3.4l-0.1-0.1l0,0c0.1,0,0.2,0,0.4,0c0.2,0,0.5,0.4,0.7,0.1
	c-0.3-0.8-0.2-1.5-0.2-2.3h0.1c0.7,1,0.6,2.3,1.5,3.2c0.1,0,0.2,0.1,0.3,0c0-1.4-0.8-2.7-0.4-4.2c0.2,0.5,0.4,1.1,0.9,1.3
	c0.7-0.7,0.5-2,0.4-3c0.8,1,1,2.8,0.5,4.1c-0.1,0.2-0.2,0.3-0.1,0.5c0.6-0.2,1-0.8,1.3-1.3l0.1-0.1l0,0.1c0.1,0.4,0,0.9-0.1,1.3
	c-0.1,0.4-0.5,0.6-0.3,1c0.6-0.2,1-0.7,1.4-1.1c0.2,1.7-1,3.3-2.4,4v0.2c0,0,0.7-0.1,1.1-0.1c2.3-0.3,4.6-2.2,5.1-4.6
	c0.4-1.2,0-2.4,0.1-3.7l0-0.2l-0.1,0c-0.6,0.6-0.6,1.5-0.9,2.3c-0.2,0.2-0.3,0.6-0.6,0.6c0-1,0.4-1.9,0.7-2.7c0.3-1.1,0-2.3-0.7-3.2
	c0,0,0-0.1-0.1-0.1c0,0.1,0,0.1,0,0.2C50.6,23,50,24,49,24.8c-0.1,0.1-0.3,0.4-0.5,0.2c0.4-1.5,0.8-3.2-0.2-4.6
	c-0.2-0.3-0.4-0.7-0.8-0.9c0,1,0,2.2-0.7,2.9c0-0.5,0.1-1,0.1-1.5C47,18.4,44.3,16.8,44.8,14.1z M39,33.7v1.2h12v-1.2H39z"/>
</svg>
