<?xml version="1.0" encoding="utf-8"?>
<!-- Generator: Adobe Illustrator 28.1.0, SVG Export Plug-In . SVG Version: 6.00 Build 0)  -->
<svg version="1.1" id="svg2" xmlns:svg="http://www.w3.org/2000/svg"
	 xmlns="http://www.w3.org/2000/svg" xmlns:xlink="http://www.w3.org/1999/xlink" x="0px" y="0px" viewBox="0 0 800 800"
	 style="enable-background:new 0 0 800 800;" xml:space="preserve">
<style type="text/css">
	.st0{fill:#0060AF;}
	.st1{font-family:'Arial-BoldMT';}
	.st2{font-size:98.9809px;}
	.st3{fill:none;stroke:#000000;stroke-width:5;stroke-linecap:round;stroke-miterlimit:4;}
</style>
<g id="layer1" transform="translate(-3.9999869,185.92354)">
	
		<rect id="rect2221" x="121.3" y="-68.1" transform="matrix(0.7071 -0.7071 0.7071 0.7071 -33.2993 348.2255)" class="st0" width="564.8" height="564.8"/>
	<text transform="matrix(0.8255 0 0 1 381.1543 518.0054)" class="st1 st2">4</text>
	<rect id="rect3214" x="311.9" y="193.4" width="180.7" height="15.7"/>
	<path id="path3216" d="M423.2,175c84.4-19.5,99.7-90.6,89-117.3c-3.9,26.3-17.5,30.1-27.1,37.1c10-21.7,21-45.1,23.9-62.9
		c0.3-6.9-3.2-14.7-11.4-23.6c-1.1,25.8-15.9,40-35,50.7c19.3-56.2,9.7-83.5-15.7-95c8.1,21.2,5,40.2-2.1,58.6
		c-3.3,6.7-12.4,1.4-10-5.7c11.5-29.3,3.6-52.1-10.7-75.4c-12.7-15.7-8.5-32-7.9-46.8c-31.1,30.8-12,65.1-5.7,98.6
		c-12.4-11-24.8-24.7-37.1-28.6c-8.8-1.1-8.7-7.2-9.3-12.9c-0.7-2.6-5.8-3.5-6.2,2.5c-0.8,10.4,5.7,16.2,11.2,22.5
		c15.8,18.3-1.2,42.4-1.4,65c-10.6-11.3-21.5-22.2-33.6-30.7c1.5,5.1,3.1,10.2,6.4,15.7c4.6,10.9,2.9,18.3,0,25
		c-2.5,7-1.1,21.3-7.9,31.4c-9.1-13.4-20-22.5-32.9-27.9c3.9,7.2,9.7,13,10.6,22.2c5.3,48.5,24.9,98.4,84.4,95.6
		c-28.8-17.5-39.1-38.7-49.3-60c1.4-6.2,14.3,0,21.4,3.6c-1.8-10.5-5.8-22.3-1.4-29.3c2.9-6.3,7.5-4.4,8.6,0
		c3.2,16.8,8.7,31.1,18.6,40.7c-7.3-16.4-7.7-35.1-6.4-54.3c0.1-7.3,10.9-23.5,12.1,0c1.3,13.1,15.4,25.2,15,2.9
		c-0.1-10.3-2-20.4-6.1-27.5c-3.9-7.8,4.3-24.7,14.6,0.5c4.5,14.7,9.4,29.5,1.4,42c-2.1,6.9-2.7,13.6-1.4,20l9.3-10
		c9.9-12,10.9,0.1,10,4.3c-1.4,6.7-4.6,13.3-7.9,20c7.5-4.3,15.5-17.5,24.3-25C461.5,131.7,442.8,154.8,423.2,175z M420.1-22.4
		c-0.3,9.3,0.9,19.7-5.7,30.4c-4.4,9.4-0.8,12,2.1,12.9c5.5,1.5,10.7,2.1,12.9-7.1C430.1,0.7,428.7-13.1,420.1-22.4z"/>
	
		<rect id="rect3225" x="155.9" y="-33.4" transform="matrix(0.7071 -0.7071 0.7071 0.7071 -33.2994 348.2255)" class="st3" width="495.5" height="495.5"/>
</g>
</svg>
