<?xml version="1.0" encoding="utf-8"?>
<!-- Generator: Adobe Illustrator 28.1.0, SVG Export Plug-In . SVG Version: 6.00 Build 0)  -->
<svg version="1.1"
	 id="svg6792" xmlns:svg="http://www.w3.org/2000/svg" xmlns:rdf="http://www.w3.org/1999/02/22-rdf-syntax-ns#" xmlns:cc="http://creativecommons.org/ns#" xmlns:dc="http://purl.org/dc/elements/1.1/"
	 xmlns="http://www.w3.org/2000/svg" xmlns:xlink="http://www.w3.org/1999/xlink" x="0px" y="0px" viewBox="0 0 90 90"
	 style="enable-background:new 0 0 90 90;" xml:space="preserve">
<style type="text/css">
	.st0{fill:#FFDD00;stroke:#231F20;stroke-width:0.7;stroke-miterlimit:4;}
	.st1{fill:none;stroke:#231F20;stroke-width:0.7;stroke-miterlimit:4;}
	.st2{fill:#231F20;}
</style>
<rect id="rect6763" x="15" y="15" transform="matrix(0.7071 -0.7071 0.7071 0.7071 -18.6396 44.9999)" class="st0" width="60" height="60"/>
<rect id="rect6769" x="19.4" y="19.4" transform="matrix(0.7071 -0.7071 0.7071 0.7071 -18.6402 45.0005)" class="st1" width="51.3" height="51.3"/>
<path id="path3589" class="st2" d="M49.5,66c-0.2,0.5-0.5,0.9-0.9,1.2c-0.5,0.4-0.9,0.6-1.3,0.7v1.4c0.7-0.2,1.4-0.6,1.9-1.1v5.7
	h1.5V66H49.5z M40.2,66.1l-0.8,4.1l1.2,0.2c0.3-0.4,0.7-0.6,1.2-0.6c0.3,0,0.6,0.1,0.8,0.3c0.2,0.2,0.3,0.6,0.3,1.1
	c0,0.5-0.1,0.9-0.3,1.2c-0.2,0.3-0.5,0.4-0.8,0.4c-0.3,0-0.5-0.1-0.7-0.3c-0.2-0.2-0.3-0.5-0.4-0.8l-1.5,0.2
	c0.1,0.7,0.4,1.2,0.8,1.6c0.5,0.4,1.1,0.6,1.8,0.6c0.9,0,1.6-0.3,2.1-1c0.4-0.5,0.6-1.1,0.6-1.8c0-0.8-0.2-1.4-0.7-1.9
	c-0.5-0.5-1-0.7-1.7-0.7c-0.4,0-0.7,0.1-1,0.2l0.2-1.3h2.8v-1.4H40.2z M44.9,72.3v1.5h1.5v-1.5H44.9z"/>
<path id="path1360-4" class="st2" d="M44.9,11.5l-0.5,0.6c-1.4,1.7,0.6,3.7-0.3,5.4c-0.4-0.9-1.2-1.8-2.2-1.8v0.1c0,0,0,0,0.1,0
	c1,1.4,0.4,3.3-0.5,4.6c-0.4-0.5-0.8-1.2-1.4-1.2v0.1c0.8,1,0.4,2.4-0.1,3.4c-0.2,0.4-0.1,1-0.4,1.3c-0.4-0.2-0.8-0.5-1.3-0.5v0.2
	c1.2,1.5,0,3.3,0.2,5c0.1,0.4,0.3,1,0.8,1.1c0.2,2,1.4,3.7,3,4.6h-4.1V36h13.7v-1.7h-4c1.7-0.9,3-2.7,3.1-4.8c0.1,0,0.1,0,0.2,0
	c1.6-2-1.1-4.4,0.7-6.4c-0.4-0.1-0.8,0.1-1.1,0.3l-0.1-0.1c0.2-0.7,0.3-1.4,0.3-2.1c-0.1-1.2-0.4-2.3-1-3.3c-0.1,0.5,0,1.1-0.3,1.5
	c0.1-1.6-0.7-2.9-1.9-3.8c-0.1,0.5,0.4,1,0.1,1.5c-0.1-0.5-0.4-1-0.7-1.4c-0.7-1.1-2.1-1.9-2.1-3.4C44.8,12.1,45,11.8,44.9,11.5z
	 M45,24.9c2.4,0,4.3,1.9,4.3,4.3c0,2.4-1.9,4.3-4.3,4.3c-2.4,0-4.3-1.9-4.3-4.3C40.7,26.8,42.6,24.9,45,24.9z"/>
</svg>
