<?xml version="1.0" encoding="utf-8"?>
<!-- Generator: Adobe Illustrator 28.1.0, SVG Export Plug-In . SVG Version: 6.00 Build 0)  -->
<svg version="1.1"
	 id="svg2" xmlns:svg="http://www.w3.org/2000/svg" xmlns:rdf="http://www.w3.org/1999/02/22-rdf-syntax-ns#" xmlns:cc="http://creativecommons.org/ns#" xmlns:dc="http://purl.org/dc/elements/1.1/" xmlns:sodipodi="http://sodipodi.sourceforge.net/DTD/sodipodi-0.dtd" xmlns:inkscape="http://www.inkscape.org/namespaces/inkscape"
	 xmlns="http://www.w3.org/2000/svg" xmlns:xlink="http://www.w3.org/1999/xlink" x="0px" y="0px" viewBox="0 0 430 430"
	 style="enable-background:new 0 0 430 430;" xml:space="preserve">
<style type="text/css">
	.st0{fill-rule:evenodd;clip-rule:evenodd;fill:#FFFFFF;stroke:#000000;stroke-width:1;stroke-miterlimit:3.974;}
	.st1{fill:none;stroke:#000000;stroke-width:0.5;stroke-miterlimit:3.974;}
	.st2{stroke:#00000F;stroke-miterlimit:3.974;stroke-opacity:0.9412;}
	.st3{fill:none;stroke:#000000;stroke-width:2.5;stroke-miterlimit:3.974;}
</style>
<sodipodi:namedview  bordercolor="#666666" borderopacity="1.0" gridtolerance="10.0" guidetolerance="10.0" height="200px" id="base" inkscape:current-layer="g2801" inkscape:cx="216.40193" inkscape:cy="216.40193" inkscape:pageopacity="0.0" inkscape:pageshadow="2" inkscape:showpageshadow="false" inkscape:window-height="673" inkscape:window-width="922" inkscape:window-x="132" inkscape:window-y="144" inkscape:zoom="1.0674581" objecttolerance="10.0" pagecolor="#ffffff" showgrid="false" width="200px">
	</sodipodi:namedview>
<g id="g2801" transform="translate(567.01078,88.872218)">
	<g id="g3003" transform="matrix(0.9935067,0,0,0.9935067,-3.681776,2.2150397)">
		<path id="rect1909" class="st0" d="M-134.7,124.7l-215.9,215.9l-215.9-215.9l215.9-215.9L-134.7,124.7z"/>
		<path id="path2772" class="st1" d="M-134.7,124.7l-215.9,215.9l-215.9-215.9l215.9-215.9L-134.7,124.7z"/>
		
			<path id="path1891" sodipodi:nodetypes="cssssssssssssssssssssssssssssssssssssssssssssccssssssssssccsssscccsssccsssssssssssccssssssssssssccsssscccssssscccssssssccssssccsssssccssssssccssssssssssc" class="st2" d="
			M-398.2,87.7c-1-1-1.5-2.9-1.4-4.8c0.2-2.1-0.5-4.2-1.9-6c-4.6-5.8-1.5-10.6,6.9-10.6c3.2,0,7.5-1.3,14.1-4.1
			c5.2-2.3,9.6-4.2,9.8-4.4c0.2-0.2-5-2.9-11.5-6.1c-11.6-5.6-12-5.7-19.8-5.6c-6.1,0.1-8.3-0.2-9.8-1.5c-2.4-2.2-2.3-4.5,0.2-7.6
			c1.6-2.1,1.9-3.4,1.4-7.1c-1.2-8.9,4.2-10.4,11.2-3.1c4.6,4.8,19,14.6,24.9,17.1c4.6,1.9,4.7,0,0.1-2.2c-3.4-1.6-6.6-7-6.6-11.2
			c0-1-1.5-4.5-3.2-7.8c-2.8-5.2-3.2-6.9-3.2-13.5c0-8.6,2-13.5,7.6-18.6c7.4-6.9,19-11.5,29.1-11.4c13.8,0,30.2,9.1,34.6,19
			c3.3,7.4,2,20.1-2.8,27.1c-0.9,1.4-2,4.5-2.4,7c-0.8,5.4-2,7.2-6.3,9.4c-1.8,0.9-3.3,2.1-3.3,2.7c0,4.6,21-8.3,28.8-17.7
			c2.7-3.2,4.4-4.4,6.4-4.4c4.1,0,6.1,3.5,4.7,8.3c-0.9,3.2-0.7,4.1,1,6.4c2.6,3.2,2.6,5.5,0.2,7.7c-1.5,1.3-3.4,1.6-9.3,1.4
			c-7-0.3-8,0-19.7,5.1c-6.8,3-12.3,5.7-12.3,6.1c0,0.4,4.4,2.6,9.8,4.9c6.7,2.8,11.2,4.2,14.3,4.2c8.3,0,11.3,4.8,6.8,10.6
			c-1.5,1.9-2.1,3.9-1.9,6c0.3,3.9-2,6.5-5.7,6.5c-3.9,0-6.8-2.4-9.6-7.8c-1.3-2.6-3.2-5.4-4.2-6.3c-2.7-2.3-9.2-5.5-14.1-6.8
			c-3.7-1-4.7-0.9-8.2,0.9c-5,2.6-9.6,2.6-14.4,0c-4.9-2.6-7.1-2.5-13.8,0.6c-6.9,3.2-9.6,5.7-12.6,11.6c-1.3,2.6-3.4,5.4-4.6,6.3
			C-391.8,89.8-396.1,89.8-398.2,87.7z M-389,85.1c1.1-1.2,3-4.2,4.2-6.5c2-4,6.2-7.7,12.9-11.4c2.4-1.3,2.9-2.1,2.5-4.3
			c-0.3-1.4-0.9-2.6-1.4-2.6s-4.8,1.8-9.5,4c-6,2.8-10,4-13.1,4c-7.6,0-10.3,3-6.9,7.6c1.4,1.9,1.5,1.9,3.1-0.1c1.6-2,1.6-2,1,0.5
			c-1.5,6.5-1.7,8.1-1.2,9.5C-396.4,88.2-391.4,87.7-389,85.1z M-304.1,83.4c0-1.9-0.4-4.9-0.8-6.5c-0.7-2.9-0.7-2.9,0.9-1
			c1.6,2,1.7,2,3.1,0.1c3.4-4.5,0.7-7.6-6.6-7.6c-2.7,0-7.4-1.4-13.3-4.1l-9.2-4.1l-2.3,2.7c-2.6,3-2.2,3.7,3,5.4
			c5.9,1.9,11.6,6.7,14,11.6c2.5,5.3,5.4,7.7,8.9,7.3C-304.4,86.9-304,86.4-304.1,83.4z M-342.1,66.3c8.2-3.8,9.5-5.8,9.5-13.8
			c0-3.5-0.2-6.3-0.4-6.3c-2.2,0-3.6,1.7-3.6,4.4c0,2.9-0.6,3.5-6.5,6.5c-7.5,3.8-9.7,3.7-16.9-0.6c-4-2.4-4.6-3.3-4.6-6.1
			c0-1.8-0.2-3.3-0.4-3.3c-0.2,0-1.1-0.3-2-0.6c-1.3-0.5-1.6,0.4-1.6,6c0,9.3,1,11.4,6.2,12.8c2.4,0.6,5.2,1.8,6.3,2.6
			C-353.1,70.1-349.1,69.6-342.1,66.3z M-372.2,51.3c1-1.1,1.5-2.4,1.1-2.9c-0.3-0.5-4-2.8-8.2-5.1c-8.7-4.7-21.4-14-23.2-17.1
			c-1.5-2.5-4.8-2.7-6.1-0.3c-1.1,2.1,1,8.4,2.2,6.5c0.4-0.7,1.5-1.2,2.4-1.2c1.4,0,1.4,0.2-0.2,2c-1,1.1-2.6,2.2-3.5,2.5
			c-0.9,0.3-2.3,1.6-3,3c-2.3,4.2-0.1,5.6,8.9,5.3c7.2-0.2,8.2,0.1,17.2,4.5c5.2,2.6,9.8,4.7,10.1,4.7
			C-374.2,53.2-373.2,52.4-372.2,51.3z M-342.2,51.1c1.7-0.8,2.6-2,2.6-3.5c0-1.7,1.3-3,5.2-5.1c8-4.3,9.1-6.5,10.2-19.6
			c0.5-6.2,0.9-13.4,1-16.1c0.1-8.9,1.7-3.3,2,6.8l0.3,10l2.2-4.5c4.7-9.5,1.7-22.7-6.3-28.3c-2.2-1.5-6.6-4-9.9-5.5
			c-5.3-2.5-7.2-2.8-15.5-2.8c-8.3,0-10.3,0.4-15.5,2.8c-14.3,6.7-18,11.5-18,23.8c0,5.7,0.5,8.4,2,11l2,3.5l0.3-10
			c0.3-10.4,2.2-16.1,2.3-7c0,2.7,0.4,10,0.8,16.1c0.9,13.2,1.8,15.1,9.7,19.5c4.3,2.4,5.5,3.6,5.5,5.5c0,1.3,0.1,2.4,0.3,2.4
			c0.1,0,2.1,0.7,4.3,1.5C-352.8,53.4-346.6,53.1-342.2,51.1z M-356.1,42.1c-0.7-2.2,0.5-4.7,3.4-7.4c2.1-1.9,2.1-1.9,4.2,0
			c2.9,2.7,4.1,5.2,3.4,7.4c-0.5,1.5-1.6,1.9-5.5,1.9C-354.5,44-355.7,43.6-356.1,42.1z M-371.1,28.3c-1.1-1.2-1.6-3.1-1.4-5.2
			c0.3-2.9,0.8-3.4,4.1-4.2c3.9-0.9,12.8-0.1,12.7,1.1c0,0.4-0.9,1.8-2,3.2c-1.1,1.4-2,3.1-2,3.7C-359.7,30.3-368.3,31.3-371.1,28.3
			z M-339.8,29.1c-1-0.6-1.8-1.6-1.8-2.2c0-0.7-0.9-2.3-2-3.7c-1.1-1.4-2-2.8-2-3.2c0-1.3,8.8-2.1,12.7-1.1c3.3,0.8,3.8,1.3,4.1,4.2
			c0.2,2.1-0.3,4-1.4,5.2C-332,30.4-337,30.8-339.8,29.1z M-317.4,48.5c9.7-4.4,10.8-4.7,18-4.5c5.6,0.2,8-0.2,8.8-1.2
			c1.7-2.1,0.4-5.3-2.9-7c-3.6-1.9-6-4.6-3.9-4.6c0.8,0,1.9,0.5,2.5,1.1c1.6,1.6,3.7-4.9,2.2-6.7c-1.8-2.1-4.7-1.6-6.5,1.2
			c-2.9,4.4-14.6,13.5-22.4,17.3c-4.1,2-7.6,3.7-7.7,3.7c-0.1,0-0.5,1.3-0.9,2.8C-331.1,54.4-329.6,54.1-317.4,48.5z"/>
		<path id="path2799" class="st3" d="M-161.8,124.7l-188.8,188.8l-188.8-188.8l188.8-188.8L-161.8,124.7z"/>
		<path id="path2949" d="M-350.4,244.2c-4.4,0-8.1,1.7-10.8,5c-2.8,3.4-4.1,8.7-4.1,15.9c0,7,1.3,12.2,4,15.5
			c2.6,3.2,6.1,4.8,10.2,4.8c3.8,0,7-1.3,9.5-3.8c2.5-2.6,3.7-6,3.7-10.1c0-3.9-1.2-7.2-3.5-9.7c-2.3-2.5-5.2-3.8-8.5-3.8
			c-2.3,0-4.2,0.9-5.9,2.3c0.4-3.3,0.9-5.7,1.7-6.7c1-1.3,2.1-1.8,3.4-1.8c1,0,1.8,0.3,2.4,0.8c0.6,0.5,1,1.5,1.2,2.8l0.1,0.7
			l0.7-0.1l7.2-0.8l0.8-0.1l-0.1-0.8c-0.6-3.3-1.9-5.8-4-7.6C-344.6,245.1-347.3,244.2-350.4,244.2z M-351.1,264.9
			c1.3,0,2.3,0.5,3.1,1.5c0.8,1,1.3,2.6,1.3,5.1c0,2.4-0.5,3.9-1.2,4.8c-0.8,0.9-1.7,1.4-2.9,1.4c-1.2,0-2.2-0.5-3.2-1.7
			c-0.9-1.1-1.5-2.8-1.5-5v-0.1c0-2.1,0.5-3.5,1.3-4.5C-353.3,265.4-352.3,264.9-351.1,264.9z"/>
	</g>
</g>
</svg>
