<?xml version="1.0" encoding="utf-8"?>
<!-- Generator: Adobe Illustrator 28.1.0, SVG Export Plug-In . SVG Version: 6.00 Build 0)  -->
<svg version="1.1"
	 id="svg2211" xmlns:svg="http://www.w3.org/2000/svg" xmlns:rdf="http://www.w3.org/1999/02/22-rdf-syntax-ns#" xmlns:cc="http://creativecommons.org/ns#" xmlns:dc="http://purl.org/dc/elements/1.1/" xmlns:sodipodi="http://sodipodi.sourceforge.net/DTD/sodipodi-0.dtd" xmlns:inkscape="http://www.inkscape.org/namespaces/inkscape"
	 xmlns="http://www.w3.org/2000/svg" xmlns:xlink="http://www.w3.org/1999/xlink" x="0px" y="0px" viewBox="0 0 432 432"
	 style="enable-background:new 0 0 432 432;" xml:space="preserve">
<style type="text/css">
	.st0{fill:#FFFFFF;stroke:#000000;}
	.st1{fill:none;stroke:#000000;stroke-width:2;}
</style>
<sodipodi:namedview  bordercolor="#666666" borderopacity="1.0" gridtolerance="10.0" guidetolerance="10.0" id="base" inkscape:current-layer="svg2211" inkscape:cx="214.95391" inkscape:cy="115.91274" inkscape:pageopacity="0.0" inkscape:pageshadow="2" inkscape:window-height="1018" inkscape:window-maximized="1" inkscape:window-width="1920" inkscape:window-x="-8" inkscape:window-y="-8" inkscape:zoom="1.2979786" objecttolerance="10.0" pagecolor="#ffffff" showgrid="false">
	</sodipodi:namedview>
<path id="Outer_Diamond" sodipodi:nodetypes="ccccc" class="st0" d="M1.1,215.3l215.2,216.6l215.1-216.5L216,0L1.1,215.3z"/>
<path id="Inner_Diamond" inkscape:connector-curvature="0" sodipodi:nodetypes="ccccc" class="st1" d="M28.3,217.2l188.2,186.5
	l188.9-188L216.2,28.1L28.3,217.2z"/>
<g id="biohazard" transform="matrix(0.2551854,0,0,0.2551854,150.5275,63.503984)">
	<g id="use3341">
		<path id="p" d="M288.1,270.5c5.8-15.5-2.1-32.8-17.7-38.6c-1.8-0.7-3.6-1.1-5.5-1.5v-15.5c57.9-2.8,102.6-52,99.9-109.9
			c-2.3-48.4-37.4-88.9-84.9-98.1V1.3c82.1,11,139.7,86.6,128.7,168.7c-0.2,1.5-0.4,3-0.7,4.6c77.6,29.1,116.8,115.6,87.7,193.1
			c-0.5,1.4-1.1,2.9-1.7,4.3l-4.8-2.8c18.9-54.8-10.2-114.6-65-133.5c-45.8-15.8-96.4,1.8-122.6,42.5L288.1,270.5z M322.3,181.8
			c-36.4-29-88.1-29-124.5,0c-8.9-7.7-16.3-17-21.8-27.4c49.2-39.1,118.9-39.1,168,0C338.4,164.7,331.1,174,322.3,181.8z"/>
	</g>
	<g id="use3343" transform="matrix(-0.5,0.8660254,-0.8660254,-0.5,615.1666,164.8334)">
		<path id="p_1_" d="M236.9,279.1c10.6,12.8,29.5,14.6,42.2,4c1.5-1.2,2.8-2.5,4-4l13.5,7.8c-26.6,51.5-6.3,114.9,45.2,141.4
			c43,22.2,95.6,12.1,127.4-24.5l4.8,2.8c-50.6,65.6-144.8,77.7-210.4,27.1c-1.2-0.9-2.4-1.9-3.6-2.9
			c-64,52.6-158.5,43.4-211.1-20.6c-1-1.2-1.9-2.4-2.9-3.6l4.8-2.8c38,43.8,104.3,48.4,148.1,10.4c36.5-31.7,46.7-84.4,24.5-127.4
			L236.9,279.1z M296.6,353c43.3-17.1,69.2-61.8,62.3-107.8c11.1-3.8,22.9-5.6,34.6-5.1c9.3,62.2-25.6,122.5-84,145.5
			C303.3,375.6,299,364.6,296.6,353z"/>
	</g>
	<g id="use3345" transform="matrix(-0.5,-0.8660254,0.8660254,-0.5,164.8334,615.1666)">
		<path id="p_2_" d="M255,230.4c-16.3,2.8-27.3,18.2-24.6,34.6c0.3,1.9,0.8,3.7,1.5,5.5l-13.5,7.8c-31.4-48.8-96.3-62.9-145.1-31.6
			c-40.7,26.2-58.3,76.8-42.5,122.6L26,372c-31.5-76.6,5.1-164.3,81.7-195.8c1.4-0.6,2.9-1.1,4.3-1.7C98.5,92.8,153.7,15.6,235.4,2
			c1.5-0.3,3-0.5,4.6-0.7v5.6c-56.9,11-94.1,66.1-83.1,123.1c9.2,47.5,49.7,82.6,98.1,84.9L255,230.4L255,230.4z M161.1,245.2
			C154.2,291.3,180,336,223.4,353c-2.2,11.6-6.6,22.6-12.9,32.6c-58.5-23-93.3-83.4-84-145.5C138.2,239.7,150,241.5,161.1,245.2z"/>
	</g>
</g>
<g id="_x36_" transform="scale(0.9955493,1.0044705)">
	<path id="path3264" d="M229.5,355l-7.5,0.8c-0.2-1.5-0.7-2.7-1.4-3.4c-0.8-0.7-1.8-1.1-3-1.1c-1.6,0-3,0.7-4.2,2.2
		c-1.1,1.5-1.9,4.5-2.1,9.2c1.9-2.3,4.3-3.4,7.2-3.4c3.2,0,6,1.2,8.3,3.7c2.3,2.5,3.5,5.7,3.5,9.6c0,4.1-1.2,7.5-3.7,10
		c-2.4,2.5-5.6,3.8-9.4,3.8c-4.1,0-7.5-1.6-10.1-4.8c-2.6-3.2-4-8.4-4-15.7c0-7.4,1.4-12.8,4.1-16.1c2.7-3.3,6.3-4.9,10.7-4.9
		c3.1,0,5.6,0.9,7.7,2.6C227.7,349.2,229,351.7,229.5,355L229.5,355z M211.9,371.9c0,2.5,0.6,4.5,1.7,5.9c1.2,1.4,2.5,2.1,4,2.1
		c1.4,0,2.6-0.6,3.6-1.7c1-1.1,1.4-3,1.4-5.5c0-2.6-0.5-4.6-1.5-5.8c-1-1.2-2.3-1.8-3.9-1.8c-1.5,0-2.8,0.6-3.8,1.8
		C212.4,367.9,211.9,369.7,211.9,371.9L211.9,371.9z"/>
</g>
</svg>
