<?xml version="1.0" encoding="utf-8"?>
<!-- Generator: Adobe Illustrator 28.1.0, SVG Export Plug-In . SVG Version: 6.00 Build 0)  -->
<svg version="1.1" id="svg4358" xmlns:svg="http://www.w3.org/2000/svg"
	 xmlns="http://www.w3.org/2000/svg" xmlns:xlink="http://www.w3.org/1999/xlink" x="0px" y="0px" viewBox="0 0 432.3 432.3"
	 style="enable-background:new 0 0 432.3 432.3;" xml:space="preserve">
<style type="text/css">
	.st0{fill:#FFFFFF;stroke:#000000;stroke-width:1;stroke-miterlimit:4;}
	.st1{fill:none;stroke:#000000;stroke-width:2;stroke-miterlimit:4;}
	.st2{fill:#FFFFFF;}
</style>
<g id="Ebene_4">
	
		<rect id="rect4295" x="63.8" y="63.8" transform="matrix(0.7071 -0.7071 0.7071 0.7071 -89.5287 216.1381)" class="st0" width="304.7" height="304.7"/>
	
		<rect id="rect4291" x="83.1" y="83.1" transform="matrix(0.7071 -0.7071 0.7071 0.7071 -89.5281 216.1375)" class="st1" width="266" height="266"/>
	<polygon id="polygon4293" points="404.2,216.1 216.1,404.2 28,216.1 	"/>
</g>
<g id="Ebene_1">
	<path id="path4363" d="M77.8,186.5v18.2h121.7v-18.2h-45.7c0,0-2.2,0.7-2.7,1.4c-0.4,0.7-0.8,0.9-1.7,0.9c-1.2,0-2.1,0.5-3.9,2.1
		c-0.6,0.6-1.9,1.2-3,1.5c-1.8,0.5-4.6-0.4-4.6-0.4c-1.5-0.5-3-0.9-3.2-0.9c-1.2,0-4.4-1.8-5.3-3c-0.5-0.7-2.2-1.7-2.2-1.7
		L77.8,186.5L77.8,186.5z M121,182.1c-2-1-2.2-1.3-3.2-3.1c-1-2.1-2-2.8-3.6-2.8c-1.3,0-2.5-1.3-2.6-2.7c-0.2-6.6-0.3-7.1-2.5-9.1
		c-2.1-2-2.2-2.4-0.9-4.9c0.5-1,1.2-2.7,1.6-3.9c0.9-2.7,1.8-3.2,3.2-1.7c1.2,1.2,1.2,1.8,0,4c-1.5,2.7-1.4,3.6,0.6,5.3
		c2,1.7,2.9,3.5,2.5,5.2c-0.6,3.3-0.7,3,1.1,3.9c2.1,1.1,3.9,3.1,4.2,4.8c0.2,1.3,0.8,2,2.9,3.4c1.3,0.9,1.7,1.4,1.4,2.1
		C125.5,183.5,123.4,183.2,121,182.1z M131.2,182.1c-0.3-0.2-1-1.1-1.5-2.1c-0.5-0.9-1.4-2.3-2-3c-1.1-1.2-1.1-1.3-1.1-4.2
		c0-3.4-0.3-4.1-2.5-5c-2-0.9-2.4-1.7-1.8-3.9c0.5-2.3,0.2-3.3-1.6-4.6c-2.7-2-3.5-4.2-2.1-6.2c0.4-0.6,1-2.1,1.4-3.3
		c0.5-1.7,1-2.5,1.6-3c1.1-0.8,1.7-0.5,2.7,1.1c0.6,1,0.6,1.3,0.3,2.9c-0.2,1-0.7,2.4-1.1,3.1c-0.8,1.5-0.8,1.3,1.3,3.7
		c1.6,1.8,1.7,1.9,1.8,4.5c0.1,2.7,0.7,3.7,2.3,4.3c1.6,0.6,2.6,1.6,2.6,2.6c0,0.5-0.3,1.8-0.7,3c-0.8,2.5-0.7,2.7,1.7,5.3
		c1.9,2.1,2.1,3.3,0.7,4.4C132.5,182.6,132.1,182.6,131.2,182.1z M153.6,176.9c-0.9-0.7-1.5-4.6-1.2-7.3c0.1-1.5,0.4-2,1.5-3.2
		c1.5-1.6,1.6-1.9,1.8-5.2c0.3-3.9,2.6-7.9,4.6-7.9c1.1,0,2.3,1,2.3,2.1c0,1.2-0.8,3.3-2.1,5.3c-1.1,1.7-1.2,1.9-1,3.7
		c0.2,1.8,0.2,2-0.8,3c-1.5,1.6-1.7,2.3-1.7,5c0,2.8-0.4,4.4-1.3,4.9C154.7,177.6,154.4,177.6,153.6,176.9z M158.5,176.3
		c-0.3-0.3-0.4-1.2-0.4-2.1c0.1-2.2,1.6-5.1,4.1-7.8c2.1-2.4,2.5-3.2,2.2-4.9c-0.7-3.4-0.6-3.8,0.2-5.3c0.5-0.8,1.3-1.8,1.9-2.3
		c3.5-2.6,3.9-3.3,4.4-7c0.3-2.2,1.2-3.5,2.7-3.9c1.5-0.4,2.7,0.1,3.3,1.3c0.5,1,0.2,2-1.2,3.6c-0.8,1-1,1.5-1,3.1
		c0,2.8-1,4.4-4,6.5c-1.5,1-2.6,2.1-2.9,2.7c-0.5,1-0.5,1.1,0.4,2.4c1.8,2.7,1.7,2.9-1.9,6.4c-2.4,2.2-3.4,3.5-4.1,4.9
		c-0.5,1-1.1,2.1-1.4,2.5C160.3,177,159.1,177,158.5,176.3z M138.8,172.5c-1.9-1-2.9-2.6-3.1-5.1c-0.1-2.3,0.5-4.1,2.5-7.5
		c0.6-1,1.3-2.5,1.6-3.4c0.3-0.9,0.7-1.6,1-1.6c0.2,0,1.6,1.1,2.9,2.5c3.4,3.4,4.2,5.1,4.2,8.9c0,3.5-0.6,4.6-3.3,5.9
		C142.4,173.4,140.6,173.4,138.8,172.5z M142,167.5c0.5-0.5,0.6-0.9,0.5-1.6c-0.3-1.1-1.3-2.5-1.8-2.5c-1.1,0-2.1,3.5-1.3,4.4
		C140,168.4,141.2,168.3,142,167.5z M297.4,158.7c-1.2-0.8-0.7-1.9,2.1-4c0.8-0.6,1-1,1.1-2.6c0.2-2.1,1-3.1,2.4-3.1
		c0.9,0,1.3-0.5,1.6-1.7c0.1-0.5,0.6-1.4,1.2-2.1c0.6-0.7,1.1-2,1.4-3.1c0.4-2,1.2-3,2.7-3.3c1.6-0.3,1.8-0.9,1.2-3.4
		c-0.7-3-0.3-4,1.5-4c0.5,0,1.3,0.4,1.8,0.8c0.9,0.7,1,0.9,1.1,3.4c0,1.4,0.1,3.1,0.2,3.8c0.1,1.1,0,1.2-1.6,2
		c-1.8,0.9-2,1.4-2.1,4.1c0,0.9-0.3,1.6-0.9,2.2c-0.5,0.5-1,1.5-1.2,2.3c-0.5,2.3-1.1,2.9-3.3,3.5c-1.3,0.4-2,0.8-2.2,1.2
		c-0.2,0.6-1.8,1.6-2.6,1.6c-0.3,0-1.1,0.6-1.8,1.3C298.7,158.9,298.1,159.1,297.4,158.7z M276.1,157.9c-1.4-0.9-2.4-3-2.4-5.2
		c0-1.4,0.3-2.3,2.2-6c1.2-2.4,2.3-4.4,2.5-4.6c0.4-0.4,5,4.2,5.8,6c0.4,0.8,0.7,2.3,0.8,3.8c0.2,3-0.3,4.2-2.3,5.5
		C280.8,158.7,277.7,158.9,276.1,157.9z M279.4,153.6c0.8-0.8,0.8-1.4,0.2-2.6c-0.8-1.6-1.7-1.6-2.4,0.1c-0.6,1.3-0.5,2.5,0.2,2.9
		C278.1,154.4,278.6,154.4,279.4,153.6z M258.8,156.2c-0.3-0.2-0.8-0.8-1.1-1.3c-0.4-0.6-1.4-1.3-2.7-1.9c-1.2-0.5-2.3-1.3-2.5-1.7
		s-0.9-0.9-1.5-1.2c-1.6-0.7-1.8-1.1-1.8-3.6c0.1-2.1,0-2.3-1-3.2c-0.6-0.5-2-1.3-3.1-1.7c-2.4-0.9-3.8-2.3-4.1-4.2
		c-0.2-1.1-0.5-1.5-1.7-2.4c-2.5-1.7-3.2-3.3-1.8-4.7c0.9-0.9,2.9-0.9,4.1,0c0.5,0.4,0.9,0.9,0.9,1.1c0,0.2,0.6,1,1.4,1.8
		c0.9,1,1.4,1.8,1.6,2.7c0.2,1.3,0.2,1.3,2.2,1.6c3.7,0.7,5.6,2.4,5.3,4.7c-0.2,1,0,1.6,0.7,3c1.3,2.4,2.9,4.1,4,4.1
		c0.6,0,1.5,0.7,3,2.1c3.2,3.1,3.4,3.7,1.3,4.7C260.6,156.7,259.5,156.7,258.8,156.2z M288.2,155.7c-1.2-1.2-1.1-2.3,0.5-4l1.4-1.5
		l-0.2-2.4c-0.2-2.3-0.2-2.4,0.8-3.3c0.6-0.6,0.9-1.2,0.8-1.6c-0.1-0.5,0.5-1.3,2.3-3c2.3-2.2,2.5-2.6,2.9-4.3
		c0.3-1.6,0.6-2.1,1.9-3.3l1.5-1.4l-0.2-2.9c-0.2-2.6-0.1-3,0.5-3.8c0.5-0.7,1-0.9,1.9-0.9c1.8,0,2.1,0.6,2.1,3.5
		c-0.1,1.9,0.1,2.7,0.6,3.8c1,2,0.9,2.6-1.1,4.5c-1.6,1.5-1.8,1.8-1.8,2.9c0,2.3-0.8,3.4-2.8,4.3c-2.8,1.2-4.8,4.6-4.4,7.4
		c0.2,1.2,0.1,1.4-1.4,3.1c-0.9,1-1.9,2.2-2.2,2.7C290.5,156.9,289.3,156.9,288.2,155.7z M265.3,153.4c-0.5-0.5-1.1-1.6-1.4-2.4
		c-0.6-1.8-1.6-2.8-3.2-3.7c-1.5-0.8-2.1-1.6-2.9-4.2c-0.5-1.4-1.2-2.6-2.2-3.8c-2.2-2.5-3-6.1-1.4-6.7c1.1-0.4,2.1,0.3,2.9,1.9
		c1.1,2.3,1.6,2.7,3.1,3.4c1.6,0.6,3.1,2.8,3.6,5.1c0.3,1.5,0.7,2.1,2.4,3.8c1.9,2,2,2.1,2.2,4.2c0.2,2.4-0.2,3.2-1.4,3.2
		C266.5,154.3,265.8,153.9,265.3,153.4z M139.4,150.2c-2.4-1-3.7-3.7-3.4-6.7c0.2-1.7,4.5-10.7,5.1-10.8c0.8,0,4.8,5.8,5.6,8.1
		c0.6,1.8,0.7,5.2,0,6.4C145.3,150.1,142.1,151.3,139.4,150.2z M142.3,145.1c0.3-0.3,0.6-0.9,0.6-1.4c0-1.2-1.3-3-2.1-3
		c-0.4,0-1.6,2.5-1.6,3.3C139.3,145.4,141.2,146.2,142.3,145.1z M276.9,141.1c-1.5-0.8-2.2-1.5-2.9-2.9c-1.2-2.7-0.7-5.3,1.9-10
		c0.7-1.3,1.5-2.9,1.7-3.6c0.2-0.7,0.6-1.3,0.7-1.5c0.4-0.3,4.7,3.9,6,5.9c1.1,1.7,1.9,5.4,1.5,7.4
		C285.2,139.8,279.7,142.6,276.9,141.1z M279.9,135.8c0.6-0.8,0.5-1.7-0.2-3c-0.9-1.5-1.8-1.4-2.5,0.3c-0.7,1.8-0.7,2.5,0.2,3.1
		C278.3,136.7,279.3,136.6,279.9,135.8z M146,125.2c-0.7-0.6-1.2-1.5-1.5-2.8c-0.3-1-1.1-4.2-1.8-7c-0.7-2.9-1.4-5.8-1.4-6.5
		c0-2.6,2.8-3.8,5-2c0.6,0.5,1.2,0.8,1.4,0.7c0.2-0.1,3.5-0.9,7.4-1.8c3.8-0.9,10.1-2.4,13.9-3.4c3.8-0.9,8.8-2.1,11.1-2.7
		c2.3-0.6,6.6-1.6,9.6-2.3c6.8-1.7,8.9-1.8,11.1-0.5c1.2,0.7,1.8,1.3,2.4,2.6c2.1,4.5-0.3,8.8-5.7,10.2c-0.7,0.2-2.1,0.5-3.1,0.8
		c-1,0.3-3.5,0.9-5.5,1.5c-2,0.5-4.8,1.3-6.1,1.7c-1.4,0.4-4.2,1.1-6.3,1.7c-4.5,1.2-15.1,4-18.4,5c-1.3,0.4-3.3,0.9-4.5,1.2
		c-2.3,0.6-3.3,1.2-3.3,2.1c0,0.9-1.1,2-2.2,2.2C147.2,126.1,146.8,125.9,146,125.2z M188.7,110.5c5.3-1.4,10-2.8,10.6-3.1
		c2.8-1.5,3.9-4.4,2.5-7.2c-1.6-3.2-3.6-3.1-18.8,0.6c-10.7,2.6-18,4.4-30.7,7.4c-6.4,1.5-7.2,1.8-7.7,2.6c-0.3,0.5-0.2,0.8,0.5,1.4
		l0.8,0.8h16.6h16.6L188.7,110.5z M271.6,124.6c-0.4-0.2-1-1-1.4-1.8c-0.4-0.8-1-1.5-1.5-1.7c-0.8-0.3-9.1-2.6-33.9-9.2
		c-9.4-2.5-13.1-3.6-14.3-4c-2.3-0.9-4.3-3.7-4.3-6c0-3.1,2-6,4.6-6.7c2.1-0.6,3.7-0.3,12.9,1.9c4.5,1.1,9.7,2.4,11.6,2.8
		c7.5,1.8,12.1,2.9,18.7,4.5c9.4,2.3,9.2,2.3,10.2,1.2c1.3-1.4,3.6-1,4.5,0.9c0.5,1.1,0.5,1.4-1.5,8.8c-2.1,8.1-2.5,9.1-4.2,9.4
		C272.8,124.9,272.1,124.8,271.6,124.6z M275.3,111.3c0.4-0.3,0.8-0.7,0.8-0.9c0-0.5-1.3-1.9-1.9-1.9c-0.2,0-3.8-0.8-8-1.8
		c-10.9-2.6-21-5.1-24.8-6c-1.8-0.4-6.5-1.6-10.3-2.5c-9.2-2.2-11-2.1-12.5,1.1c-0.8,1.7-0.8,3.1-0.1,4.5c1.2,2.2,2.5,2.8,12.9,5.6
		c2.6,0.7,5.8,1.6,7.2,1.9c2.5,0.7,3.2,0.7,19.2,0.6C272.2,111.8,274.6,111.7,275.3,111.3z"/>
</g>
<g id="Ebene_5">
	<path id="path4298" d="M258.1,161.8h0.2h9c0.7,0,1.1,0.6,1.7,1.6c0.5,0.8,1.1,1.7,2.1,2.3c1.2,0.7,7.4,3.6,9,3.4c0.4-0.1,1,0,1.7,0
		c1,0.1,2.1,0.2,3-0.1c1.7-0.4,3.4-1.5,4-2.2c0.5-0.5,0.9-0.6,2.1-1l0.5-0.1c1.7-0.6,2.7-1.9,2.7-1.9c0.3-0.4,1.1-1.2,1.6-1.4
		c0,0,4.6-1.5,7.9-0.8c2.9,0.6,6.2,2.5,7.6,4c0.3,0.3,0.7,0.7,1.1,1.1c1.5,1.6,3.3,3.5,4.8,3.9c1.7,0.5,3.2,0.7,3.3,0.7l0,0h0h17.2
		v-1.5h-17.1c-0.2,0-1.5-0.2-3-0.6c-1.1-0.3-2.8-2.2-4.1-3.5c-0.4-0.4-0.8-0.8-1.1-1.1c-1.6-1.6-5.1-3.7-8.4-4.4
		c-3.7-0.8-8.5,0.8-8.7,0.9c-1.2,0.4-2.2,1.8-2.4,1.9c0,0-0.7,1-2,1.4l-0.4,0.1c-1.2,0.4-2,0.6-2.7,1.4c-0.5,0.5-1.9,1.5-3.3,1.8
		c-0.7,0.2-1.7,0.1-2.6,0c-0.7-0.1-1.4-0.1-2,0c-0.8,0.1-5.8-2.1-8-3.2c-0.6-0.3-1.1-1-1.5-1.8c-0.7-1.1-1.5-2.3-3-2.3h-9
		c0,0,0,0-0.1,0h-0.1c-0.1,0-0.1,0-0.1,0v0c-3.3,0.1-6,2.8-6,6.1c0,1.8,0.8,3.5,2.2,4.7h-25.2c0,0,0,0-0.1,0h-0.1c0,0-0.1,0-0.1,0v0
		c-2.9,0.1-5.2,2.5-5.2,5.4c0,1.5,0.7,2.9,1.7,3.9h-5.6c0,0,0,0-0.1,0h-0.1c-0.1,0-0.1,0-0.1,0v0c-2.9,0.1-5.2,2.5-5.2,5.4
		c0,2.9,2.4,5.3,5.3,5.4h0c0,0,0,0,0.1,0h0.1c0,0,0.1,0,0.1,0h6.5c-1,1-1.7,2.4-1.7,3.9c0,2.9,2.4,5.3,5.3,5.4c0,0,0,0,0,0
		c0,0,0,0,0.1,0h0.1c0,0,0.1,0,0.1,0h3.2c-1,1-1.7,2.4-1.7,3.9c0,2.9,2.4,5.3,5.3,5.4c0,0,0,0,0,0c0,0,0,0,0.1,0h0.1
		c0,0,0.1,0,0.1,0h36.2c3.2,0,7.9-0.8,13.4-1.8c2.2-0.4,4.5-0.8,6.8-1.2c1.7-0.3,3.4-0.4,5.1-0.5c2.4-0.2,4.9-0.4,7.3-1
		c2-0.5,3.7-1.5,5.3-2.4c0.9-0.5,1.7-0.9,2.5-1.3c3.2-1.5,6.1-2.1,6.9-2.1h17.2v-1.5h-17.2c-1.3,0-4.5,0.9-7.5,2.2
		c-0.9,0.4-1.8,0.9-2.6,1.4c-1.5,0.9-3.1,1.8-5,2.3c-2.2,0.6-4.6,0.8-7,0.9c-1.7,0.1-3.5,0.3-5.2,0.5c-2.3,0.4-4.6,0.8-6.9,1.2
		c-5.4,1-10,1.8-13.1,1.8H237h-0.2c-2.1,0-3.8-1.8-3.8-3.9s1.7-3.8,3.8-3.9h0.2h24v-1.5h-24c0,0,0,0-0.1,0h-0.1c0,0-0.1,0-0.1,0H230
		h-0.2c-2.1,0-3.8-1.8-3.8-3.9s1.7-3.8,3.8-3.9h0.2h28.5v-1.5H230c0,0,0,0-0.1,0h-0.1c0,0-0.1,0-0.1,0h-10.1h-0.2
		c-2.1,0-3.8-1.8-3.8-3.9s1.7-3.8,3.8-3.9h0.2h9.2c0,0,0,0,0,0c0,0,0,0,0.1,0h0.1c0,0,0.1,0,0.1,0H251h8.2v-1.5H251h-21.9h-0.2
		c-2.1,0-3.8-1.8-3.8-3.9s1.7-3.8,3.8-3.9h0.2h44c0.4,0.1,3.1,0.6,5.1,2.3c0.6,0.5,1.5,1.6,2.6,2.9c3.2,3.8,7.5,9,11.4,9.1l0.1-1.5
		c-3.2-0.1-7.4-5.2-10.3-8.6c-1.2-1.4-2.1-2.5-2.8-3.1c-2.5-2.1-5.7-2.6-5.9-2.7l0,0.2v-0.2h-14.9v0h-0.2c-2.5-0.1-4.5-2.1-4.5-4.6
		C253.6,163.9,255.6,161.8,258.1,161.8z"/>
</g>
<g id="Ebene_6">
	<g id="g4384">
		<path id="path4386" class="st2" d="M208.7,358.2c-1.3-0.8-2.3-1.8-2.9-2.8c-0.8-1.4-1.3-3.1-1.3-4.9c0-3,1.2-5.5,3.6-7.5
			c1.9-1.5,4.4-2.2,7.5-2.2c4.1,0,7.1,0.9,9.1,2.8c2,1.9,2.9,4.2,2.9,7c0,1.6-0.4,3.2-1.2,4.6c-0.6,1.1-1.5,2.1-2.8,3.1
			c1.7,0.9,2.9,2.2,3.7,3.7c0.8,1.6,1.2,3.3,1.2,5.2c0,1.8-0.4,3.5-1.1,5.1s-1.6,2.8-2.6,3.7c-1,0.9-2.3,1.5-3.8,1.9
			c-1.5,0.4-3.2,0.6-4.9,0.6c-3.3,0-5.7-0.5-7.5-1.4s-3-2.2-3.9-4c-0.9-1.8-1.3-3.7-1.3-5.9c0-2.1,0.4-3.9,1.3-5.4
			C205.7,360.1,207,359,208.7,358.2z M212.1,366.7c0,1.6,0.4,2.9,1.2,3.9c0.8,1,1.8,1.5,2.8,1.5c1,0,1.9-0.5,2.8-1.6
			s1.2-2.4,1.2-3.9c0-1.6-0.4-2.9-1.2-4c-0.8-1-1.8-1.5-2.9-1.5c-1.1,0-2,0.5-2.8,1.5C212.5,363.7,212.1,365,212.1,366.7z
			 M212.6,351c0,1.3,0.3,2.3,1,3.1c0.7,0.8,1.6,1.2,2.7,1.2c1,0,1.8-0.4,2.4-1.1s0.9-1.8,0.9-3c0-1.3-0.3-2.3-1-3.1
			c-0.7-0.8-1.5-1.2-2.5-1.2c-1,0-1.9,0.4-2.5,1.2C212.9,348.8,212.6,349.8,212.6,351z"/>
	</g>
</g>
</svg>
