<?xml version="1.0" encoding="utf-8"?>
<!-- Generator: Adobe Illustrator 28.1.0, SVG Export Plug-In . SVG Version: 6.00 Build 0)  -->
<svg version="1.1" id="Ebene_1" xmlns="http://www.w3.org/2000/svg" xmlns:xlink="http://www.w3.org/1999/xlink" x="0px" y="0px"
	 viewBox="0 0 724 724" style="enable-background:new 0 0 724 724;" xml:space="preserve">
<style type="text/css">
	.st0{fill:#FFFFFF;}
	.st1{stroke:#000000;stroke-width:4.9252;stroke-miterlimit:3.9401;}
	.st2{stroke:#000000;stroke-width:3.9401;stroke-miterlimit:3.9401;}
	.st3{fill:#FFFFFF;stroke:#000000;stroke-width:4.9252;stroke-miterlimit:3.9401;}
</style>
<path d="M362,716.5l354.6-354.6L362,7.3L7.4,361.9L362,716.5z"/>
<path class="st0" d="M362,660.3L63.7,362L362,63.7L660.3,362L362,660.3z"/>
<g>
	<path class="st1" d="M220.4,361.7h277"/>
	<path class="st2" d="M455.8,411.7l32.5,23.4l-30.9,14.9l41.6,3.7l-11.2,14.9h23l0.5,16.5l-289.8-1.6c0,0,48.5-14.4,56.4-8.5
		c10.7-4.8,88.5-37.8,88.5-35.7 M291.7,413.8l1.6-84.1l-42.1-22.9c0,0-6.4-4.3-15.4-1.6c-3.2,1.1-7.5,2.1-7.5,2.1s23-19.2,27.2-17.6
		c4.3,1.6,34.1,16,34.1,16s-3.2-22.4-11.2-28.8s-38.9-30.9-38.9-30.9v-5.9l42.1,25.6c0,0,1.6-24.5-6.9-38.9
		c-8.5-14.4-14.9-27.2-14.9-27.2l2.7-2.1l20.8,32l6.9-21.9l4.3-1.1c0,0-5.3,30.9-1.6,40.5c3.7,9.6,17.6,61.8,17.6,61.8l20.8-29.8
		c0,0,0.5-12.3-0.5-20.8c-1.1-8.5-2.7-47.9-2.7-47.9h3.7l5.9,43.1l33.6-38.9v4.3c0,0-33,41.6-31.4,50.6c1.6,9.1,3.2,14.4-2.7,27.2
		s-9.6,21.9-9.6,21.9s17.6-20.8,25.6-22.4c8-0.5,18.6,0.5,26.1-5.9c7.5-6.4,25.6-26.6,25.6-26.6l-28.2,43.6c0,0-13.3,0.5-18.6,6.4
		c-5.3,5.9-27.2,30.9-27.2,30.9v57.5l36.2,18.1l-44.2,6.4l-10.7,15.4l-14.4-12.3l-40,3.7L291.7,413.8z"/>
	<path class="st3" d="M349.9,438.4c10.1-4.2,26.6-11.2,36.2-25c9.9-14.3,45.3-74.6,93.8-69.7c-2.7,6.4-11.2,20.2-11.2,20.2
		l34.6-10.7c0,0,0.5,45.8-65,75.1c-30.4,10.7-36.7,11.2-39.4,14.9c-2.7,3.7-14.9,22.4-14.9,22.4l-54.3-23.9
		C329.7,441.6,343.5,441.1,349.9,438.4L349.9,438.4z"/>
</g>
<ellipse cx="477.1" cy="380" rx="5.9" ry="5.1"/>
</svg>
